M48
; DRILL file {KiCad (5.1.6)-1} date 06/24/20 23:25:05
; FORMAT={-:-/ absolute / inch / decimal}
; #@! TF.CreationDate,2020-06-24T23:25:05+02:00
; #@! TF.GenerationSoftware,Kicad,Pcbnew,(5.1.6)-1
FMAT,2
INCH
T1C0.0079
T2C0.0118
T3C0.0157
T4C0.0394
T5C0.0472
%
G90
G05
T1
X6.375Y-3.56
X6.375Y-3.6014
X6.375Y-3.6427
X6.375Y-3.6841
X6.4173Y-3.56
X6.4173Y-3.6014
X6.4173Y-3.6427
X6.4173Y-3.6841
X6.4596Y-3.56
X6.4596Y-3.6014
X6.4596Y-3.6427
X6.4596Y-3.6841
T2
X4.8791Y-4.2295
X4.8791Y-4.2673
X4.913Y-4.2484
X4.9469Y-4.2295
X4.9469Y-4.2673
T3
X4.4488Y-3.376
X4.4882Y-3.6909
X4.498Y-4.2717
X4.5079Y-4.8228
X4.5472Y-4.0157
X4.5866Y-3.002
X4.5965Y-4.5177
X4.6063Y-4.7441
X4.6358Y-4.1634
X4.6752Y-3.8484
X4.6949Y-3.1398
X4.7343Y-2.874
X4.813Y-4.5866
X4.8327Y-4.7933
X4.9114Y-3.1004
X4.9311Y-4.7047
X4.9508Y-3.6024
X5.0295Y-3.002
X5.0591Y-2.8346
X5.1378Y-3.622
X5.1378Y-4.5866
X5.1673Y-4.065
X5.187Y-3.8091
X5.187Y-4.4193
X5.1969Y-3.1693
X5.1969Y-4.2224
X5.2067Y-4.8031
X5.3051Y-3.8681
X5.3051Y-3.9075
X5.3248Y-3.2382
X5.3248Y-3.2776
X5.3445Y-3.8681
X5.3445Y-3.9075
X5.3543Y-3.1102
X5.3642Y-3.2382
X5.3642Y-3.2776
X5.4035Y-3.6909
X5.4035Y-4.5866
X5.4232Y-3.5335
X5.4528Y-3.3563
X5.4528Y-4.8425
X5.4724Y-3.8189
X5.5217Y-3.002
X5.5906Y-4.6555
X5.6102Y-3.2382
X5.6201Y-3.9567
X5.6201Y-3.9961
X5.6594Y-3.9567
X5.6594Y-3.9961
X5.7087Y-3.2283
X5.7087Y-3.3563
X5.7087Y-3.8484
X5.7283Y-4.0354
X5.7382Y-4.5079
X5.7579Y-3.1004
X5.7776Y-4.2717
X5.8169Y-3.1988
X5.8366Y-4.0846
X5.8563Y-3.1004
X5.8858Y-3.3071
X5.8957Y-3.878
X5.9154Y-3.7008
X5.9252Y-3.4646
X5.9941Y-3.1004
X6.0236Y-4.3996
X6.0335Y-4.6161
X6.0335Y-4.8524
X6.0531Y-3.3957
X6.0531Y-3.7992
X6.0531Y-4.2717
X6.063Y-3.5433
X6.063Y-3.9862
X6.0728Y-3.7008
X6.0925Y-3.1004
X6.122Y-4.0945
X6.1319Y-3.248
X6.1811Y-3.3957
X6.1811Y-3.8681
X6.2303Y-3.1004
X6.2402Y-4.2717
X6.2717Y-3.2421
X6.2894Y-4.4587
X6.2894Y-4.6949
X6.3287Y-3.1004
X6.3386Y-4.8327
X6.3484Y-3.9764
X6.4272Y-4.1339
X6.4331Y-3.7992
X6.437Y-4.2618
X6.4665Y-3.1004
X6.4921Y-2.9567
X6.4961Y-3.1988
X6.4961Y-4.0059
X6.5157Y-3.811
X6.5256Y-3.7205
X6.5354Y-3.4843
X6.5354Y-4.5571
X6.5453Y-3.1988
X6.565Y-3.7697
X6.5669Y-3.9291
X6.5945Y-3.1988
X6.5945Y-3.3661
X6.5945Y-3.5039
X6.5984Y-2.9528
X6.6043Y-4.6555
X6.6339Y-3.0906
X6.6339Y-4.4291
X6.6437Y-3.1988
X6.6831Y-4.8622
X6.685Y-2.9646
X6.6929Y-3.1988
X6.7126Y-3.1024
X6.7224Y-4.252
X6.7421Y-3.3957
X6.7559Y-3.2913
X6.7618Y-3.9173
X6.7815Y-3.5236
X6.7953Y-2.9606
X6.7963Y-3.1447
X6.8012Y-4.1142
X6.811Y-4.6949
X6.8504Y-4.2323
X6.8602Y-4.4783
X6.8898Y-3.4449
X6.8898Y-3.6516
X6.9193Y-4.1535
X6.939Y-3.9567
X6.9587Y-3.8189
X6.9685Y-3.5531
X6.9783Y-4.4094
X6.998Y-3.7205
X7.0079Y-3.1594
X7.0079Y-3.3858
X7.0079Y-3.4941
X7.0079Y-4.2421
X7.0177Y-2.9626
X7.0276Y-4.6161
X7.0276Y-4.8031
X7.0866Y-3.5531
X7.0965Y-3.6614
X7.1063Y-3.7795
X7.1063Y-4.1535
X7.1358Y-3.5138
X7.1457Y-4.0551
X7.2047Y-4.1043
X7.2244Y-3.5433
X7.2933Y-4.0846
X7.3031Y-3.6909
X7.3031Y-3.9469
X7.3327Y-3.7402
X7.372Y-3.5925
X7.3819Y-4.0846
X7.4016Y-3.9764
X7.4213Y-3.7205
X7.4213Y-3.9075
X7.4606Y-3.5925
X7.5Y-3.7205
X7.5197Y-3.5236
X7.5197Y-4.1043
X7.5394Y-3.6713
X7.5394Y-3.937
X7.5394Y-3.9961
X7.628Y-3.8189
X7.687Y-3.7205
X7.6969Y-3.9567
X7.7264Y-3.6319
X7.7264Y-3.7992
X7.7362Y-4.0551
X7.7461Y-3.8878
T4
X5.1913Y-2.8835
X5.2913Y-2.8835
X5.3913Y-2.8835
X5.4913Y-2.8835
X5.5512Y-4.7835
X5.5913Y-2.8835
X5.6512Y-4.7835
X5.6913Y-2.8835
X5.7512Y-4.7835
X5.7913Y-2.8835
X5.8512Y-4.7835
X5.8913Y-2.8835
X5.9512Y-4.7835
X5.9913Y-2.8835
X6.0512Y-4.7835
X6.0913Y-2.8835
X6.1512Y-4.7835
X6.2512Y-2.8835
X6.2512Y-4.7835
X6.3512Y-2.8835
X6.4512Y-2.8835
X6.4512Y-4.7835
X6.5512Y-2.8835
X6.5512Y-4.7835
X6.6512Y-2.8835
X6.6512Y-4.7835
X6.7512Y-2.8835
X6.7512Y-4.7835
X6.8512Y-2.8835
X6.8512Y-4.7835
X6.9512Y-2.8835
X6.9512Y-4.7835
T5
X7.6339Y-3.5669
X7.6339Y-4.0669
T0
M30
