%TF.GenerationSoftware,KiCad,Pcbnew,(5.1.6)-1*%
%TF.CreationDate,2020-06-24T23:25:01+02:00*%
%TF.ProjectId,phtodiode_adc,7068746f-6469-46f6-9465-5f6164632e6b,rev?*%
%TF.SameCoordinates,Original*%
%TF.FileFunction,Copper,L4,Bot*%
%TF.FilePolarity,Positive*%
%FSLAX46Y46*%
G04 Gerber Fmt 4.6, Leading zero omitted, Abs format (unit mm)*
G04 Created by KiCad (PCBNEW (5.1.6)-1) date 2020-06-24 23:25:01*
%MOMM*%
%LPD*%
G01*
G04 APERTURE LIST*
%TA.AperFunction,ComponentPad*%
%ADD10O,2.400000X2.400000*%
%TD*%
%TA.AperFunction,ComponentPad*%
%ADD11C,2.400000*%
%TD*%
%TA.AperFunction,ComponentPad*%
%ADD12O,1.600000X1.600000*%
%TD*%
%TA.AperFunction,ComponentPad*%
%ADD13R,1.600000X1.600000*%
%TD*%
%TA.AperFunction,ViaPad*%
%ADD14C,0.600000*%
%TD*%
%TA.AperFunction,Conductor*%
%ADD15R,2.400000X1.650000*%
%TD*%
%TA.AperFunction,ViaPad*%
%ADD16C,0.500000*%
%TD*%
%TA.AperFunction,Conductor*%
%ADD17R,2.650000X3.650000*%
%TD*%
%TA.AperFunction,ViaPad*%
%ADD18C,0.800000*%
%TD*%
%TA.AperFunction,Conductor*%
%ADD19C,0.250000*%
%TD*%
%TA.AperFunction,Conductor*%
%ADD20C,0.500000*%
%TD*%
%TA.AperFunction,Conductor*%
%ADD21C,0.254000*%
%TD*%
G04 APERTURE END LIST*
D10*
%TO.P,D2,2*%
%TO.N,Net-(D2-Pad2)*%
X193900000Y-90600000D03*
D11*
%TO.P,D2,1*%
%TO.N,Net-(C20-Pad2)*%
X193900000Y-103300000D03*
%TD*%
D12*
%TO.P,A1,32*%
%TO.N,/SCL*%
X131860000Y-73240000D03*
%TO.P,A1,31*%
%TO.N,/SDA*%
X134400000Y-73240000D03*
D13*
%TO.P,A1,1*%
%TO.N,Net-(A1-Pad1)*%
X141000000Y-121500000D03*
D12*
%TO.P,A1,17*%
%TO.N,/0_MCU*%
X171480000Y-73240000D03*
%TO.P,A1,2*%
%TO.N,Net-(A1-Pad2)*%
X143540000Y-121500000D03*
%TO.P,A1,18*%
%TO.N,/1_MCU*%
X168940000Y-73240000D03*
%TO.P,A1,3*%
%TO.N,Net-(A1-Pad3)*%
X146080000Y-121500000D03*
%TO.P,A1,19*%
%TO.N,/2_MCU*%
X166400000Y-73240000D03*
%TO.P,A1,4*%
%TO.N,+3V3*%
X148620000Y-121500000D03*
%TO.P,A1,20*%
%TO.N,/3_MCU*%
X163860000Y-73240000D03*
%TO.P,A1,5*%
%TO.N,+5V*%
X151160000Y-121500000D03*
%TO.P,A1,21*%
%TO.N,Net-(A1-Pad21)*%
X161320000Y-73240000D03*
%TO.P,A1,6*%
%TO.N,GNDA*%
X153700000Y-121500000D03*
%TO.P,A1,22*%
%TO.N,Net-(A1-Pad22)*%
X158780000Y-73240000D03*
%TO.P,A1,7*%
%TO.N,GNDA*%
X156240000Y-121500000D03*
%TO.P,A1,23*%
%TO.N,Net-(A1-Pad23)*%
X154720000Y-73240000D03*
%TO.P,A1,8*%
%TO.N,Net-(A1-Pad8)*%
X158780000Y-121500000D03*
%TO.P,A1,24*%
%TO.N,Net-(A1-Pad24)*%
X152180000Y-73240000D03*
%TO.P,A1,9*%
%TO.N,Net-(A1-Pad9)*%
X163860000Y-121500000D03*
%TO.P,A1,25*%
%TO.N,/~CS~*%
X149640000Y-73240000D03*
%TO.P,A1,10*%
%TO.N,Net-(A1-Pad10)*%
X166400000Y-121500000D03*
%TO.P,A1,26*%
%TO.N,/MOSI*%
X147100000Y-73240000D03*
%TO.P,A1,11*%
%TO.N,Net-(A1-Pad11)*%
X168940000Y-121500000D03*
%TO.P,A1,27*%
%TO.N,/MISO*%
X144560000Y-73240000D03*
%TO.P,A1,12*%
%TO.N,Net-(A1-Pad12)*%
X171480000Y-121500000D03*
%TO.P,A1,28*%
%TO.N,/SCK*%
X142020000Y-73240000D03*
%TO.P,A1,13*%
%TO.N,Net-(A1-Pad13)*%
X174020000Y-121500000D03*
%TO.P,A1,29*%
%TO.N,GNDA*%
X139480000Y-73240000D03*
%TO.P,A1,14*%
%TO.N,Net-(A1-Pad14)*%
X176560000Y-121500000D03*
%TO.P,A1,30*%
%TO.N,Net-(A1-Pad30)*%
X136940000Y-73240000D03*
%TO.P,A1,15*%
%TO.N,/~DRDY~*%
X176560000Y-73240000D03*
%TO.P,A1,16*%
%TO.N,/RST_MCU*%
X174020000Y-73240000D03*
%TD*%
D14*
%TO.N,GNDA*%
%TO.C,U1*%
X123930000Y-108390000D03*
X125650000Y-108390000D03*
X123930000Y-107430000D03*
X125650000Y-107430000D03*
X124790000Y-107910000D03*
D15*
X124790000Y-107910000D03*
%TD*%
D16*
%TO.N,GNDA*%
%TO.C,U3*%
X164075000Y-93575000D03*
X163000000Y-93575000D03*
X161925000Y-93575000D03*
X164075000Y-92525000D03*
X163000000Y-92525000D03*
X161925000Y-92525000D03*
X164075000Y-91475000D03*
X163000000Y-91475000D03*
X161925000Y-91475000D03*
X164075000Y-90425000D03*
X163000000Y-90425000D03*
X161925000Y-90425000D03*
D17*
X163000000Y-92000000D03*
%TD*%
D18*
%TO.N,+3V3*%
X168500000Y-78500000D03*
X160750000Y-78750000D03*
X154750000Y-78750000D03*
X148750000Y-78750000D03*
X145000000Y-85250000D03*
X145000000Y-97750000D03*
X167500000Y-89000000D03*
X142750000Y-100500000D03*
X143750000Y-100500000D03*
X143750000Y-101500000D03*
X142750000Y-101500000D03*
%TO.N,/~CS~*%
X166250000Y-81250000D03*
%TO.N,/MOSI*%
X167500000Y-81250000D03*
%TO.N,/MISO*%
X170000000Y-81250000D03*
%TO.N,/SCK*%
X168750000Y-81250000D03*
%TO.N,/~DRDY~*%
X159300000Y-82350000D03*
%TO.N,+5VA*%
X135750000Y-99250000D03*
X135750000Y-98250000D03*
X134750000Y-98250000D03*
X134750000Y-99250000D03*
X155500000Y-104000000D03*
X161250000Y-101000000D03*
X154250000Y-94000000D03*
X175000000Y-92750000D03*
X171750000Y-99500000D03*
X172750000Y-104500000D03*
%TO.N,-5VA*%
X136250000Y-83250000D03*
X136250000Y-82250000D03*
X135250000Y-82250000D03*
X135250000Y-83250000D03*
X177750000Y-94500000D03*
%TO.N,/RST_ADC*%
X165750000Y-94500000D03*
X172625000Y-79875000D03*
%TO.N,Net-(C20-Pad1)*%
X165500000Y-96800000D03*
X181500000Y-103000000D03*
%TO.N,GNDA*%
X170500000Y-78800000D03*
X146250000Y-78750000D03*
X152250000Y-78750000D03*
X158250000Y-78750000D03*
X164250000Y-78750000D03*
X140250000Y-76250000D03*
X136000000Y-79000000D03*
X127750000Y-76250000D03*
X120250000Y-73000000D03*
X116500000Y-76250000D03*
X119250000Y-79750000D03*
X149500000Y-84000000D03*
X155750000Y-82500000D03*
X157000000Y-86250000D03*
X150500000Y-88000000D03*
X142500000Y-82250000D03*
X138500000Y-85250000D03*
X132000000Y-80500000D03*
X124750000Y-78750000D03*
X113000000Y-85750000D03*
X114000000Y-93750000D03*
X137750000Y-89750000D03*
X125750000Y-91500000D03*
X130500000Y-92000000D03*
X137250000Y-93750000D03*
X139000000Y-97000000D03*
X131750000Y-96750000D03*
X131250000Y-103250000D03*
X132000000Y-107250000D03*
X131750000Y-112250000D03*
X130500000Y-116500000D03*
X125250000Y-119500000D03*
X138500000Y-123000000D03*
X132250000Y-122000000D03*
X122750000Y-121750000D03*
X117000000Y-120500000D03*
X116750000Y-114750000D03*
X122250000Y-116500000D03*
X114250000Y-108500000D03*
X117750000Y-105750000D03*
X115500000Y-102000000D03*
X118750000Y-97750000D03*
X137250000Y-116500000D03*
X114500000Y-122500000D03*
X142000000Y-118250000D03*
X145750000Y-114500000D03*
X153250000Y-117250000D03*
X159750000Y-119250000D03*
X161000000Y-122750000D03*
X153250000Y-123250000D03*
X169750000Y-123500000D03*
X178500000Y-122000000D03*
X178500000Y-117250000D03*
X173000000Y-119250000D03*
X167750000Y-118250000D03*
X174250000Y-113750000D03*
X166000000Y-115750000D03*
X177250000Y-112000000D03*
X168500000Y-112500000D03*
X159750000Y-113250000D03*
X153000000Y-111750000D03*
X146750000Y-108500000D03*
X148250000Y-103750000D03*
X145500000Y-102500000D03*
X149750000Y-98500000D03*
X150250000Y-94000000D03*
X178250000Y-75250000D03*
X178000000Y-80250000D03*
X171600000Y-83600000D03*
X167500000Y-85500000D03*
X166000000Y-88500000D03*
X171250000Y-86250000D03*
X172250000Y-89500000D03*
X175000000Y-87500000D03*
X178000000Y-86000000D03*
X178000000Y-88750000D03*
X177000000Y-90250000D03*
X180000000Y-90250000D03*
X181250000Y-89250000D03*
X183500000Y-90000000D03*
X185500000Y-93750000D03*
X186250000Y-95000000D03*
X188500000Y-94500000D03*
X191500000Y-93250000D03*
X189500000Y-91250000D03*
X187250000Y-91250000D03*
X191000000Y-89500000D03*
X190500000Y-94500000D03*
X196250000Y-92250000D03*
X195250000Y-94500000D03*
X196250000Y-96500000D03*
X193750000Y-97000000D03*
X196750000Y-98750000D03*
X195500000Y-100500000D03*
X196500000Y-103000000D03*
X191000000Y-104250000D03*
X191500000Y-101500000D03*
X191500000Y-100000000D03*
X188500000Y-99250000D03*
X188000000Y-101000000D03*
X187500000Y-103750000D03*
X185250000Y-103750000D03*
X185500000Y-100250000D03*
X183000000Y-104250000D03*
X180500000Y-105500000D03*
X178000000Y-107750000D03*
X175750000Y-105500000D03*
X174000000Y-107500000D03*
X170750000Y-108000000D03*
X176750000Y-97000000D03*
X176250000Y-100500000D03*
X180500000Y-96000000D03*
X180250000Y-93000000D03*
X166800000Y-99800000D03*
X163400000Y-96500000D03*
X166750000Y-95750000D03*
X165000000Y-101750000D03*
X163250000Y-105000000D03*
X163500000Y-108250000D03*
X158500000Y-108500000D03*
X153750000Y-108500000D03*
X154000000Y-101250000D03*
X157000000Y-98250000D03*
X153750000Y-96500000D03*
X154000000Y-90000000D03*
X153750000Y-86250000D03*
X128500000Y-72000000D03*
X172600000Y-75200000D03*
X169800000Y-75300000D03*
X167600000Y-75000000D03*
X164900000Y-75100000D03*
%TO.N,/MCLK*%
X165000000Y-81250000D03*
X145000000Y-82000000D03*
X147750000Y-81250000D03*
%TD*%
D19*
%TO.N,/~CS~*%
X151150000Y-74750000D02*
X149640000Y-73240000D01*
X156340770Y-74750000D02*
X152250000Y-74750000D01*
X166250000Y-79409230D02*
X162940800Y-76100030D01*
X157690797Y-76100027D02*
X156340770Y-74750000D01*
X166250000Y-81250000D02*
X166250000Y-79409230D01*
X162940800Y-76100030D02*
X159750000Y-76100030D01*
X159750000Y-76100030D02*
X157690797Y-76100027D01*
X152250000Y-74750000D02*
X151150000Y-74750000D01*
%TO.N,/MOSI*%
X167500000Y-81250000D02*
X167500000Y-80022820D01*
X167500000Y-80022820D02*
X163127200Y-75650020D01*
X163127200Y-75650020D02*
X159599980Y-75650020D01*
X159599980Y-75650020D02*
X157877198Y-75650018D01*
X156336372Y-74109192D02*
X156336372Y-72836372D01*
X156738590Y-74511410D02*
X156599980Y-74372800D01*
X156738590Y-74511410D02*
X156336372Y-74109192D01*
X157877198Y-75650018D02*
X156738590Y-74511410D01*
X148225001Y-72114999D02*
X147100000Y-73240000D01*
X155614999Y-72114999D02*
X148225001Y-72114999D01*
X156336372Y-72836372D02*
X155614999Y-72114999D01*
%TO.N,/MISO*%
X168425011Y-79675011D02*
X167788600Y-79675010D01*
X170000000Y-81250000D02*
X168425011Y-79675011D01*
X167788600Y-79675010D02*
X163313600Y-75200010D01*
X159200010Y-75200010D02*
X158063599Y-75200009D01*
X159200010Y-75200010D02*
X159049990Y-75200010D01*
X158063599Y-75200009D02*
X157049990Y-74186400D01*
X163313600Y-75200010D02*
X159200010Y-75200010D01*
X157049990Y-74186400D02*
X156786381Y-73922791D01*
X155801399Y-71664989D02*
X146135011Y-71664989D01*
X156786382Y-72649972D02*
X155801399Y-71664989D01*
X156786381Y-73922791D02*
X156786381Y-73036381D01*
X146135011Y-71664989D02*
X144560000Y-73240000D01*
X156786381Y-73036381D02*
X156786382Y-72649972D01*
%TO.N,/SCK*%
X169475001Y-81975001D02*
X168750000Y-81250000D01*
X170348001Y-81975001D02*
X169475001Y-81975001D01*
X170348001Y-80524999D02*
X170725001Y-80901999D01*
X158750000Y-74750000D02*
X163500000Y-74750000D01*
X163500000Y-74750000D02*
X167975001Y-79225001D01*
X167975001Y-79225001D02*
X168611412Y-79225002D01*
X170725001Y-80901999D02*
X170725001Y-81598001D01*
X168611412Y-79225002D02*
X169911409Y-80524999D01*
X170725001Y-81598001D02*
X170348001Y-81975001D01*
X169911409Y-80524999D02*
X170348001Y-80524999D01*
X158750000Y-74750000D02*
X158624998Y-74750000D01*
X158624998Y-74750000D02*
X158250000Y-74750000D01*
X158250000Y-74750000D02*
X157500000Y-74000000D01*
X157500000Y-74000000D02*
X157250000Y-73750000D01*
X155987799Y-71214979D02*
X144045021Y-71214979D01*
X157250000Y-72477180D02*
X155987799Y-71214979D01*
X157250000Y-72750000D02*
X157250000Y-72477180D01*
X157250000Y-73750000D02*
X157250000Y-72750000D01*
X144045021Y-71214979D02*
X142020000Y-73240000D01*
X157250000Y-72750000D02*
X157250000Y-72500000D01*
%TO.N,/~DRDY~*%
X159550000Y-82100000D02*
X159300000Y-82350000D01*
X168863590Y-82000000D02*
X159650000Y-82000000D01*
X171250000Y-78550000D02*
X171250000Y-81709412D01*
X159650000Y-82000000D02*
X159300000Y-82350000D01*
X171250000Y-81709412D02*
X170534402Y-82425010D01*
X176560000Y-73240000D02*
X171250000Y-78550000D01*
X170534402Y-82425010D02*
X169288601Y-82425011D01*
X169288601Y-82425011D02*
X168863590Y-82000000D01*
%TO.N,+5VA*%
X171750000Y-96000000D02*
X171750000Y-99500000D01*
X175000000Y-92750000D02*
X171750000Y-96000000D01*
%TO.N,/RST_ADC*%
X165750000Y-94500000D02*
X165000000Y-93750000D01*
X165000000Y-93750000D02*
X165000000Y-83250000D01*
X165000000Y-83250000D02*
X165799990Y-82450010D01*
X170720803Y-82875019D02*
X171750000Y-81845822D01*
X169102202Y-82875020D02*
X170720803Y-82875019D01*
X165799990Y-82450010D02*
X168677190Y-82450010D01*
X168677190Y-82450010D02*
X169102202Y-82875020D01*
X171750000Y-80750000D02*
X172625000Y-79875000D01*
X171750000Y-81845822D02*
X171750000Y-80750000D01*
%TO.N,Net-(C20-Pad1)*%
X165500000Y-96750000D02*
X171750000Y-103000000D01*
X171750000Y-103000000D02*
X181500000Y-103000000D01*
D20*
%TO.N,GNDA*%
X163000000Y-92000000D02*
X160100000Y-92000000D01*
X163000000Y-92000000D02*
X163000000Y-88700000D01*
X163000000Y-92000000D02*
X163000000Y-94800000D01*
X163000000Y-92000000D02*
X163000000Y-91400000D01*
X163000000Y-91475000D02*
X160725000Y-89200000D01*
X163000000Y-92525000D02*
X160425000Y-95100000D01*
X163000000Y-91500000D02*
X164075000Y-90425000D01*
X163000000Y-92000000D02*
X163000000Y-91500000D01*
X163000000Y-91200000D02*
X164000000Y-90200000D01*
X163000000Y-92000000D02*
X163000000Y-91200000D01*
X164000000Y-90200000D02*
X164000000Y-88400000D01*
X163000000Y-92500000D02*
X164075000Y-93575000D01*
X163000000Y-92000000D02*
X163000000Y-92500000D01*
X163000000Y-92000000D02*
X163000000Y-92900000D01*
X163000000Y-92900000D02*
X164200000Y-94100000D01*
X164200000Y-94100000D02*
X164200000Y-95200000D01*
X124790000Y-107910000D02*
X124790000Y-106310000D01*
X124790000Y-106310000D02*
X124800000Y-106320000D01*
X124800000Y-106320000D02*
X124800000Y-109900000D01*
X124790000Y-107910000D02*
X122210000Y-107910000D01*
X124790000Y-107910000D02*
X127190000Y-107910000D01*
D19*
%TO.N,/MCLK*%
X165000000Y-81250000D02*
X147750000Y-81250000D01*
X145750000Y-81250000D02*
X145000000Y-82000000D01*
X147750000Y-81250000D02*
X145750000Y-81250000D01*
%TD*%
D21*
%TO.N,GNDA*%
G36*
X142343886Y-71841312D02*
G01*
X142161335Y-71805000D01*
X141878665Y-71805000D01*
X141601426Y-71860147D01*
X141340273Y-71968320D01*
X141105241Y-72125363D01*
X140905363Y-72325241D01*
X140748320Y-72560273D01*
X140743933Y-72570865D01*
X140632385Y-72384869D01*
X140443414Y-72176481D01*
X140217420Y-72008963D01*
X139963087Y-71888754D01*
X139829039Y-71848096D01*
X139607000Y-71970085D01*
X139607000Y-73113000D01*
X139627000Y-73113000D01*
X139627000Y-73367000D01*
X139607000Y-73367000D01*
X139607000Y-74509915D01*
X139829039Y-74631904D01*
X139963087Y-74591246D01*
X140217420Y-74471037D01*
X140443414Y-74303519D01*
X140632385Y-74095131D01*
X140743933Y-73909135D01*
X140748320Y-73919727D01*
X140905363Y-74154759D01*
X141105241Y-74354637D01*
X141340273Y-74511680D01*
X141601426Y-74619853D01*
X141878665Y-74675000D01*
X142161335Y-74675000D01*
X142438574Y-74619853D01*
X142699727Y-74511680D01*
X142934759Y-74354637D01*
X143134637Y-74154759D01*
X143290000Y-73922241D01*
X143445363Y-74154759D01*
X143645241Y-74354637D01*
X143880273Y-74511680D01*
X144141426Y-74619853D01*
X144418665Y-74675000D01*
X144701335Y-74675000D01*
X144978574Y-74619853D01*
X145239727Y-74511680D01*
X145474759Y-74354637D01*
X145674637Y-74154759D01*
X145830000Y-73922241D01*
X145985363Y-74154759D01*
X146185241Y-74354637D01*
X146420273Y-74511680D01*
X146681426Y-74619853D01*
X146958665Y-74675000D01*
X147241335Y-74675000D01*
X147518574Y-74619853D01*
X147779727Y-74511680D01*
X148014759Y-74354637D01*
X148214637Y-74154759D01*
X148370000Y-73922241D01*
X148525363Y-74154759D01*
X148725241Y-74354637D01*
X148960273Y-74511680D01*
X149221426Y-74619853D01*
X149498665Y-74675000D01*
X149781335Y-74675000D01*
X149963886Y-74638688D01*
X150586205Y-75261008D01*
X150609999Y-75290001D01*
X150638992Y-75313795D01*
X150638996Y-75313799D01*
X150709685Y-75371811D01*
X150725724Y-75384974D01*
X150857753Y-75455546D01*
X151001014Y-75499003D01*
X151112667Y-75510000D01*
X151112676Y-75510000D01*
X151149999Y-75513676D01*
X151187322Y-75510000D01*
X156025969Y-75510000D01*
X157127007Y-76611040D01*
X157150796Y-76640027D01*
X157179783Y-76663816D01*
X157179793Y-76663826D01*
X157266520Y-76735000D01*
X157332535Y-76770286D01*
X157398549Y-76805572D01*
X157541810Y-76849029D01*
X157690796Y-76863703D01*
X157728127Y-76860026D01*
X159712666Y-76860030D01*
X162625999Y-76860030D01*
X165490001Y-79724033D01*
X165490000Y-80332689D01*
X165301898Y-80254774D01*
X165101939Y-80215000D01*
X164898061Y-80215000D01*
X164698102Y-80254774D01*
X164509744Y-80332795D01*
X164340226Y-80446063D01*
X164296289Y-80490000D01*
X148453711Y-80490000D01*
X148409774Y-80446063D01*
X148240256Y-80332795D01*
X148051898Y-80254774D01*
X147851939Y-80215000D01*
X147648061Y-80215000D01*
X147448102Y-80254774D01*
X147259744Y-80332795D01*
X147090226Y-80446063D01*
X147046289Y-80490000D01*
X145787322Y-80490000D01*
X145749999Y-80486324D01*
X145712676Y-80490000D01*
X145712667Y-80490000D01*
X145601014Y-80500997D01*
X145457753Y-80544454D01*
X145325724Y-80615026D01*
X145209999Y-80709999D01*
X145186201Y-80738997D01*
X144960198Y-80965000D01*
X144898061Y-80965000D01*
X144698102Y-81004774D01*
X144509744Y-81082795D01*
X144340226Y-81196063D01*
X144196063Y-81340226D01*
X144082795Y-81509744D01*
X144004774Y-81698102D01*
X143965000Y-81898061D01*
X143965000Y-82101939D01*
X144004774Y-82301898D01*
X144082795Y-82490256D01*
X144196063Y-82659774D01*
X144340226Y-82803937D01*
X144509744Y-82917205D01*
X144698102Y-82995226D01*
X144898061Y-83035000D01*
X145101939Y-83035000D01*
X145301898Y-82995226D01*
X145490256Y-82917205D01*
X145659774Y-82803937D01*
X145803937Y-82659774D01*
X145917205Y-82490256D01*
X145995226Y-82301898D01*
X146035000Y-82101939D01*
X146035000Y-82039802D01*
X146064802Y-82010000D01*
X147046289Y-82010000D01*
X147090226Y-82053937D01*
X147259744Y-82167205D01*
X147448102Y-82245226D01*
X147648061Y-82285000D01*
X147851939Y-82285000D01*
X148051898Y-82245226D01*
X148240256Y-82167205D01*
X148409774Y-82053937D01*
X148453711Y-82010000D01*
X158320556Y-82010000D01*
X158304774Y-82048102D01*
X158265000Y-82248061D01*
X158265000Y-82451939D01*
X158304774Y-82651898D01*
X158382795Y-82840256D01*
X158496063Y-83009774D01*
X158640226Y-83153937D01*
X158809744Y-83267205D01*
X158998102Y-83345226D01*
X159198061Y-83385000D01*
X159401939Y-83385000D01*
X159601898Y-83345226D01*
X159790256Y-83267205D01*
X159959774Y-83153937D01*
X160103937Y-83009774D01*
X160217205Y-82840256D01*
X160250448Y-82760000D01*
X164418965Y-82760000D01*
X164365026Y-82825724D01*
X164294454Y-82957754D01*
X164271023Y-83035000D01*
X164250998Y-83101014D01*
X164245626Y-83155556D01*
X164236324Y-83250000D01*
X164240001Y-83287332D01*
X164240000Y-89537179D01*
X163285750Y-89540000D01*
X163252894Y-89572856D01*
X163127002Y-89547986D01*
X163127002Y-89540000D01*
X163086574Y-89540000D01*
X163086002Y-89539887D01*
X162999979Y-89540000D01*
X162872998Y-89540000D01*
X162872998Y-89547862D01*
X162747289Y-89573039D01*
X162714250Y-89540000D01*
X161675000Y-89536928D01*
X161550518Y-89549188D01*
X161430820Y-89585498D01*
X161320506Y-89644463D01*
X161223815Y-89723815D01*
X161144463Y-89820506D01*
X161085498Y-89930820D01*
X161049188Y-90050518D01*
X161036928Y-90175000D01*
X161040000Y-91714250D01*
X161084489Y-91758739D01*
X161140173Y-91893174D01*
X161328836Y-91897216D01*
X161353052Y-91873000D01*
X161503980Y-91873000D01*
X161502784Y-91928836D01*
X161573948Y-92000000D01*
X161502784Y-92071164D01*
X161503980Y-92127000D01*
X161353052Y-92127000D01*
X161328836Y-92102784D01*
X161140173Y-92106826D01*
X161084841Y-92240909D01*
X161040000Y-92285750D01*
X161036928Y-93825000D01*
X161049188Y-93949482D01*
X161085498Y-94069180D01*
X161144463Y-94179494D01*
X161223815Y-94276185D01*
X161320506Y-94355537D01*
X161430820Y-94414502D01*
X161550518Y-94450812D01*
X161675000Y-94463072D01*
X162714250Y-94460000D01*
X162747106Y-94427144D01*
X162872998Y-94452014D01*
X162872998Y-94460000D01*
X162913426Y-94460000D01*
X162913998Y-94460113D01*
X163000021Y-94460000D01*
X163127002Y-94460000D01*
X163127002Y-94452138D01*
X163252711Y-94426961D01*
X163285750Y-94460000D01*
X164325000Y-94463072D01*
X164449482Y-94450812D01*
X164569180Y-94414502D01*
X164582553Y-94407354D01*
X164715000Y-94539801D01*
X164715000Y-94601939D01*
X164754774Y-94801898D01*
X164832795Y-94990256D01*
X164946063Y-95159774D01*
X165090226Y-95303937D01*
X165259744Y-95417205D01*
X165448102Y-95495226D01*
X165648061Y-95535000D01*
X165851939Y-95535000D01*
X166051898Y-95495226D01*
X166240256Y-95417205D01*
X166409774Y-95303937D01*
X166553937Y-95159774D01*
X166667205Y-94990256D01*
X166745226Y-94801898D01*
X166785000Y-94601939D01*
X166785000Y-94398061D01*
X166745226Y-94198102D01*
X166667205Y-94009744D01*
X166553937Y-93840226D01*
X166409774Y-93696063D01*
X166240256Y-93582795D01*
X166051898Y-93504774D01*
X165851939Y-93465000D01*
X165789801Y-93465000D01*
X165760000Y-93435199D01*
X165760000Y-90419268D01*
X192065000Y-90419268D01*
X192065000Y-90780732D01*
X192135518Y-91135250D01*
X192273844Y-91469199D01*
X192474662Y-91769744D01*
X192730256Y-92025338D01*
X193030801Y-92226156D01*
X193364750Y-92364482D01*
X193719268Y-92435000D01*
X194080732Y-92435000D01*
X194435250Y-92364482D01*
X194769199Y-92226156D01*
X195069744Y-92025338D01*
X195325338Y-91769744D01*
X195526156Y-91469199D01*
X195664482Y-91135250D01*
X195735000Y-90780732D01*
X195735000Y-90419268D01*
X195664482Y-90064750D01*
X195526156Y-89730801D01*
X195325338Y-89430256D01*
X195069744Y-89174662D01*
X194769199Y-88973844D01*
X194435250Y-88835518D01*
X194080732Y-88765000D01*
X193719268Y-88765000D01*
X193364750Y-88835518D01*
X193030801Y-88973844D01*
X192730256Y-89174662D01*
X192474662Y-89430256D01*
X192273844Y-89730801D01*
X192135518Y-90064750D01*
X192065000Y-90419268D01*
X165760000Y-90419268D01*
X165760000Y-88898061D01*
X166465000Y-88898061D01*
X166465000Y-89101939D01*
X166504774Y-89301898D01*
X166582795Y-89490256D01*
X166696063Y-89659774D01*
X166840226Y-89803937D01*
X167009744Y-89917205D01*
X167198102Y-89995226D01*
X167398061Y-90035000D01*
X167601939Y-90035000D01*
X167801898Y-89995226D01*
X167990256Y-89917205D01*
X168159774Y-89803937D01*
X168303937Y-89659774D01*
X168417205Y-89490256D01*
X168495226Y-89301898D01*
X168535000Y-89101939D01*
X168535000Y-88898061D01*
X168495226Y-88698102D01*
X168417205Y-88509744D01*
X168303937Y-88340226D01*
X168159774Y-88196063D01*
X167990256Y-88082795D01*
X167801898Y-88004774D01*
X167601939Y-87965000D01*
X167398061Y-87965000D01*
X167198102Y-88004774D01*
X167009744Y-88082795D01*
X166840226Y-88196063D01*
X166696063Y-88340226D01*
X166582795Y-88509744D01*
X166504774Y-88698102D01*
X166465000Y-88898061D01*
X165760000Y-88898061D01*
X165760000Y-83564801D01*
X166114792Y-83210010D01*
X168362390Y-83210010D01*
X168538405Y-83386025D01*
X168562202Y-83415021D01*
X168677927Y-83509994D01*
X168809956Y-83580566D01*
X168953217Y-83624023D01*
X169064870Y-83635020D01*
X169064880Y-83635020D01*
X169102203Y-83638696D01*
X169139527Y-83635020D01*
X170683471Y-83635018D01*
X170720803Y-83638695D01*
X170758136Y-83635018D01*
X170869789Y-83624021D01*
X170913245Y-83610839D01*
X171013049Y-83580565D01*
X171145079Y-83509993D01*
X171231805Y-83438818D01*
X171231806Y-83438817D01*
X171260804Y-83415019D01*
X171284602Y-83386021D01*
X172261004Y-82409620D01*
X172290001Y-82385823D01*
X172384974Y-82270098D01*
X172455546Y-82138069D01*
X172499003Y-81994808D01*
X172510000Y-81883155D01*
X172510000Y-81883146D01*
X172513676Y-81845823D01*
X172510000Y-81808500D01*
X172510000Y-81064801D01*
X172664801Y-80910000D01*
X172726939Y-80910000D01*
X172926898Y-80870226D01*
X173115256Y-80792205D01*
X173284774Y-80678937D01*
X173428937Y-80534774D01*
X173542205Y-80365256D01*
X173620226Y-80176898D01*
X173660000Y-79976939D01*
X173660000Y-79773061D01*
X173620226Y-79573102D01*
X173542205Y-79384744D01*
X173428937Y-79215226D01*
X173284774Y-79071063D01*
X173115256Y-78957795D01*
X172926898Y-78879774D01*
X172726939Y-78840000D01*
X172523061Y-78840000D01*
X172323102Y-78879774D01*
X172134744Y-78957795D01*
X172010000Y-79041146D01*
X172010000Y-78864801D01*
X176236114Y-74638688D01*
X176418665Y-74675000D01*
X176701335Y-74675000D01*
X176978574Y-74619853D01*
X177239727Y-74511680D01*
X177474759Y-74354637D01*
X177674637Y-74154759D01*
X177831680Y-73919727D01*
X177939853Y-73658574D01*
X177995000Y-73381335D01*
X177995000Y-73098665D01*
X177939853Y-72821426D01*
X177831680Y-72560273D01*
X177674637Y-72325241D01*
X177474759Y-72125363D01*
X177239727Y-71968320D01*
X176978574Y-71860147D01*
X176701335Y-71805000D01*
X176418665Y-71805000D01*
X176141426Y-71860147D01*
X175880273Y-71968320D01*
X175645241Y-72125363D01*
X175445363Y-72325241D01*
X175290000Y-72557759D01*
X175134637Y-72325241D01*
X174934759Y-72125363D01*
X174699727Y-71968320D01*
X174438574Y-71860147D01*
X174161335Y-71805000D01*
X173878665Y-71805000D01*
X173601426Y-71860147D01*
X173340273Y-71968320D01*
X173105241Y-72125363D01*
X172905363Y-72325241D01*
X172750000Y-72557759D01*
X172594637Y-72325241D01*
X172394759Y-72125363D01*
X172159727Y-71968320D01*
X171898574Y-71860147D01*
X171621335Y-71805000D01*
X171338665Y-71805000D01*
X171061426Y-71860147D01*
X170800273Y-71968320D01*
X170565241Y-72125363D01*
X170365363Y-72325241D01*
X170210000Y-72557759D01*
X170054637Y-72325241D01*
X169854759Y-72125363D01*
X169619727Y-71968320D01*
X169358574Y-71860147D01*
X169081335Y-71805000D01*
X168798665Y-71805000D01*
X168521426Y-71860147D01*
X168260273Y-71968320D01*
X168025241Y-72125363D01*
X167825363Y-72325241D01*
X167670000Y-72557759D01*
X167514637Y-72325241D01*
X167314759Y-72125363D01*
X167079727Y-71968320D01*
X166818574Y-71860147D01*
X166541335Y-71805000D01*
X166258665Y-71805000D01*
X165981426Y-71860147D01*
X165720273Y-71968320D01*
X165485241Y-72125363D01*
X165285363Y-72325241D01*
X165130000Y-72557759D01*
X164974637Y-72325241D01*
X164774759Y-72125363D01*
X164539727Y-71968320D01*
X164278574Y-71860147D01*
X164001335Y-71805000D01*
X163718665Y-71805000D01*
X163441426Y-71860147D01*
X163180273Y-71968320D01*
X162945241Y-72125363D01*
X162745363Y-72325241D01*
X162590000Y-72557759D01*
X162434637Y-72325241D01*
X162234759Y-72125363D01*
X161999727Y-71968320D01*
X161738574Y-71860147D01*
X161461335Y-71805000D01*
X161178665Y-71805000D01*
X160901426Y-71860147D01*
X160640273Y-71968320D01*
X160405241Y-72125363D01*
X160205363Y-72325241D01*
X160050000Y-72557759D01*
X159894637Y-72325241D01*
X159694759Y-72125363D01*
X159459727Y-71968320D01*
X159198574Y-71860147D01*
X158921335Y-71805000D01*
X158638665Y-71805000D01*
X158361426Y-71860147D01*
X158100273Y-71968320D01*
X157908319Y-72096579D01*
X157884974Y-72052904D01*
X157813799Y-71966177D01*
X157790001Y-71937179D01*
X157761003Y-71913381D01*
X157007621Y-71160000D01*
X177726620Y-71160000D01*
X179340001Y-72773382D01*
X179340000Y-83873000D01*
X168000000Y-83873000D01*
X167975224Y-83875440D01*
X167951399Y-83882667D01*
X167929443Y-83894403D01*
X167910197Y-83910197D01*
X167894403Y-83929443D01*
X167882667Y-83951399D01*
X167875440Y-83975224D01*
X167873000Y-84000000D01*
X167873000Y-85000000D01*
X167875440Y-85024776D01*
X167882667Y-85048601D01*
X167894403Y-85070557D01*
X167910197Y-85089803D01*
X167929443Y-85105597D01*
X167951399Y-85117333D01*
X167975224Y-85124560D01*
X168000000Y-85127000D01*
X179340000Y-85127000D01*
X179340000Y-85967591D01*
X179336808Y-86000000D01*
X179340000Y-86032409D01*
X179340000Y-86032418D01*
X179349550Y-86129382D01*
X179387290Y-86253792D01*
X179448575Y-86368450D01*
X179496689Y-86427076D01*
X179531052Y-86468948D01*
X179556236Y-86489616D01*
X181510388Y-88443769D01*
X181531052Y-88468948D01*
X181556231Y-88489612D01*
X181556233Y-88489614D01*
X181631549Y-88551425D01*
X181746207Y-88612710D01*
X181870617Y-88650450D01*
X181967581Y-88660000D01*
X181967590Y-88660000D01*
X181999999Y-88663192D01*
X182032408Y-88660000D01*
X195726620Y-88660000D01*
X197340001Y-90273382D01*
X197340000Y-103726619D01*
X195726620Y-105340000D01*
X182032408Y-105340000D01*
X181999999Y-105336808D01*
X181967590Y-105340000D01*
X181967581Y-105340000D01*
X181870617Y-105349550D01*
X181746207Y-105387290D01*
X181631549Y-105448575D01*
X181556233Y-105510386D01*
X181531052Y-105531052D01*
X181510388Y-105556231D01*
X179556232Y-107510388D01*
X179531053Y-107531052D01*
X179510389Y-107556231D01*
X179510386Y-107556234D01*
X179448575Y-107631550D01*
X179387290Y-107746208D01*
X179349551Y-107870618D01*
X179336808Y-108000000D01*
X179340001Y-108032419D01*
X179340001Y-108873000D01*
X153127000Y-108873000D01*
X153127000Y-103898061D01*
X154465000Y-103898061D01*
X154465000Y-104101939D01*
X154504774Y-104301898D01*
X154582795Y-104490256D01*
X154696063Y-104659774D01*
X154840226Y-104803937D01*
X155009744Y-104917205D01*
X155198102Y-104995226D01*
X155398061Y-105035000D01*
X155601939Y-105035000D01*
X155801898Y-104995226D01*
X155990256Y-104917205D01*
X156159774Y-104803937D01*
X156303937Y-104659774D01*
X156417205Y-104490256D01*
X156495226Y-104301898D01*
X156535000Y-104101939D01*
X156535000Y-103898061D01*
X156495226Y-103698102D01*
X156417205Y-103509744D01*
X156303937Y-103340226D01*
X156159774Y-103196063D01*
X155990256Y-103082795D01*
X155801898Y-103004774D01*
X155601939Y-102965000D01*
X155398061Y-102965000D01*
X155198102Y-103004774D01*
X155009744Y-103082795D01*
X154840226Y-103196063D01*
X154696063Y-103340226D01*
X154582795Y-103509744D01*
X154504774Y-103698102D01*
X154465000Y-103898061D01*
X153127000Y-103898061D01*
X153127000Y-100898061D01*
X160215000Y-100898061D01*
X160215000Y-101101939D01*
X160254774Y-101301898D01*
X160332795Y-101490256D01*
X160446063Y-101659774D01*
X160590226Y-101803937D01*
X160759744Y-101917205D01*
X160948102Y-101995226D01*
X161148061Y-102035000D01*
X161351939Y-102035000D01*
X161551898Y-101995226D01*
X161740256Y-101917205D01*
X161909774Y-101803937D01*
X162053937Y-101659774D01*
X162167205Y-101490256D01*
X162245226Y-101301898D01*
X162285000Y-101101939D01*
X162285000Y-100898061D01*
X162245226Y-100698102D01*
X162167205Y-100509744D01*
X162053937Y-100340226D01*
X161909774Y-100196063D01*
X161740256Y-100082795D01*
X161551898Y-100004774D01*
X161351939Y-99965000D01*
X161148061Y-99965000D01*
X160948102Y-100004774D01*
X160759744Y-100082795D01*
X160590226Y-100196063D01*
X160446063Y-100340226D01*
X160332795Y-100509744D01*
X160254774Y-100698102D01*
X160215000Y-100898061D01*
X153127000Y-100898061D01*
X153127000Y-96698061D01*
X164465000Y-96698061D01*
X164465000Y-96901939D01*
X164504774Y-97101898D01*
X164582795Y-97290256D01*
X164696063Y-97459774D01*
X164840226Y-97603937D01*
X165009744Y-97717205D01*
X165198102Y-97795226D01*
X165398061Y-97835000D01*
X165510199Y-97835000D01*
X171186201Y-103511003D01*
X171209999Y-103540001D01*
X171325724Y-103634974D01*
X171457753Y-103705546D01*
X171601014Y-103749003D01*
X171712667Y-103760000D01*
X171712675Y-103760000D01*
X171750000Y-103763676D01*
X171787325Y-103760000D01*
X172026289Y-103760000D01*
X171946063Y-103840226D01*
X171832795Y-104009744D01*
X171754774Y-104198102D01*
X171715000Y-104398061D01*
X171715000Y-104601939D01*
X171754774Y-104801898D01*
X171832795Y-104990256D01*
X171946063Y-105159774D01*
X172090226Y-105303937D01*
X172259744Y-105417205D01*
X172448102Y-105495226D01*
X172648061Y-105535000D01*
X172851939Y-105535000D01*
X173051898Y-105495226D01*
X173240256Y-105417205D01*
X173409774Y-105303937D01*
X173553937Y-105159774D01*
X173667205Y-104990256D01*
X173745226Y-104801898D01*
X173785000Y-104601939D01*
X173785000Y-104398061D01*
X173745226Y-104198102D01*
X173667205Y-104009744D01*
X173553937Y-103840226D01*
X173473711Y-103760000D01*
X180796289Y-103760000D01*
X180840226Y-103803937D01*
X181009744Y-103917205D01*
X181198102Y-103995226D01*
X181398061Y-104035000D01*
X181601939Y-104035000D01*
X181801898Y-103995226D01*
X181990256Y-103917205D01*
X182159774Y-103803937D01*
X182303937Y-103659774D01*
X182417205Y-103490256D01*
X182495226Y-103301898D01*
X182531553Y-103119268D01*
X192065000Y-103119268D01*
X192065000Y-103480732D01*
X192135518Y-103835250D01*
X192273844Y-104169199D01*
X192474662Y-104469744D01*
X192730256Y-104725338D01*
X193030801Y-104926156D01*
X193364750Y-105064482D01*
X193719268Y-105135000D01*
X194080732Y-105135000D01*
X194435250Y-105064482D01*
X194769199Y-104926156D01*
X195069744Y-104725338D01*
X195325338Y-104469744D01*
X195526156Y-104169199D01*
X195664482Y-103835250D01*
X195735000Y-103480732D01*
X195735000Y-103119268D01*
X195664482Y-102764750D01*
X195526156Y-102430801D01*
X195325338Y-102130256D01*
X195069744Y-101874662D01*
X194769199Y-101673844D01*
X194435250Y-101535518D01*
X194080732Y-101465000D01*
X193719268Y-101465000D01*
X193364750Y-101535518D01*
X193030801Y-101673844D01*
X192730256Y-101874662D01*
X192474662Y-102130256D01*
X192273844Y-102430801D01*
X192135518Y-102764750D01*
X192065000Y-103119268D01*
X182531553Y-103119268D01*
X182535000Y-103101939D01*
X182535000Y-102898061D01*
X182495226Y-102698102D01*
X182417205Y-102509744D01*
X182303937Y-102340226D01*
X182159774Y-102196063D01*
X181990256Y-102082795D01*
X181801898Y-102004774D01*
X181601939Y-101965000D01*
X181398061Y-101965000D01*
X181198102Y-102004774D01*
X181009744Y-102082795D01*
X180840226Y-102196063D01*
X180796289Y-102240000D01*
X172064802Y-102240000D01*
X169222863Y-99398061D01*
X170715000Y-99398061D01*
X170715000Y-99601939D01*
X170754774Y-99801898D01*
X170832795Y-99990256D01*
X170946063Y-100159774D01*
X171090226Y-100303937D01*
X171259744Y-100417205D01*
X171448102Y-100495226D01*
X171648061Y-100535000D01*
X171851939Y-100535000D01*
X172051898Y-100495226D01*
X172240256Y-100417205D01*
X172409774Y-100303937D01*
X172553937Y-100159774D01*
X172667205Y-99990256D01*
X172745226Y-99801898D01*
X172785000Y-99601939D01*
X172785000Y-99398061D01*
X172745226Y-99198102D01*
X172667205Y-99009744D01*
X172553937Y-98840226D01*
X172510000Y-98796289D01*
X172510000Y-96314801D01*
X174426740Y-94398061D01*
X176715000Y-94398061D01*
X176715000Y-94601939D01*
X176754774Y-94801898D01*
X176832795Y-94990256D01*
X176946063Y-95159774D01*
X177090226Y-95303937D01*
X177259744Y-95417205D01*
X177448102Y-95495226D01*
X177648061Y-95535000D01*
X177851939Y-95535000D01*
X178051898Y-95495226D01*
X178240256Y-95417205D01*
X178409774Y-95303937D01*
X178553937Y-95159774D01*
X178667205Y-94990256D01*
X178745226Y-94801898D01*
X178785000Y-94601939D01*
X178785000Y-94398061D01*
X178745226Y-94198102D01*
X178667205Y-94009744D01*
X178553937Y-93840226D01*
X178409774Y-93696063D01*
X178240256Y-93582795D01*
X178051898Y-93504774D01*
X177851939Y-93465000D01*
X177648061Y-93465000D01*
X177448102Y-93504774D01*
X177259744Y-93582795D01*
X177090226Y-93696063D01*
X176946063Y-93840226D01*
X176832795Y-94009744D01*
X176754774Y-94198102D01*
X176715000Y-94398061D01*
X174426740Y-94398061D01*
X175039802Y-93785000D01*
X175101939Y-93785000D01*
X175301898Y-93745226D01*
X175490256Y-93667205D01*
X175659774Y-93553937D01*
X175803937Y-93409774D01*
X175917205Y-93240256D01*
X175995226Y-93051898D01*
X176035000Y-92851939D01*
X176035000Y-92648061D01*
X175995226Y-92448102D01*
X175917205Y-92259744D01*
X175803937Y-92090226D01*
X175659774Y-91946063D01*
X175490256Y-91832795D01*
X175301898Y-91754774D01*
X175101939Y-91715000D01*
X174898061Y-91715000D01*
X174698102Y-91754774D01*
X174509744Y-91832795D01*
X174340226Y-91946063D01*
X174196063Y-92090226D01*
X174082795Y-92259744D01*
X174004774Y-92448102D01*
X173965000Y-92648061D01*
X173965000Y-92710198D01*
X171239003Y-95436196D01*
X171209999Y-95459999D01*
X171154871Y-95527174D01*
X171115026Y-95575724D01*
X171044455Y-95707753D01*
X171044454Y-95707754D01*
X171000997Y-95851015D01*
X170990000Y-95962668D01*
X170990000Y-95962678D01*
X170986324Y-96000000D01*
X170990000Y-96037323D01*
X170990001Y-98796288D01*
X170946063Y-98840226D01*
X170832795Y-99009744D01*
X170754774Y-99198102D01*
X170715000Y-99398061D01*
X169222863Y-99398061D01*
X166535000Y-96710199D01*
X166535000Y-96698061D01*
X166495226Y-96498102D01*
X166417205Y-96309744D01*
X166303937Y-96140226D01*
X166159774Y-95996063D01*
X165990256Y-95882795D01*
X165801898Y-95804774D01*
X165601939Y-95765000D01*
X165398061Y-95765000D01*
X165198102Y-95804774D01*
X165009744Y-95882795D01*
X164840226Y-95996063D01*
X164696063Y-96140226D01*
X164582795Y-96309744D01*
X164504774Y-96498102D01*
X164465000Y-96698061D01*
X153127000Y-96698061D01*
X153127000Y-93898061D01*
X153215000Y-93898061D01*
X153215000Y-94101939D01*
X153254774Y-94301898D01*
X153332795Y-94490256D01*
X153446063Y-94659774D01*
X153590226Y-94803937D01*
X153759744Y-94917205D01*
X153948102Y-94995226D01*
X154148061Y-95035000D01*
X154351939Y-95035000D01*
X154551898Y-94995226D01*
X154740256Y-94917205D01*
X154909774Y-94803937D01*
X155053937Y-94659774D01*
X155167205Y-94490256D01*
X155245226Y-94301898D01*
X155285000Y-94101939D01*
X155285000Y-93898061D01*
X155245226Y-93698102D01*
X155167205Y-93509744D01*
X155053937Y-93340226D01*
X154909774Y-93196063D01*
X154740256Y-93082795D01*
X154551898Y-93004774D01*
X154351939Y-92965000D01*
X154148061Y-92965000D01*
X153948102Y-93004774D01*
X153759744Y-93082795D01*
X153590226Y-93196063D01*
X153446063Y-93340226D01*
X153332795Y-93509744D01*
X153254774Y-93698102D01*
X153215000Y-93898061D01*
X153127000Y-93898061D01*
X153127000Y-85127000D01*
X158000000Y-85127000D01*
X158024776Y-85124560D01*
X158048601Y-85117333D01*
X158070557Y-85105597D01*
X158089803Y-85089803D01*
X158105597Y-85070557D01*
X158117333Y-85048601D01*
X158124560Y-85024776D01*
X158127000Y-85000000D01*
X158127000Y-84000000D01*
X158124560Y-83975224D01*
X158117333Y-83951399D01*
X158105597Y-83929443D01*
X158089803Y-83910197D01*
X158070557Y-83894403D01*
X158048601Y-83882667D01*
X158024776Y-83875440D01*
X158000000Y-83873000D01*
X152000000Y-83873000D01*
X151975224Y-83875440D01*
X151951399Y-83882667D01*
X151929443Y-83894403D01*
X151910197Y-83910197D01*
X151894403Y-83929443D01*
X151882667Y-83951399D01*
X151875440Y-83975224D01*
X151873000Y-84000000D01*
X151873000Y-110000000D01*
X151875440Y-110024776D01*
X151882667Y-110048601D01*
X151894403Y-110070557D01*
X151910197Y-110089803D01*
X151929443Y-110105597D01*
X151951399Y-110117333D01*
X151975224Y-110124560D01*
X152000000Y-110127000D01*
X179340001Y-110127000D01*
X179340000Y-122226619D01*
X177726620Y-123840000D01*
X114273381Y-123840000D01*
X112660000Y-122226620D01*
X112660000Y-120700000D01*
X139561928Y-120700000D01*
X139561928Y-122300000D01*
X139574188Y-122424482D01*
X139610498Y-122544180D01*
X139669463Y-122654494D01*
X139748815Y-122751185D01*
X139845506Y-122830537D01*
X139955820Y-122889502D01*
X140075518Y-122925812D01*
X140200000Y-122938072D01*
X141800000Y-122938072D01*
X141924482Y-122925812D01*
X142044180Y-122889502D01*
X142154494Y-122830537D01*
X142251185Y-122751185D01*
X142330537Y-122654494D01*
X142389502Y-122544180D01*
X142425812Y-122424482D01*
X142426643Y-122416039D01*
X142625241Y-122614637D01*
X142860273Y-122771680D01*
X143121426Y-122879853D01*
X143398665Y-122935000D01*
X143681335Y-122935000D01*
X143958574Y-122879853D01*
X144219727Y-122771680D01*
X144454759Y-122614637D01*
X144654637Y-122414759D01*
X144810000Y-122182241D01*
X144965363Y-122414759D01*
X145165241Y-122614637D01*
X145400273Y-122771680D01*
X145661426Y-122879853D01*
X145938665Y-122935000D01*
X146221335Y-122935000D01*
X146498574Y-122879853D01*
X146759727Y-122771680D01*
X146994759Y-122614637D01*
X147194637Y-122414759D01*
X147350000Y-122182241D01*
X147505363Y-122414759D01*
X147705241Y-122614637D01*
X147940273Y-122771680D01*
X148201426Y-122879853D01*
X148478665Y-122935000D01*
X148761335Y-122935000D01*
X149038574Y-122879853D01*
X149299727Y-122771680D01*
X149534759Y-122614637D01*
X149734637Y-122414759D01*
X149890000Y-122182241D01*
X150045363Y-122414759D01*
X150245241Y-122614637D01*
X150480273Y-122771680D01*
X150741426Y-122879853D01*
X151018665Y-122935000D01*
X151301335Y-122935000D01*
X151578574Y-122879853D01*
X151839727Y-122771680D01*
X152074759Y-122614637D01*
X152274637Y-122414759D01*
X152431680Y-122179727D01*
X152436067Y-122169135D01*
X152547615Y-122355131D01*
X152736586Y-122563519D01*
X152962580Y-122731037D01*
X153216913Y-122851246D01*
X153350961Y-122891904D01*
X153573000Y-122769915D01*
X153573000Y-121627000D01*
X153827000Y-121627000D01*
X153827000Y-122769915D01*
X154049039Y-122891904D01*
X154183087Y-122851246D01*
X154437420Y-122731037D01*
X154663414Y-122563519D01*
X154852385Y-122355131D01*
X154970000Y-122159018D01*
X155087615Y-122355131D01*
X155276586Y-122563519D01*
X155502580Y-122731037D01*
X155756913Y-122851246D01*
X155890961Y-122891904D01*
X156113000Y-122769915D01*
X156113000Y-121627000D01*
X153827000Y-121627000D01*
X153573000Y-121627000D01*
X153553000Y-121627000D01*
X153553000Y-121373000D01*
X153573000Y-121373000D01*
X153573000Y-120230085D01*
X153827000Y-120230085D01*
X153827000Y-121373000D01*
X156113000Y-121373000D01*
X156113000Y-120230085D01*
X156367000Y-120230085D01*
X156367000Y-121373000D01*
X156387000Y-121373000D01*
X156387000Y-121627000D01*
X156367000Y-121627000D01*
X156367000Y-122769915D01*
X156589039Y-122891904D01*
X156723087Y-122851246D01*
X156977420Y-122731037D01*
X157203414Y-122563519D01*
X157392385Y-122355131D01*
X157503933Y-122169135D01*
X157508320Y-122179727D01*
X157665363Y-122414759D01*
X157865241Y-122614637D01*
X158100273Y-122771680D01*
X158361426Y-122879853D01*
X158638665Y-122935000D01*
X158921335Y-122935000D01*
X159198574Y-122879853D01*
X159459727Y-122771680D01*
X159694759Y-122614637D01*
X159894637Y-122414759D01*
X160051680Y-122179727D01*
X160159853Y-121918574D01*
X160215000Y-121641335D01*
X160215000Y-121358665D01*
X162425000Y-121358665D01*
X162425000Y-121641335D01*
X162480147Y-121918574D01*
X162588320Y-122179727D01*
X162745363Y-122414759D01*
X162945241Y-122614637D01*
X163180273Y-122771680D01*
X163441426Y-122879853D01*
X163718665Y-122935000D01*
X164001335Y-122935000D01*
X164278574Y-122879853D01*
X164539727Y-122771680D01*
X164774759Y-122614637D01*
X164974637Y-122414759D01*
X165130000Y-122182241D01*
X165285363Y-122414759D01*
X165485241Y-122614637D01*
X165720273Y-122771680D01*
X165981426Y-122879853D01*
X166258665Y-122935000D01*
X166541335Y-122935000D01*
X166818574Y-122879853D01*
X167079727Y-122771680D01*
X167314759Y-122614637D01*
X167514637Y-122414759D01*
X167670000Y-122182241D01*
X167825363Y-122414759D01*
X168025241Y-122614637D01*
X168260273Y-122771680D01*
X168521426Y-122879853D01*
X168798665Y-122935000D01*
X169081335Y-122935000D01*
X169358574Y-122879853D01*
X169619727Y-122771680D01*
X169854759Y-122614637D01*
X170054637Y-122414759D01*
X170210000Y-122182241D01*
X170365363Y-122414759D01*
X170565241Y-122614637D01*
X170800273Y-122771680D01*
X171061426Y-122879853D01*
X171338665Y-122935000D01*
X171621335Y-122935000D01*
X171898574Y-122879853D01*
X172159727Y-122771680D01*
X172394759Y-122614637D01*
X172594637Y-122414759D01*
X172750000Y-122182241D01*
X172905363Y-122414759D01*
X173105241Y-122614637D01*
X173340273Y-122771680D01*
X173601426Y-122879853D01*
X173878665Y-122935000D01*
X174161335Y-122935000D01*
X174438574Y-122879853D01*
X174699727Y-122771680D01*
X174934759Y-122614637D01*
X175134637Y-122414759D01*
X175290000Y-122182241D01*
X175445363Y-122414759D01*
X175645241Y-122614637D01*
X175880273Y-122771680D01*
X176141426Y-122879853D01*
X176418665Y-122935000D01*
X176701335Y-122935000D01*
X176978574Y-122879853D01*
X177239727Y-122771680D01*
X177474759Y-122614637D01*
X177674637Y-122414759D01*
X177831680Y-122179727D01*
X177939853Y-121918574D01*
X177995000Y-121641335D01*
X177995000Y-121358665D01*
X177939853Y-121081426D01*
X177831680Y-120820273D01*
X177674637Y-120585241D01*
X177474759Y-120385363D01*
X177239727Y-120228320D01*
X176978574Y-120120147D01*
X176701335Y-120065000D01*
X176418665Y-120065000D01*
X176141426Y-120120147D01*
X175880273Y-120228320D01*
X175645241Y-120385363D01*
X175445363Y-120585241D01*
X175290000Y-120817759D01*
X175134637Y-120585241D01*
X174934759Y-120385363D01*
X174699727Y-120228320D01*
X174438574Y-120120147D01*
X174161335Y-120065000D01*
X173878665Y-120065000D01*
X173601426Y-120120147D01*
X173340273Y-120228320D01*
X173105241Y-120385363D01*
X172905363Y-120585241D01*
X172750000Y-120817759D01*
X172594637Y-120585241D01*
X172394759Y-120385363D01*
X172159727Y-120228320D01*
X171898574Y-120120147D01*
X171621335Y-120065000D01*
X171338665Y-120065000D01*
X171061426Y-120120147D01*
X170800273Y-120228320D01*
X170565241Y-120385363D01*
X170365363Y-120585241D01*
X170210000Y-120817759D01*
X170054637Y-120585241D01*
X169854759Y-120385363D01*
X169619727Y-120228320D01*
X169358574Y-120120147D01*
X169081335Y-120065000D01*
X168798665Y-120065000D01*
X168521426Y-120120147D01*
X168260273Y-120228320D01*
X168025241Y-120385363D01*
X167825363Y-120585241D01*
X167670000Y-120817759D01*
X167514637Y-120585241D01*
X167314759Y-120385363D01*
X167079727Y-120228320D01*
X166818574Y-120120147D01*
X166541335Y-120065000D01*
X166258665Y-120065000D01*
X165981426Y-120120147D01*
X165720273Y-120228320D01*
X165485241Y-120385363D01*
X165285363Y-120585241D01*
X165130000Y-120817759D01*
X164974637Y-120585241D01*
X164774759Y-120385363D01*
X164539727Y-120228320D01*
X164278574Y-120120147D01*
X164001335Y-120065000D01*
X163718665Y-120065000D01*
X163441426Y-120120147D01*
X163180273Y-120228320D01*
X162945241Y-120385363D01*
X162745363Y-120585241D01*
X162588320Y-120820273D01*
X162480147Y-121081426D01*
X162425000Y-121358665D01*
X160215000Y-121358665D01*
X160159853Y-121081426D01*
X160051680Y-120820273D01*
X159894637Y-120585241D01*
X159694759Y-120385363D01*
X159459727Y-120228320D01*
X159198574Y-120120147D01*
X158921335Y-120065000D01*
X158638665Y-120065000D01*
X158361426Y-120120147D01*
X158100273Y-120228320D01*
X157865241Y-120385363D01*
X157665363Y-120585241D01*
X157508320Y-120820273D01*
X157503933Y-120830865D01*
X157392385Y-120644869D01*
X157203414Y-120436481D01*
X156977420Y-120268963D01*
X156723087Y-120148754D01*
X156589039Y-120108096D01*
X156367000Y-120230085D01*
X156113000Y-120230085D01*
X155890961Y-120108096D01*
X155756913Y-120148754D01*
X155502580Y-120268963D01*
X155276586Y-120436481D01*
X155087615Y-120644869D01*
X154970000Y-120840982D01*
X154852385Y-120644869D01*
X154663414Y-120436481D01*
X154437420Y-120268963D01*
X154183087Y-120148754D01*
X154049039Y-120108096D01*
X153827000Y-120230085D01*
X153573000Y-120230085D01*
X153350961Y-120108096D01*
X153216913Y-120148754D01*
X152962580Y-120268963D01*
X152736586Y-120436481D01*
X152547615Y-120644869D01*
X152436067Y-120830865D01*
X152431680Y-120820273D01*
X152274637Y-120585241D01*
X152074759Y-120385363D01*
X151839727Y-120228320D01*
X151578574Y-120120147D01*
X151301335Y-120065000D01*
X151018665Y-120065000D01*
X150741426Y-120120147D01*
X150480273Y-120228320D01*
X150245241Y-120385363D01*
X150045363Y-120585241D01*
X149890000Y-120817759D01*
X149734637Y-120585241D01*
X149534759Y-120385363D01*
X149299727Y-120228320D01*
X149038574Y-120120147D01*
X148761335Y-120065000D01*
X148478665Y-120065000D01*
X148201426Y-120120147D01*
X147940273Y-120228320D01*
X147705241Y-120385363D01*
X147505363Y-120585241D01*
X147350000Y-120817759D01*
X147194637Y-120585241D01*
X146994759Y-120385363D01*
X146759727Y-120228320D01*
X146498574Y-120120147D01*
X146221335Y-120065000D01*
X145938665Y-120065000D01*
X145661426Y-120120147D01*
X145400273Y-120228320D01*
X145165241Y-120385363D01*
X144965363Y-120585241D01*
X144810000Y-120817759D01*
X144654637Y-120585241D01*
X144454759Y-120385363D01*
X144219727Y-120228320D01*
X143958574Y-120120147D01*
X143681335Y-120065000D01*
X143398665Y-120065000D01*
X143121426Y-120120147D01*
X142860273Y-120228320D01*
X142625241Y-120385363D01*
X142426643Y-120583961D01*
X142425812Y-120575518D01*
X142389502Y-120455820D01*
X142330537Y-120345506D01*
X142251185Y-120248815D01*
X142154494Y-120169463D01*
X142044180Y-120110498D01*
X141924482Y-120074188D01*
X141800000Y-120061928D01*
X140200000Y-120061928D01*
X140075518Y-120074188D01*
X139955820Y-120110498D01*
X139845506Y-120169463D01*
X139748815Y-120248815D01*
X139669463Y-120345506D01*
X139610498Y-120455820D01*
X139574188Y-120575518D01*
X139561928Y-120700000D01*
X112660000Y-120700000D01*
X112660000Y-107085000D01*
X122951928Y-107085000D01*
X122955000Y-107624250D01*
X123030086Y-107699336D01*
X123030426Y-107701061D01*
X123100592Y-107871351D01*
X123102237Y-107874425D01*
X123242444Y-107882052D01*
X123270392Y-107910000D01*
X123242444Y-107937948D01*
X123102237Y-107945575D01*
X123031438Y-108115603D01*
X123030506Y-108120244D01*
X122955000Y-108195750D01*
X122951928Y-108735000D01*
X122964188Y-108859482D01*
X123000498Y-108979180D01*
X123059463Y-109089494D01*
X123138815Y-109186185D01*
X123235506Y-109265537D01*
X123345820Y-109324502D01*
X123465518Y-109360812D01*
X123590000Y-109373072D01*
X124504250Y-109370000D01*
X124663000Y-109211250D01*
X124663000Y-108984820D01*
X124683714Y-108964106D01*
X124663000Y-108943392D01*
X124663000Y-108839580D01*
X124668544Y-108839278D01*
X124696176Y-108844828D01*
X124880355Y-108845171D01*
X124910525Y-108839228D01*
X124917000Y-108839580D01*
X124917000Y-108943392D01*
X124896286Y-108964106D01*
X124917000Y-108984820D01*
X124917000Y-109211250D01*
X125075750Y-109370000D01*
X125990000Y-109373072D01*
X126114482Y-109360812D01*
X126234180Y-109324502D01*
X126344494Y-109265537D01*
X126441185Y-109186185D01*
X126520537Y-109089494D01*
X126579502Y-108979180D01*
X126615812Y-108859482D01*
X126628072Y-108735000D01*
X126625000Y-108195750D01*
X126549914Y-108120664D01*
X126549574Y-108118939D01*
X126479408Y-107948649D01*
X126477763Y-107945575D01*
X126337556Y-107937948D01*
X126309608Y-107910000D01*
X126337556Y-107882052D01*
X126477763Y-107874425D01*
X126548562Y-107704397D01*
X126549494Y-107699756D01*
X126625000Y-107624250D01*
X126628072Y-107085000D01*
X126615812Y-106960518D01*
X126579502Y-106840820D01*
X126520537Y-106730506D01*
X126441185Y-106633815D01*
X126344494Y-106554463D01*
X126234180Y-106495498D01*
X126114482Y-106459188D01*
X125990000Y-106446928D01*
X125075750Y-106450000D01*
X124917000Y-106608750D01*
X124917000Y-106835180D01*
X124896286Y-106855894D01*
X124917000Y-106876608D01*
X124917000Y-106980420D01*
X124911456Y-106980722D01*
X124883824Y-106975172D01*
X124699645Y-106974829D01*
X124669475Y-106980772D01*
X124663000Y-106980420D01*
X124663000Y-106876608D01*
X124683714Y-106855894D01*
X124663000Y-106835180D01*
X124663000Y-106608750D01*
X124504250Y-106450000D01*
X123590000Y-106446928D01*
X123465518Y-106459188D01*
X123345820Y-106495498D01*
X123235506Y-106554463D01*
X123138815Y-106633815D01*
X123059463Y-106730506D01*
X123000498Y-106840820D01*
X122964188Y-106960518D01*
X122951928Y-107085000D01*
X112660000Y-107085000D01*
X112660000Y-100398061D01*
X141715000Y-100398061D01*
X141715000Y-100601939D01*
X141754774Y-100801898D01*
X141832795Y-100990256D01*
X141839306Y-101000000D01*
X141832795Y-101009744D01*
X141754774Y-101198102D01*
X141715000Y-101398061D01*
X141715000Y-101601939D01*
X141754774Y-101801898D01*
X141832795Y-101990256D01*
X141946063Y-102159774D01*
X142090226Y-102303937D01*
X142259744Y-102417205D01*
X142448102Y-102495226D01*
X142648061Y-102535000D01*
X142851939Y-102535000D01*
X143051898Y-102495226D01*
X143240256Y-102417205D01*
X143250000Y-102410694D01*
X143259744Y-102417205D01*
X143448102Y-102495226D01*
X143648061Y-102535000D01*
X143851939Y-102535000D01*
X144051898Y-102495226D01*
X144240256Y-102417205D01*
X144409774Y-102303937D01*
X144553937Y-102159774D01*
X144667205Y-101990256D01*
X144745226Y-101801898D01*
X144785000Y-101601939D01*
X144785000Y-101398061D01*
X144745226Y-101198102D01*
X144667205Y-101009744D01*
X144660694Y-101000000D01*
X144667205Y-100990256D01*
X144745226Y-100801898D01*
X144785000Y-100601939D01*
X144785000Y-100398061D01*
X144745226Y-100198102D01*
X144667205Y-100009744D01*
X144553937Y-99840226D01*
X144409774Y-99696063D01*
X144240256Y-99582795D01*
X144051898Y-99504774D01*
X143851939Y-99465000D01*
X143648061Y-99465000D01*
X143448102Y-99504774D01*
X143259744Y-99582795D01*
X143250000Y-99589306D01*
X143240256Y-99582795D01*
X143051898Y-99504774D01*
X142851939Y-99465000D01*
X142648061Y-99465000D01*
X142448102Y-99504774D01*
X142259744Y-99582795D01*
X142090226Y-99696063D01*
X141946063Y-99840226D01*
X141832795Y-100009744D01*
X141754774Y-100198102D01*
X141715000Y-100398061D01*
X112660000Y-100398061D01*
X112660000Y-98148061D01*
X133715000Y-98148061D01*
X133715000Y-98351939D01*
X133754774Y-98551898D01*
X133832795Y-98740256D01*
X133839306Y-98750000D01*
X133832795Y-98759744D01*
X133754774Y-98948102D01*
X133715000Y-99148061D01*
X133715000Y-99351939D01*
X133754774Y-99551898D01*
X133832795Y-99740256D01*
X133946063Y-99909774D01*
X134090226Y-100053937D01*
X134259744Y-100167205D01*
X134448102Y-100245226D01*
X134648061Y-100285000D01*
X134851939Y-100285000D01*
X135051898Y-100245226D01*
X135240256Y-100167205D01*
X135250000Y-100160694D01*
X135259744Y-100167205D01*
X135448102Y-100245226D01*
X135648061Y-100285000D01*
X135851939Y-100285000D01*
X136051898Y-100245226D01*
X136240256Y-100167205D01*
X136409774Y-100053937D01*
X136553937Y-99909774D01*
X136667205Y-99740256D01*
X136745226Y-99551898D01*
X136785000Y-99351939D01*
X136785000Y-99148061D01*
X136745226Y-98948102D01*
X136667205Y-98759744D01*
X136660694Y-98750000D01*
X136667205Y-98740256D01*
X136745226Y-98551898D01*
X136785000Y-98351939D01*
X136785000Y-98148061D01*
X136745226Y-97948102D01*
X136667205Y-97759744D01*
X136592582Y-97648061D01*
X143965000Y-97648061D01*
X143965000Y-97851939D01*
X144004774Y-98051898D01*
X144082795Y-98240256D01*
X144196063Y-98409774D01*
X144340226Y-98553937D01*
X144509744Y-98667205D01*
X144698102Y-98745226D01*
X144898061Y-98785000D01*
X145101939Y-98785000D01*
X145301898Y-98745226D01*
X145490256Y-98667205D01*
X145659774Y-98553937D01*
X145803937Y-98409774D01*
X145917205Y-98240256D01*
X145995226Y-98051898D01*
X146035000Y-97851939D01*
X146035000Y-97648061D01*
X145995226Y-97448102D01*
X145917205Y-97259744D01*
X145803937Y-97090226D01*
X145659774Y-96946063D01*
X145490256Y-96832795D01*
X145301898Y-96754774D01*
X145101939Y-96715000D01*
X144898061Y-96715000D01*
X144698102Y-96754774D01*
X144509744Y-96832795D01*
X144340226Y-96946063D01*
X144196063Y-97090226D01*
X144082795Y-97259744D01*
X144004774Y-97448102D01*
X143965000Y-97648061D01*
X136592582Y-97648061D01*
X136553937Y-97590226D01*
X136409774Y-97446063D01*
X136240256Y-97332795D01*
X136051898Y-97254774D01*
X135851939Y-97215000D01*
X135648061Y-97215000D01*
X135448102Y-97254774D01*
X135259744Y-97332795D01*
X135250000Y-97339306D01*
X135240256Y-97332795D01*
X135051898Y-97254774D01*
X134851939Y-97215000D01*
X134648061Y-97215000D01*
X134448102Y-97254774D01*
X134259744Y-97332795D01*
X134090226Y-97446063D01*
X133946063Y-97590226D01*
X133832795Y-97759744D01*
X133754774Y-97948102D01*
X133715000Y-98148061D01*
X112660000Y-98148061D01*
X112660000Y-85148061D01*
X143965000Y-85148061D01*
X143965000Y-85351939D01*
X144004774Y-85551898D01*
X144082795Y-85740256D01*
X144196063Y-85909774D01*
X144340226Y-86053937D01*
X144509744Y-86167205D01*
X144698102Y-86245226D01*
X144898061Y-86285000D01*
X145101939Y-86285000D01*
X145301898Y-86245226D01*
X145490256Y-86167205D01*
X145659774Y-86053937D01*
X145803937Y-85909774D01*
X145917205Y-85740256D01*
X145995226Y-85551898D01*
X146035000Y-85351939D01*
X146035000Y-85148061D01*
X145995226Y-84948102D01*
X145917205Y-84759744D01*
X145803937Y-84590226D01*
X145659774Y-84446063D01*
X145490256Y-84332795D01*
X145301898Y-84254774D01*
X145101939Y-84215000D01*
X144898061Y-84215000D01*
X144698102Y-84254774D01*
X144509744Y-84332795D01*
X144340226Y-84446063D01*
X144196063Y-84590226D01*
X144082795Y-84759744D01*
X144004774Y-84948102D01*
X143965000Y-85148061D01*
X112660000Y-85148061D01*
X112660000Y-82148061D01*
X134215000Y-82148061D01*
X134215000Y-82351939D01*
X134254774Y-82551898D01*
X134332795Y-82740256D01*
X134339306Y-82750000D01*
X134332795Y-82759744D01*
X134254774Y-82948102D01*
X134215000Y-83148061D01*
X134215000Y-83351939D01*
X134254774Y-83551898D01*
X134332795Y-83740256D01*
X134446063Y-83909774D01*
X134590226Y-84053937D01*
X134759744Y-84167205D01*
X134948102Y-84245226D01*
X135148061Y-84285000D01*
X135351939Y-84285000D01*
X135551898Y-84245226D01*
X135740256Y-84167205D01*
X135750000Y-84160694D01*
X135759744Y-84167205D01*
X135948102Y-84245226D01*
X136148061Y-84285000D01*
X136351939Y-84285000D01*
X136551898Y-84245226D01*
X136740256Y-84167205D01*
X136909774Y-84053937D01*
X137053937Y-83909774D01*
X137167205Y-83740256D01*
X137245226Y-83551898D01*
X137285000Y-83351939D01*
X137285000Y-83148061D01*
X137245226Y-82948102D01*
X137167205Y-82759744D01*
X137160694Y-82750000D01*
X137167205Y-82740256D01*
X137245226Y-82551898D01*
X137285000Y-82351939D01*
X137285000Y-82148061D01*
X137245226Y-81948102D01*
X137167205Y-81759744D01*
X137053937Y-81590226D01*
X136909774Y-81446063D01*
X136740256Y-81332795D01*
X136551898Y-81254774D01*
X136351939Y-81215000D01*
X136148061Y-81215000D01*
X135948102Y-81254774D01*
X135759744Y-81332795D01*
X135750000Y-81339306D01*
X135740256Y-81332795D01*
X135551898Y-81254774D01*
X135351939Y-81215000D01*
X135148061Y-81215000D01*
X134948102Y-81254774D01*
X134759744Y-81332795D01*
X134590226Y-81446063D01*
X134446063Y-81590226D01*
X134332795Y-81759744D01*
X134254774Y-81948102D01*
X134215000Y-82148061D01*
X112660000Y-82148061D01*
X112660000Y-78648061D01*
X147715000Y-78648061D01*
X147715000Y-78851939D01*
X147754774Y-79051898D01*
X147832795Y-79240256D01*
X147946063Y-79409774D01*
X148090226Y-79553937D01*
X148259744Y-79667205D01*
X148448102Y-79745226D01*
X148648061Y-79785000D01*
X148851939Y-79785000D01*
X149051898Y-79745226D01*
X149240256Y-79667205D01*
X149409774Y-79553937D01*
X149553937Y-79409774D01*
X149667205Y-79240256D01*
X149745226Y-79051898D01*
X149785000Y-78851939D01*
X149785000Y-78648061D01*
X153715000Y-78648061D01*
X153715000Y-78851939D01*
X153754774Y-79051898D01*
X153832795Y-79240256D01*
X153946063Y-79409774D01*
X154090226Y-79553937D01*
X154259744Y-79667205D01*
X154448102Y-79745226D01*
X154648061Y-79785000D01*
X154851939Y-79785000D01*
X155051898Y-79745226D01*
X155240256Y-79667205D01*
X155409774Y-79553937D01*
X155553937Y-79409774D01*
X155667205Y-79240256D01*
X155745226Y-79051898D01*
X155785000Y-78851939D01*
X155785000Y-78648061D01*
X159715000Y-78648061D01*
X159715000Y-78851939D01*
X159754774Y-79051898D01*
X159832795Y-79240256D01*
X159946063Y-79409774D01*
X160090226Y-79553937D01*
X160259744Y-79667205D01*
X160448102Y-79745226D01*
X160648061Y-79785000D01*
X160851939Y-79785000D01*
X161051898Y-79745226D01*
X161240256Y-79667205D01*
X161409774Y-79553937D01*
X161553937Y-79409774D01*
X161667205Y-79240256D01*
X161745226Y-79051898D01*
X161785000Y-78851939D01*
X161785000Y-78648061D01*
X161745226Y-78448102D01*
X161667205Y-78259744D01*
X161553937Y-78090226D01*
X161409774Y-77946063D01*
X161240256Y-77832795D01*
X161051898Y-77754774D01*
X160851939Y-77715000D01*
X160648061Y-77715000D01*
X160448102Y-77754774D01*
X160259744Y-77832795D01*
X160090226Y-77946063D01*
X159946063Y-78090226D01*
X159832795Y-78259744D01*
X159754774Y-78448102D01*
X159715000Y-78648061D01*
X155785000Y-78648061D01*
X155745226Y-78448102D01*
X155667205Y-78259744D01*
X155553937Y-78090226D01*
X155409774Y-77946063D01*
X155240256Y-77832795D01*
X155051898Y-77754774D01*
X154851939Y-77715000D01*
X154648061Y-77715000D01*
X154448102Y-77754774D01*
X154259744Y-77832795D01*
X154090226Y-77946063D01*
X153946063Y-78090226D01*
X153832795Y-78259744D01*
X153754774Y-78448102D01*
X153715000Y-78648061D01*
X149785000Y-78648061D01*
X149745226Y-78448102D01*
X149667205Y-78259744D01*
X149553937Y-78090226D01*
X149409774Y-77946063D01*
X149240256Y-77832795D01*
X149051898Y-77754774D01*
X148851939Y-77715000D01*
X148648061Y-77715000D01*
X148448102Y-77754774D01*
X148259744Y-77832795D01*
X148090226Y-77946063D01*
X147946063Y-78090226D01*
X147832795Y-78259744D01*
X147754774Y-78448102D01*
X147715000Y-78648061D01*
X112660000Y-78648061D01*
X112660000Y-73098665D01*
X130425000Y-73098665D01*
X130425000Y-73381335D01*
X130480147Y-73658574D01*
X130588320Y-73919727D01*
X130745363Y-74154759D01*
X130945241Y-74354637D01*
X131180273Y-74511680D01*
X131441426Y-74619853D01*
X131718665Y-74675000D01*
X132001335Y-74675000D01*
X132278574Y-74619853D01*
X132539727Y-74511680D01*
X132774759Y-74354637D01*
X132974637Y-74154759D01*
X133130000Y-73922241D01*
X133285363Y-74154759D01*
X133485241Y-74354637D01*
X133720273Y-74511680D01*
X133981426Y-74619853D01*
X134258665Y-74675000D01*
X134541335Y-74675000D01*
X134818574Y-74619853D01*
X135079727Y-74511680D01*
X135314759Y-74354637D01*
X135514637Y-74154759D01*
X135670000Y-73922241D01*
X135825363Y-74154759D01*
X136025241Y-74354637D01*
X136260273Y-74511680D01*
X136521426Y-74619853D01*
X136798665Y-74675000D01*
X137081335Y-74675000D01*
X137358574Y-74619853D01*
X137619727Y-74511680D01*
X137854759Y-74354637D01*
X138054637Y-74154759D01*
X138211680Y-73919727D01*
X138216067Y-73909135D01*
X138327615Y-74095131D01*
X138516586Y-74303519D01*
X138742580Y-74471037D01*
X138996913Y-74591246D01*
X139130961Y-74631904D01*
X139353000Y-74509915D01*
X139353000Y-73367000D01*
X139333000Y-73367000D01*
X139333000Y-73113000D01*
X139353000Y-73113000D01*
X139353000Y-71970085D01*
X139130961Y-71848096D01*
X138996913Y-71888754D01*
X138742580Y-72008963D01*
X138516586Y-72176481D01*
X138327615Y-72384869D01*
X138216067Y-72570865D01*
X138211680Y-72560273D01*
X138054637Y-72325241D01*
X137854759Y-72125363D01*
X137619727Y-71968320D01*
X137358574Y-71860147D01*
X137081335Y-71805000D01*
X136798665Y-71805000D01*
X136521426Y-71860147D01*
X136260273Y-71968320D01*
X136025241Y-72125363D01*
X135825363Y-72325241D01*
X135670000Y-72557759D01*
X135514637Y-72325241D01*
X135314759Y-72125363D01*
X135079727Y-71968320D01*
X134818574Y-71860147D01*
X134541335Y-71805000D01*
X134258665Y-71805000D01*
X133981426Y-71860147D01*
X133720273Y-71968320D01*
X133485241Y-72125363D01*
X133285363Y-72325241D01*
X133130000Y-72557759D01*
X132974637Y-72325241D01*
X132774759Y-72125363D01*
X132539727Y-71968320D01*
X132278574Y-71860147D01*
X132001335Y-71805000D01*
X131718665Y-71805000D01*
X131441426Y-71860147D01*
X131180273Y-71968320D01*
X130945241Y-72125363D01*
X130745363Y-72325241D01*
X130588320Y-72560273D01*
X130480147Y-72821426D01*
X130425000Y-73098665D01*
X112660000Y-73098665D01*
X112660000Y-72773380D01*
X114273381Y-71160000D01*
X143025198Y-71160000D01*
X142343886Y-71841312D01*
G37*
X142343886Y-71841312D02*
X142161335Y-71805000D01*
X141878665Y-71805000D01*
X141601426Y-71860147D01*
X141340273Y-71968320D01*
X141105241Y-72125363D01*
X140905363Y-72325241D01*
X140748320Y-72560273D01*
X140743933Y-72570865D01*
X140632385Y-72384869D01*
X140443414Y-72176481D01*
X140217420Y-72008963D01*
X139963087Y-71888754D01*
X139829039Y-71848096D01*
X139607000Y-71970085D01*
X139607000Y-73113000D01*
X139627000Y-73113000D01*
X139627000Y-73367000D01*
X139607000Y-73367000D01*
X139607000Y-74509915D01*
X139829039Y-74631904D01*
X139963087Y-74591246D01*
X140217420Y-74471037D01*
X140443414Y-74303519D01*
X140632385Y-74095131D01*
X140743933Y-73909135D01*
X140748320Y-73919727D01*
X140905363Y-74154759D01*
X141105241Y-74354637D01*
X141340273Y-74511680D01*
X141601426Y-74619853D01*
X141878665Y-74675000D01*
X142161335Y-74675000D01*
X142438574Y-74619853D01*
X142699727Y-74511680D01*
X142934759Y-74354637D01*
X143134637Y-74154759D01*
X143290000Y-73922241D01*
X143445363Y-74154759D01*
X143645241Y-74354637D01*
X143880273Y-74511680D01*
X144141426Y-74619853D01*
X144418665Y-74675000D01*
X144701335Y-74675000D01*
X144978574Y-74619853D01*
X145239727Y-74511680D01*
X145474759Y-74354637D01*
X145674637Y-74154759D01*
X145830000Y-73922241D01*
X145985363Y-74154759D01*
X146185241Y-74354637D01*
X146420273Y-74511680D01*
X146681426Y-74619853D01*
X146958665Y-74675000D01*
X147241335Y-74675000D01*
X147518574Y-74619853D01*
X147779727Y-74511680D01*
X148014759Y-74354637D01*
X148214637Y-74154759D01*
X148370000Y-73922241D01*
X148525363Y-74154759D01*
X148725241Y-74354637D01*
X148960273Y-74511680D01*
X149221426Y-74619853D01*
X149498665Y-74675000D01*
X149781335Y-74675000D01*
X149963886Y-74638688D01*
X150586205Y-75261008D01*
X150609999Y-75290001D01*
X150638992Y-75313795D01*
X150638996Y-75313799D01*
X150709685Y-75371811D01*
X150725724Y-75384974D01*
X150857753Y-75455546D01*
X151001014Y-75499003D01*
X151112667Y-75510000D01*
X151112676Y-75510000D01*
X151149999Y-75513676D01*
X151187322Y-75510000D01*
X156025969Y-75510000D01*
X157127007Y-76611040D01*
X157150796Y-76640027D01*
X157179783Y-76663816D01*
X157179793Y-76663826D01*
X157266520Y-76735000D01*
X157332535Y-76770286D01*
X157398549Y-76805572D01*
X157541810Y-76849029D01*
X157690796Y-76863703D01*
X157728127Y-76860026D01*
X159712666Y-76860030D01*
X162625999Y-76860030D01*
X165490001Y-79724033D01*
X165490000Y-80332689D01*
X165301898Y-80254774D01*
X165101939Y-80215000D01*
X164898061Y-80215000D01*
X164698102Y-80254774D01*
X164509744Y-80332795D01*
X164340226Y-80446063D01*
X164296289Y-80490000D01*
X148453711Y-80490000D01*
X148409774Y-80446063D01*
X148240256Y-80332795D01*
X148051898Y-80254774D01*
X147851939Y-80215000D01*
X147648061Y-80215000D01*
X147448102Y-80254774D01*
X147259744Y-80332795D01*
X147090226Y-80446063D01*
X147046289Y-80490000D01*
X145787322Y-80490000D01*
X145749999Y-80486324D01*
X145712676Y-80490000D01*
X145712667Y-80490000D01*
X145601014Y-80500997D01*
X145457753Y-80544454D01*
X145325724Y-80615026D01*
X145209999Y-80709999D01*
X145186201Y-80738997D01*
X144960198Y-80965000D01*
X144898061Y-80965000D01*
X144698102Y-81004774D01*
X144509744Y-81082795D01*
X144340226Y-81196063D01*
X144196063Y-81340226D01*
X144082795Y-81509744D01*
X144004774Y-81698102D01*
X143965000Y-81898061D01*
X143965000Y-82101939D01*
X144004774Y-82301898D01*
X144082795Y-82490256D01*
X144196063Y-82659774D01*
X144340226Y-82803937D01*
X144509744Y-82917205D01*
X144698102Y-82995226D01*
X144898061Y-83035000D01*
X145101939Y-83035000D01*
X145301898Y-82995226D01*
X145490256Y-82917205D01*
X145659774Y-82803937D01*
X145803937Y-82659774D01*
X145917205Y-82490256D01*
X145995226Y-82301898D01*
X146035000Y-82101939D01*
X146035000Y-82039802D01*
X146064802Y-82010000D01*
X147046289Y-82010000D01*
X147090226Y-82053937D01*
X147259744Y-82167205D01*
X147448102Y-82245226D01*
X147648061Y-82285000D01*
X147851939Y-82285000D01*
X148051898Y-82245226D01*
X148240256Y-82167205D01*
X148409774Y-82053937D01*
X148453711Y-82010000D01*
X158320556Y-82010000D01*
X158304774Y-82048102D01*
X158265000Y-82248061D01*
X158265000Y-82451939D01*
X158304774Y-82651898D01*
X158382795Y-82840256D01*
X158496063Y-83009774D01*
X158640226Y-83153937D01*
X158809744Y-83267205D01*
X158998102Y-83345226D01*
X159198061Y-83385000D01*
X159401939Y-83385000D01*
X159601898Y-83345226D01*
X159790256Y-83267205D01*
X159959774Y-83153937D01*
X160103937Y-83009774D01*
X160217205Y-82840256D01*
X160250448Y-82760000D01*
X164418965Y-82760000D01*
X164365026Y-82825724D01*
X164294454Y-82957754D01*
X164271023Y-83035000D01*
X164250998Y-83101014D01*
X164245626Y-83155556D01*
X164236324Y-83250000D01*
X164240001Y-83287332D01*
X164240000Y-89537179D01*
X163285750Y-89540000D01*
X163252894Y-89572856D01*
X163127002Y-89547986D01*
X163127002Y-89540000D01*
X163086574Y-89540000D01*
X163086002Y-89539887D01*
X162999979Y-89540000D01*
X162872998Y-89540000D01*
X162872998Y-89547862D01*
X162747289Y-89573039D01*
X162714250Y-89540000D01*
X161675000Y-89536928D01*
X161550518Y-89549188D01*
X161430820Y-89585498D01*
X161320506Y-89644463D01*
X161223815Y-89723815D01*
X161144463Y-89820506D01*
X161085498Y-89930820D01*
X161049188Y-90050518D01*
X161036928Y-90175000D01*
X161040000Y-91714250D01*
X161084489Y-91758739D01*
X161140173Y-91893174D01*
X161328836Y-91897216D01*
X161353052Y-91873000D01*
X161503980Y-91873000D01*
X161502784Y-91928836D01*
X161573948Y-92000000D01*
X161502784Y-92071164D01*
X161503980Y-92127000D01*
X161353052Y-92127000D01*
X161328836Y-92102784D01*
X161140173Y-92106826D01*
X161084841Y-92240909D01*
X161040000Y-92285750D01*
X161036928Y-93825000D01*
X161049188Y-93949482D01*
X161085498Y-94069180D01*
X161144463Y-94179494D01*
X161223815Y-94276185D01*
X161320506Y-94355537D01*
X161430820Y-94414502D01*
X161550518Y-94450812D01*
X161675000Y-94463072D01*
X162714250Y-94460000D01*
X162747106Y-94427144D01*
X162872998Y-94452014D01*
X162872998Y-94460000D01*
X162913426Y-94460000D01*
X162913998Y-94460113D01*
X163000021Y-94460000D01*
X163127002Y-94460000D01*
X163127002Y-94452138D01*
X163252711Y-94426961D01*
X163285750Y-94460000D01*
X164325000Y-94463072D01*
X164449482Y-94450812D01*
X164569180Y-94414502D01*
X164582553Y-94407354D01*
X164715000Y-94539801D01*
X164715000Y-94601939D01*
X164754774Y-94801898D01*
X164832795Y-94990256D01*
X164946063Y-95159774D01*
X165090226Y-95303937D01*
X165259744Y-95417205D01*
X165448102Y-95495226D01*
X165648061Y-95535000D01*
X165851939Y-95535000D01*
X166051898Y-95495226D01*
X166240256Y-95417205D01*
X166409774Y-95303937D01*
X166553937Y-95159774D01*
X166667205Y-94990256D01*
X166745226Y-94801898D01*
X166785000Y-94601939D01*
X166785000Y-94398061D01*
X166745226Y-94198102D01*
X166667205Y-94009744D01*
X166553937Y-93840226D01*
X166409774Y-93696063D01*
X166240256Y-93582795D01*
X166051898Y-93504774D01*
X165851939Y-93465000D01*
X165789801Y-93465000D01*
X165760000Y-93435199D01*
X165760000Y-90419268D01*
X192065000Y-90419268D01*
X192065000Y-90780732D01*
X192135518Y-91135250D01*
X192273844Y-91469199D01*
X192474662Y-91769744D01*
X192730256Y-92025338D01*
X193030801Y-92226156D01*
X193364750Y-92364482D01*
X193719268Y-92435000D01*
X194080732Y-92435000D01*
X194435250Y-92364482D01*
X194769199Y-92226156D01*
X195069744Y-92025338D01*
X195325338Y-91769744D01*
X195526156Y-91469199D01*
X195664482Y-91135250D01*
X195735000Y-90780732D01*
X195735000Y-90419268D01*
X195664482Y-90064750D01*
X195526156Y-89730801D01*
X195325338Y-89430256D01*
X195069744Y-89174662D01*
X194769199Y-88973844D01*
X194435250Y-88835518D01*
X194080732Y-88765000D01*
X193719268Y-88765000D01*
X193364750Y-88835518D01*
X193030801Y-88973844D01*
X192730256Y-89174662D01*
X192474662Y-89430256D01*
X192273844Y-89730801D01*
X192135518Y-90064750D01*
X192065000Y-90419268D01*
X165760000Y-90419268D01*
X165760000Y-88898061D01*
X166465000Y-88898061D01*
X166465000Y-89101939D01*
X166504774Y-89301898D01*
X166582795Y-89490256D01*
X166696063Y-89659774D01*
X166840226Y-89803937D01*
X167009744Y-89917205D01*
X167198102Y-89995226D01*
X167398061Y-90035000D01*
X167601939Y-90035000D01*
X167801898Y-89995226D01*
X167990256Y-89917205D01*
X168159774Y-89803937D01*
X168303937Y-89659774D01*
X168417205Y-89490256D01*
X168495226Y-89301898D01*
X168535000Y-89101939D01*
X168535000Y-88898061D01*
X168495226Y-88698102D01*
X168417205Y-88509744D01*
X168303937Y-88340226D01*
X168159774Y-88196063D01*
X167990256Y-88082795D01*
X167801898Y-88004774D01*
X167601939Y-87965000D01*
X167398061Y-87965000D01*
X167198102Y-88004774D01*
X167009744Y-88082795D01*
X166840226Y-88196063D01*
X166696063Y-88340226D01*
X166582795Y-88509744D01*
X166504774Y-88698102D01*
X166465000Y-88898061D01*
X165760000Y-88898061D01*
X165760000Y-83564801D01*
X166114792Y-83210010D01*
X168362390Y-83210010D01*
X168538405Y-83386025D01*
X168562202Y-83415021D01*
X168677927Y-83509994D01*
X168809956Y-83580566D01*
X168953217Y-83624023D01*
X169064870Y-83635020D01*
X169064880Y-83635020D01*
X169102203Y-83638696D01*
X169139527Y-83635020D01*
X170683471Y-83635018D01*
X170720803Y-83638695D01*
X170758136Y-83635018D01*
X170869789Y-83624021D01*
X170913245Y-83610839D01*
X171013049Y-83580565D01*
X171145079Y-83509993D01*
X171231805Y-83438818D01*
X171231806Y-83438817D01*
X171260804Y-83415019D01*
X171284602Y-83386021D01*
X172261004Y-82409620D01*
X172290001Y-82385823D01*
X172384974Y-82270098D01*
X172455546Y-82138069D01*
X172499003Y-81994808D01*
X172510000Y-81883155D01*
X172510000Y-81883146D01*
X172513676Y-81845823D01*
X172510000Y-81808500D01*
X172510000Y-81064801D01*
X172664801Y-80910000D01*
X172726939Y-80910000D01*
X172926898Y-80870226D01*
X173115256Y-80792205D01*
X173284774Y-80678937D01*
X173428937Y-80534774D01*
X173542205Y-80365256D01*
X173620226Y-80176898D01*
X173660000Y-79976939D01*
X173660000Y-79773061D01*
X173620226Y-79573102D01*
X173542205Y-79384744D01*
X173428937Y-79215226D01*
X173284774Y-79071063D01*
X173115256Y-78957795D01*
X172926898Y-78879774D01*
X172726939Y-78840000D01*
X172523061Y-78840000D01*
X172323102Y-78879774D01*
X172134744Y-78957795D01*
X172010000Y-79041146D01*
X172010000Y-78864801D01*
X176236114Y-74638688D01*
X176418665Y-74675000D01*
X176701335Y-74675000D01*
X176978574Y-74619853D01*
X177239727Y-74511680D01*
X177474759Y-74354637D01*
X177674637Y-74154759D01*
X177831680Y-73919727D01*
X177939853Y-73658574D01*
X177995000Y-73381335D01*
X177995000Y-73098665D01*
X177939853Y-72821426D01*
X177831680Y-72560273D01*
X177674637Y-72325241D01*
X177474759Y-72125363D01*
X177239727Y-71968320D01*
X176978574Y-71860147D01*
X176701335Y-71805000D01*
X176418665Y-71805000D01*
X176141426Y-71860147D01*
X175880273Y-71968320D01*
X175645241Y-72125363D01*
X175445363Y-72325241D01*
X175290000Y-72557759D01*
X175134637Y-72325241D01*
X174934759Y-72125363D01*
X174699727Y-71968320D01*
X174438574Y-71860147D01*
X174161335Y-71805000D01*
X173878665Y-71805000D01*
X173601426Y-71860147D01*
X173340273Y-71968320D01*
X173105241Y-72125363D01*
X172905363Y-72325241D01*
X172750000Y-72557759D01*
X172594637Y-72325241D01*
X172394759Y-72125363D01*
X172159727Y-71968320D01*
X171898574Y-71860147D01*
X171621335Y-71805000D01*
X171338665Y-71805000D01*
X171061426Y-71860147D01*
X170800273Y-71968320D01*
X170565241Y-72125363D01*
X170365363Y-72325241D01*
X170210000Y-72557759D01*
X170054637Y-72325241D01*
X169854759Y-72125363D01*
X169619727Y-71968320D01*
X169358574Y-71860147D01*
X169081335Y-71805000D01*
X168798665Y-71805000D01*
X168521426Y-71860147D01*
X168260273Y-71968320D01*
X168025241Y-72125363D01*
X167825363Y-72325241D01*
X167670000Y-72557759D01*
X167514637Y-72325241D01*
X167314759Y-72125363D01*
X167079727Y-71968320D01*
X166818574Y-71860147D01*
X166541335Y-71805000D01*
X166258665Y-71805000D01*
X165981426Y-71860147D01*
X165720273Y-71968320D01*
X165485241Y-72125363D01*
X165285363Y-72325241D01*
X165130000Y-72557759D01*
X164974637Y-72325241D01*
X164774759Y-72125363D01*
X164539727Y-71968320D01*
X164278574Y-71860147D01*
X164001335Y-71805000D01*
X163718665Y-71805000D01*
X163441426Y-71860147D01*
X163180273Y-71968320D01*
X162945241Y-72125363D01*
X162745363Y-72325241D01*
X162590000Y-72557759D01*
X162434637Y-72325241D01*
X162234759Y-72125363D01*
X161999727Y-71968320D01*
X161738574Y-71860147D01*
X161461335Y-71805000D01*
X161178665Y-71805000D01*
X160901426Y-71860147D01*
X160640273Y-71968320D01*
X160405241Y-72125363D01*
X160205363Y-72325241D01*
X160050000Y-72557759D01*
X159894637Y-72325241D01*
X159694759Y-72125363D01*
X159459727Y-71968320D01*
X159198574Y-71860147D01*
X158921335Y-71805000D01*
X158638665Y-71805000D01*
X158361426Y-71860147D01*
X158100273Y-71968320D01*
X157908319Y-72096579D01*
X157884974Y-72052904D01*
X157813799Y-71966177D01*
X157790001Y-71937179D01*
X157761003Y-71913381D01*
X157007621Y-71160000D01*
X177726620Y-71160000D01*
X179340001Y-72773382D01*
X179340000Y-83873000D01*
X168000000Y-83873000D01*
X167975224Y-83875440D01*
X167951399Y-83882667D01*
X167929443Y-83894403D01*
X167910197Y-83910197D01*
X167894403Y-83929443D01*
X167882667Y-83951399D01*
X167875440Y-83975224D01*
X167873000Y-84000000D01*
X167873000Y-85000000D01*
X167875440Y-85024776D01*
X167882667Y-85048601D01*
X167894403Y-85070557D01*
X167910197Y-85089803D01*
X167929443Y-85105597D01*
X167951399Y-85117333D01*
X167975224Y-85124560D01*
X168000000Y-85127000D01*
X179340000Y-85127000D01*
X179340000Y-85967591D01*
X179336808Y-86000000D01*
X179340000Y-86032409D01*
X179340000Y-86032418D01*
X179349550Y-86129382D01*
X179387290Y-86253792D01*
X179448575Y-86368450D01*
X179496689Y-86427076D01*
X179531052Y-86468948D01*
X179556236Y-86489616D01*
X181510388Y-88443769D01*
X181531052Y-88468948D01*
X181556231Y-88489612D01*
X181556233Y-88489614D01*
X181631549Y-88551425D01*
X181746207Y-88612710D01*
X181870617Y-88650450D01*
X181967581Y-88660000D01*
X181967590Y-88660000D01*
X181999999Y-88663192D01*
X182032408Y-88660000D01*
X195726620Y-88660000D01*
X197340001Y-90273382D01*
X197340000Y-103726619D01*
X195726620Y-105340000D01*
X182032408Y-105340000D01*
X181999999Y-105336808D01*
X181967590Y-105340000D01*
X181967581Y-105340000D01*
X181870617Y-105349550D01*
X181746207Y-105387290D01*
X181631549Y-105448575D01*
X181556233Y-105510386D01*
X181531052Y-105531052D01*
X181510388Y-105556231D01*
X179556232Y-107510388D01*
X179531053Y-107531052D01*
X179510389Y-107556231D01*
X179510386Y-107556234D01*
X179448575Y-107631550D01*
X179387290Y-107746208D01*
X179349551Y-107870618D01*
X179336808Y-108000000D01*
X179340001Y-108032419D01*
X179340001Y-108873000D01*
X153127000Y-108873000D01*
X153127000Y-103898061D01*
X154465000Y-103898061D01*
X154465000Y-104101939D01*
X154504774Y-104301898D01*
X154582795Y-104490256D01*
X154696063Y-104659774D01*
X154840226Y-104803937D01*
X155009744Y-104917205D01*
X155198102Y-104995226D01*
X155398061Y-105035000D01*
X155601939Y-105035000D01*
X155801898Y-104995226D01*
X155990256Y-104917205D01*
X156159774Y-104803937D01*
X156303937Y-104659774D01*
X156417205Y-104490256D01*
X156495226Y-104301898D01*
X156535000Y-104101939D01*
X156535000Y-103898061D01*
X156495226Y-103698102D01*
X156417205Y-103509744D01*
X156303937Y-103340226D01*
X156159774Y-103196063D01*
X155990256Y-103082795D01*
X155801898Y-103004774D01*
X155601939Y-102965000D01*
X155398061Y-102965000D01*
X155198102Y-103004774D01*
X155009744Y-103082795D01*
X154840226Y-103196063D01*
X154696063Y-103340226D01*
X154582795Y-103509744D01*
X154504774Y-103698102D01*
X154465000Y-103898061D01*
X153127000Y-103898061D01*
X153127000Y-100898061D01*
X160215000Y-100898061D01*
X160215000Y-101101939D01*
X160254774Y-101301898D01*
X160332795Y-101490256D01*
X160446063Y-101659774D01*
X160590226Y-101803937D01*
X160759744Y-101917205D01*
X160948102Y-101995226D01*
X161148061Y-102035000D01*
X161351939Y-102035000D01*
X161551898Y-101995226D01*
X161740256Y-101917205D01*
X161909774Y-101803937D01*
X162053937Y-101659774D01*
X162167205Y-101490256D01*
X162245226Y-101301898D01*
X162285000Y-101101939D01*
X162285000Y-100898061D01*
X162245226Y-100698102D01*
X162167205Y-100509744D01*
X162053937Y-100340226D01*
X161909774Y-100196063D01*
X161740256Y-100082795D01*
X161551898Y-100004774D01*
X161351939Y-99965000D01*
X161148061Y-99965000D01*
X160948102Y-100004774D01*
X160759744Y-100082795D01*
X160590226Y-100196063D01*
X160446063Y-100340226D01*
X160332795Y-100509744D01*
X160254774Y-100698102D01*
X160215000Y-100898061D01*
X153127000Y-100898061D01*
X153127000Y-96698061D01*
X164465000Y-96698061D01*
X164465000Y-96901939D01*
X164504774Y-97101898D01*
X164582795Y-97290256D01*
X164696063Y-97459774D01*
X164840226Y-97603937D01*
X165009744Y-97717205D01*
X165198102Y-97795226D01*
X165398061Y-97835000D01*
X165510199Y-97835000D01*
X171186201Y-103511003D01*
X171209999Y-103540001D01*
X171325724Y-103634974D01*
X171457753Y-103705546D01*
X171601014Y-103749003D01*
X171712667Y-103760000D01*
X171712675Y-103760000D01*
X171750000Y-103763676D01*
X171787325Y-103760000D01*
X172026289Y-103760000D01*
X171946063Y-103840226D01*
X171832795Y-104009744D01*
X171754774Y-104198102D01*
X171715000Y-104398061D01*
X171715000Y-104601939D01*
X171754774Y-104801898D01*
X171832795Y-104990256D01*
X171946063Y-105159774D01*
X172090226Y-105303937D01*
X172259744Y-105417205D01*
X172448102Y-105495226D01*
X172648061Y-105535000D01*
X172851939Y-105535000D01*
X173051898Y-105495226D01*
X173240256Y-105417205D01*
X173409774Y-105303937D01*
X173553937Y-105159774D01*
X173667205Y-104990256D01*
X173745226Y-104801898D01*
X173785000Y-104601939D01*
X173785000Y-104398061D01*
X173745226Y-104198102D01*
X173667205Y-104009744D01*
X173553937Y-103840226D01*
X173473711Y-103760000D01*
X180796289Y-103760000D01*
X180840226Y-103803937D01*
X181009744Y-103917205D01*
X181198102Y-103995226D01*
X181398061Y-104035000D01*
X181601939Y-104035000D01*
X181801898Y-103995226D01*
X181990256Y-103917205D01*
X182159774Y-103803937D01*
X182303937Y-103659774D01*
X182417205Y-103490256D01*
X182495226Y-103301898D01*
X182531553Y-103119268D01*
X192065000Y-103119268D01*
X192065000Y-103480732D01*
X192135518Y-103835250D01*
X192273844Y-104169199D01*
X192474662Y-104469744D01*
X192730256Y-104725338D01*
X193030801Y-104926156D01*
X193364750Y-105064482D01*
X193719268Y-105135000D01*
X194080732Y-105135000D01*
X194435250Y-105064482D01*
X194769199Y-104926156D01*
X195069744Y-104725338D01*
X195325338Y-104469744D01*
X195526156Y-104169199D01*
X195664482Y-103835250D01*
X195735000Y-103480732D01*
X195735000Y-103119268D01*
X195664482Y-102764750D01*
X195526156Y-102430801D01*
X195325338Y-102130256D01*
X195069744Y-101874662D01*
X194769199Y-101673844D01*
X194435250Y-101535518D01*
X194080732Y-101465000D01*
X193719268Y-101465000D01*
X193364750Y-101535518D01*
X193030801Y-101673844D01*
X192730256Y-101874662D01*
X192474662Y-102130256D01*
X192273844Y-102430801D01*
X192135518Y-102764750D01*
X192065000Y-103119268D01*
X182531553Y-103119268D01*
X182535000Y-103101939D01*
X182535000Y-102898061D01*
X182495226Y-102698102D01*
X182417205Y-102509744D01*
X182303937Y-102340226D01*
X182159774Y-102196063D01*
X181990256Y-102082795D01*
X181801898Y-102004774D01*
X181601939Y-101965000D01*
X181398061Y-101965000D01*
X181198102Y-102004774D01*
X181009744Y-102082795D01*
X180840226Y-102196063D01*
X180796289Y-102240000D01*
X172064802Y-102240000D01*
X169222863Y-99398061D01*
X170715000Y-99398061D01*
X170715000Y-99601939D01*
X170754774Y-99801898D01*
X170832795Y-99990256D01*
X170946063Y-100159774D01*
X171090226Y-100303937D01*
X171259744Y-100417205D01*
X171448102Y-100495226D01*
X171648061Y-100535000D01*
X171851939Y-100535000D01*
X172051898Y-100495226D01*
X172240256Y-100417205D01*
X172409774Y-100303937D01*
X172553937Y-100159774D01*
X172667205Y-99990256D01*
X172745226Y-99801898D01*
X172785000Y-99601939D01*
X172785000Y-99398061D01*
X172745226Y-99198102D01*
X172667205Y-99009744D01*
X172553937Y-98840226D01*
X172510000Y-98796289D01*
X172510000Y-96314801D01*
X174426740Y-94398061D01*
X176715000Y-94398061D01*
X176715000Y-94601939D01*
X176754774Y-94801898D01*
X176832795Y-94990256D01*
X176946063Y-95159774D01*
X177090226Y-95303937D01*
X177259744Y-95417205D01*
X177448102Y-95495226D01*
X177648061Y-95535000D01*
X177851939Y-95535000D01*
X178051898Y-95495226D01*
X178240256Y-95417205D01*
X178409774Y-95303937D01*
X178553937Y-95159774D01*
X178667205Y-94990256D01*
X178745226Y-94801898D01*
X178785000Y-94601939D01*
X178785000Y-94398061D01*
X178745226Y-94198102D01*
X178667205Y-94009744D01*
X178553937Y-93840226D01*
X178409774Y-93696063D01*
X178240256Y-93582795D01*
X178051898Y-93504774D01*
X177851939Y-93465000D01*
X177648061Y-93465000D01*
X177448102Y-93504774D01*
X177259744Y-93582795D01*
X177090226Y-93696063D01*
X176946063Y-93840226D01*
X176832795Y-94009744D01*
X176754774Y-94198102D01*
X176715000Y-94398061D01*
X174426740Y-94398061D01*
X175039802Y-93785000D01*
X175101939Y-93785000D01*
X175301898Y-93745226D01*
X175490256Y-93667205D01*
X175659774Y-93553937D01*
X175803937Y-93409774D01*
X175917205Y-93240256D01*
X175995226Y-93051898D01*
X176035000Y-92851939D01*
X176035000Y-92648061D01*
X175995226Y-92448102D01*
X175917205Y-92259744D01*
X175803937Y-92090226D01*
X175659774Y-91946063D01*
X175490256Y-91832795D01*
X175301898Y-91754774D01*
X175101939Y-91715000D01*
X174898061Y-91715000D01*
X174698102Y-91754774D01*
X174509744Y-91832795D01*
X174340226Y-91946063D01*
X174196063Y-92090226D01*
X174082795Y-92259744D01*
X174004774Y-92448102D01*
X173965000Y-92648061D01*
X173965000Y-92710198D01*
X171239003Y-95436196D01*
X171209999Y-95459999D01*
X171154871Y-95527174D01*
X171115026Y-95575724D01*
X171044455Y-95707753D01*
X171044454Y-95707754D01*
X171000997Y-95851015D01*
X170990000Y-95962668D01*
X170990000Y-95962678D01*
X170986324Y-96000000D01*
X170990000Y-96037323D01*
X170990001Y-98796288D01*
X170946063Y-98840226D01*
X170832795Y-99009744D01*
X170754774Y-99198102D01*
X170715000Y-99398061D01*
X169222863Y-99398061D01*
X166535000Y-96710199D01*
X166535000Y-96698061D01*
X166495226Y-96498102D01*
X166417205Y-96309744D01*
X166303937Y-96140226D01*
X166159774Y-95996063D01*
X165990256Y-95882795D01*
X165801898Y-95804774D01*
X165601939Y-95765000D01*
X165398061Y-95765000D01*
X165198102Y-95804774D01*
X165009744Y-95882795D01*
X164840226Y-95996063D01*
X164696063Y-96140226D01*
X164582795Y-96309744D01*
X164504774Y-96498102D01*
X164465000Y-96698061D01*
X153127000Y-96698061D01*
X153127000Y-93898061D01*
X153215000Y-93898061D01*
X153215000Y-94101939D01*
X153254774Y-94301898D01*
X153332795Y-94490256D01*
X153446063Y-94659774D01*
X153590226Y-94803937D01*
X153759744Y-94917205D01*
X153948102Y-94995226D01*
X154148061Y-95035000D01*
X154351939Y-95035000D01*
X154551898Y-94995226D01*
X154740256Y-94917205D01*
X154909774Y-94803937D01*
X155053937Y-94659774D01*
X155167205Y-94490256D01*
X155245226Y-94301898D01*
X155285000Y-94101939D01*
X155285000Y-93898061D01*
X155245226Y-93698102D01*
X155167205Y-93509744D01*
X155053937Y-93340226D01*
X154909774Y-93196063D01*
X154740256Y-93082795D01*
X154551898Y-93004774D01*
X154351939Y-92965000D01*
X154148061Y-92965000D01*
X153948102Y-93004774D01*
X153759744Y-93082795D01*
X153590226Y-93196063D01*
X153446063Y-93340226D01*
X153332795Y-93509744D01*
X153254774Y-93698102D01*
X153215000Y-93898061D01*
X153127000Y-93898061D01*
X153127000Y-85127000D01*
X158000000Y-85127000D01*
X158024776Y-85124560D01*
X158048601Y-85117333D01*
X158070557Y-85105597D01*
X158089803Y-85089803D01*
X158105597Y-85070557D01*
X158117333Y-85048601D01*
X158124560Y-85024776D01*
X158127000Y-85000000D01*
X158127000Y-84000000D01*
X158124560Y-83975224D01*
X158117333Y-83951399D01*
X158105597Y-83929443D01*
X158089803Y-83910197D01*
X158070557Y-83894403D01*
X158048601Y-83882667D01*
X158024776Y-83875440D01*
X158000000Y-83873000D01*
X152000000Y-83873000D01*
X151975224Y-83875440D01*
X151951399Y-83882667D01*
X151929443Y-83894403D01*
X151910197Y-83910197D01*
X151894403Y-83929443D01*
X151882667Y-83951399D01*
X151875440Y-83975224D01*
X151873000Y-84000000D01*
X151873000Y-110000000D01*
X151875440Y-110024776D01*
X151882667Y-110048601D01*
X151894403Y-110070557D01*
X151910197Y-110089803D01*
X151929443Y-110105597D01*
X151951399Y-110117333D01*
X151975224Y-110124560D01*
X152000000Y-110127000D01*
X179340001Y-110127000D01*
X179340000Y-122226619D01*
X177726620Y-123840000D01*
X114273381Y-123840000D01*
X112660000Y-122226620D01*
X112660000Y-120700000D01*
X139561928Y-120700000D01*
X139561928Y-122300000D01*
X139574188Y-122424482D01*
X139610498Y-122544180D01*
X139669463Y-122654494D01*
X139748815Y-122751185D01*
X139845506Y-122830537D01*
X139955820Y-122889502D01*
X140075518Y-122925812D01*
X140200000Y-122938072D01*
X141800000Y-122938072D01*
X141924482Y-122925812D01*
X142044180Y-122889502D01*
X142154494Y-122830537D01*
X142251185Y-122751185D01*
X142330537Y-122654494D01*
X142389502Y-122544180D01*
X142425812Y-122424482D01*
X142426643Y-122416039D01*
X142625241Y-122614637D01*
X142860273Y-122771680D01*
X143121426Y-122879853D01*
X143398665Y-122935000D01*
X143681335Y-122935000D01*
X143958574Y-122879853D01*
X144219727Y-122771680D01*
X144454759Y-122614637D01*
X144654637Y-122414759D01*
X144810000Y-122182241D01*
X144965363Y-122414759D01*
X145165241Y-122614637D01*
X145400273Y-122771680D01*
X145661426Y-122879853D01*
X145938665Y-122935000D01*
X146221335Y-122935000D01*
X146498574Y-122879853D01*
X146759727Y-122771680D01*
X146994759Y-122614637D01*
X147194637Y-122414759D01*
X147350000Y-122182241D01*
X147505363Y-122414759D01*
X147705241Y-122614637D01*
X147940273Y-122771680D01*
X148201426Y-122879853D01*
X148478665Y-122935000D01*
X148761335Y-122935000D01*
X149038574Y-122879853D01*
X149299727Y-122771680D01*
X149534759Y-122614637D01*
X149734637Y-122414759D01*
X149890000Y-122182241D01*
X150045363Y-122414759D01*
X150245241Y-122614637D01*
X150480273Y-122771680D01*
X150741426Y-122879853D01*
X151018665Y-122935000D01*
X151301335Y-122935000D01*
X151578574Y-122879853D01*
X151839727Y-122771680D01*
X152074759Y-122614637D01*
X152274637Y-122414759D01*
X152431680Y-122179727D01*
X152436067Y-122169135D01*
X152547615Y-122355131D01*
X152736586Y-122563519D01*
X152962580Y-122731037D01*
X153216913Y-122851246D01*
X153350961Y-122891904D01*
X153573000Y-122769915D01*
X153573000Y-121627000D01*
X153827000Y-121627000D01*
X153827000Y-122769915D01*
X154049039Y-122891904D01*
X154183087Y-122851246D01*
X154437420Y-122731037D01*
X154663414Y-122563519D01*
X154852385Y-122355131D01*
X154970000Y-122159018D01*
X155087615Y-122355131D01*
X155276586Y-122563519D01*
X155502580Y-122731037D01*
X155756913Y-122851246D01*
X155890961Y-122891904D01*
X156113000Y-122769915D01*
X156113000Y-121627000D01*
X153827000Y-121627000D01*
X153573000Y-121627000D01*
X153553000Y-121627000D01*
X153553000Y-121373000D01*
X153573000Y-121373000D01*
X153573000Y-120230085D01*
X153827000Y-120230085D01*
X153827000Y-121373000D01*
X156113000Y-121373000D01*
X156113000Y-120230085D01*
X156367000Y-120230085D01*
X156367000Y-121373000D01*
X156387000Y-121373000D01*
X156387000Y-121627000D01*
X156367000Y-121627000D01*
X156367000Y-122769915D01*
X156589039Y-122891904D01*
X156723087Y-122851246D01*
X156977420Y-122731037D01*
X157203414Y-122563519D01*
X157392385Y-122355131D01*
X157503933Y-122169135D01*
X157508320Y-122179727D01*
X157665363Y-122414759D01*
X157865241Y-122614637D01*
X158100273Y-122771680D01*
X158361426Y-122879853D01*
X158638665Y-122935000D01*
X158921335Y-122935000D01*
X159198574Y-122879853D01*
X159459727Y-122771680D01*
X159694759Y-122614637D01*
X159894637Y-122414759D01*
X160051680Y-122179727D01*
X160159853Y-121918574D01*
X160215000Y-121641335D01*
X160215000Y-121358665D01*
X162425000Y-121358665D01*
X162425000Y-121641335D01*
X162480147Y-121918574D01*
X162588320Y-122179727D01*
X162745363Y-122414759D01*
X162945241Y-122614637D01*
X163180273Y-122771680D01*
X163441426Y-122879853D01*
X163718665Y-122935000D01*
X164001335Y-122935000D01*
X164278574Y-122879853D01*
X164539727Y-122771680D01*
X164774759Y-122614637D01*
X164974637Y-122414759D01*
X165130000Y-122182241D01*
X165285363Y-122414759D01*
X165485241Y-122614637D01*
X165720273Y-122771680D01*
X165981426Y-122879853D01*
X166258665Y-122935000D01*
X166541335Y-122935000D01*
X166818574Y-122879853D01*
X167079727Y-122771680D01*
X167314759Y-122614637D01*
X167514637Y-122414759D01*
X167670000Y-122182241D01*
X167825363Y-122414759D01*
X168025241Y-122614637D01*
X168260273Y-122771680D01*
X168521426Y-122879853D01*
X168798665Y-122935000D01*
X169081335Y-122935000D01*
X169358574Y-122879853D01*
X169619727Y-122771680D01*
X169854759Y-122614637D01*
X170054637Y-122414759D01*
X170210000Y-122182241D01*
X170365363Y-122414759D01*
X170565241Y-122614637D01*
X170800273Y-122771680D01*
X171061426Y-122879853D01*
X171338665Y-122935000D01*
X171621335Y-122935000D01*
X171898574Y-122879853D01*
X172159727Y-122771680D01*
X172394759Y-122614637D01*
X172594637Y-122414759D01*
X172750000Y-122182241D01*
X172905363Y-122414759D01*
X173105241Y-122614637D01*
X173340273Y-122771680D01*
X173601426Y-122879853D01*
X173878665Y-122935000D01*
X174161335Y-122935000D01*
X174438574Y-122879853D01*
X174699727Y-122771680D01*
X174934759Y-122614637D01*
X175134637Y-122414759D01*
X175290000Y-122182241D01*
X175445363Y-122414759D01*
X175645241Y-122614637D01*
X175880273Y-122771680D01*
X176141426Y-122879853D01*
X176418665Y-122935000D01*
X176701335Y-122935000D01*
X176978574Y-122879853D01*
X177239727Y-122771680D01*
X177474759Y-122614637D01*
X177674637Y-122414759D01*
X177831680Y-122179727D01*
X177939853Y-121918574D01*
X177995000Y-121641335D01*
X177995000Y-121358665D01*
X177939853Y-121081426D01*
X177831680Y-120820273D01*
X177674637Y-120585241D01*
X177474759Y-120385363D01*
X177239727Y-120228320D01*
X176978574Y-120120147D01*
X176701335Y-120065000D01*
X176418665Y-120065000D01*
X176141426Y-120120147D01*
X175880273Y-120228320D01*
X175645241Y-120385363D01*
X175445363Y-120585241D01*
X175290000Y-120817759D01*
X175134637Y-120585241D01*
X174934759Y-120385363D01*
X174699727Y-120228320D01*
X174438574Y-120120147D01*
X174161335Y-120065000D01*
X173878665Y-120065000D01*
X173601426Y-120120147D01*
X173340273Y-120228320D01*
X173105241Y-120385363D01*
X172905363Y-120585241D01*
X172750000Y-120817759D01*
X172594637Y-120585241D01*
X172394759Y-120385363D01*
X172159727Y-120228320D01*
X171898574Y-120120147D01*
X171621335Y-120065000D01*
X171338665Y-120065000D01*
X171061426Y-120120147D01*
X170800273Y-120228320D01*
X170565241Y-120385363D01*
X170365363Y-120585241D01*
X170210000Y-120817759D01*
X170054637Y-120585241D01*
X169854759Y-120385363D01*
X169619727Y-120228320D01*
X169358574Y-120120147D01*
X169081335Y-120065000D01*
X168798665Y-120065000D01*
X168521426Y-120120147D01*
X168260273Y-120228320D01*
X168025241Y-120385363D01*
X167825363Y-120585241D01*
X167670000Y-120817759D01*
X167514637Y-120585241D01*
X167314759Y-120385363D01*
X167079727Y-120228320D01*
X166818574Y-120120147D01*
X166541335Y-120065000D01*
X166258665Y-120065000D01*
X165981426Y-120120147D01*
X165720273Y-120228320D01*
X165485241Y-120385363D01*
X165285363Y-120585241D01*
X165130000Y-120817759D01*
X164974637Y-120585241D01*
X164774759Y-120385363D01*
X164539727Y-120228320D01*
X164278574Y-120120147D01*
X164001335Y-120065000D01*
X163718665Y-120065000D01*
X163441426Y-120120147D01*
X163180273Y-120228320D01*
X162945241Y-120385363D01*
X162745363Y-120585241D01*
X162588320Y-120820273D01*
X162480147Y-121081426D01*
X162425000Y-121358665D01*
X160215000Y-121358665D01*
X160159853Y-121081426D01*
X160051680Y-120820273D01*
X159894637Y-120585241D01*
X159694759Y-120385363D01*
X159459727Y-120228320D01*
X159198574Y-120120147D01*
X158921335Y-120065000D01*
X158638665Y-120065000D01*
X158361426Y-120120147D01*
X158100273Y-120228320D01*
X157865241Y-120385363D01*
X157665363Y-120585241D01*
X157508320Y-120820273D01*
X157503933Y-120830865D01*
X157392385Y-120644869D01*
X157203414Y-120436481D01*
X156977420Y-120268963D01*
X156723087Y-120148754D01*
X156589039Y-120108096D01*
X156367000Y-120230085D01*
X156113000Y-120230085D01*
X155890961Y-120108096D01*
X155756913Y-120148754D01*
X155502580Y-120268963D01*
X155276586Y-120436481D01*
X155087615Y-120644869D01*
X154970000Y-120840982D01*
X154852385Y-120644869D01*
X154663414Y-120436481D01*
X154437420Y-120268963D01*
X154183087Y-120148754D01*
X154049039Y-120108096D01*
X153827000Y-120230085D01*
X153573000Y-120230085D01*
X153350961Y-120108096D01*
X153216913Y-120148754D01*
X152962580Y-120268963D01*
X152736586Y-120436481D01*
X152547615Y-120644869D01*
X152436067Y-120830865D01*
X152431680Y-120820273D01*
X152274637Y-120585241D01*
X152074759Y-120385363D01*
X151839727Y-120228320D01*
X151578574Y-120120147D01*
X151301335Y-120065000D01*
X151018665Y-120065000D01*
X150741426Y-120120147D01*
X150480273Y-120228320D01*
X150245241Y-120385363D01*
X150045363Y-120585241D01*
X149890000Y-120817759D01*
X149734637Y-120585241D01*
X149534759Y-120385363D01*
X149299727Y-120228320D01*
X149038574Y-120120147D01*
X148761335Y-120065000D01*
X148478665Y-120065000D01*
X148201426Y-120120147D01*
X147940273Y-120228320D01*
X147705241Y-120385363D01*
X147505363Y-120585241D01*
X147350000Y-120817759D01*
X147194637Y-120585241D01*
X146994759Y-120385363D01*
X146759727Y-120228320D01*
X146498574Y-120120147D01*
X146221335Y-120065000D01*
X145938665Y-120065000D01*
X145661426Y-120120147D01*
X145400273Y-120228320D01*
X145165241Y-120385363D01*
X144965363Y-120585241D01*
X144810000Y-120817759D01*
X144654637Y-120585241D01*
X144454759Y-120385363D01*
X144219727Y-120228320D01*
X143958574Y-120120147D01*
X143681335Y-120065000D01*
X143398665Y-120065000D01*
X143121426Y-120120147D01*
X142860273Y-120228320D01*
X142625241Y-120385363D01*
X142426643Y-120583961D01*
X142425812Y-120575518D01*
X142389502Y-120455820D01*
X142330537Y-120345506D01*
X142251185Y-120248815D01*
X142154494Y-120169463D01*
X142044180Y-120110498D01*
X141924482Y-120074188D01*
X141800000Y-120061928D01*
X140200000Y-120061928D01*
X140075518Y-120074188D01*
X139955820Y-120110498D01*
X139845506Y-120169463D01*
X139748815Y-120248815D01*
X139669463Y-120345506D01*
X139610498Y-120455820D01*
X139574188Y-120575518D01*
X139561928Y-120700000D01*
X112660000Y-120700000D01*
X112660000Y-107085000D01*
X122951928Y-107085000D01*
X122955000Y-107624250D01*
X123030086Y-107699336D01*
X123030426Y-107701061D01*
X123100592Y-107871351D01*
X123102237Y-107874425D01*
X123242444Y-107882052D01*
X123270392Y-107910000D01*
X123242444Y-107937948D01*
X123102237Y-107945575D01*
X123031438Y-108115603D01*
X123030506Y-108120244D01*
X122955000Y-108195750D01*
X122951928Y-108735000D01*
X122964188Y-108859482D01*
X123000498Y-108979180D01*
X123059463Y-109089494D01*
X123138815Y-109186185D01*
X123235506Y-109265537D01*
X123345820Y-109324502D01*
X123465518Y-109360812D01*
X123590000Y-109373072D01*
X124504250Y-109370000D01*
X124663000Y-109211250D01*
X124663000Y-108984820D01*
X124683714Y-108964106D01*
X124663000Y-108943392D01*
X124663000Y-108839580D01*
X124668544Y-108839278D01*
X124696176Y-108844828D01*
X124880355Y-108845171D01*
X124910525Y-108839228D01*
X124917000Y-108839580D01*
X124917000Y-108943392D01*
X124896286Y-108964106D01*
X124917000Y-108984820D01*
X124917000Y-109211250D01*
X125075750Y-109370000D01*
X125990000Y-109373072D01*
X126114482Y-109360812D01*
X126234180Y-109324502D01*
X126344494Y-109265537D01*
X126441185Y-109186185D01*
X126520537Y-109089494D01*
X126579502Y-108979180D01*
X126615812Y-108859482D01*
X126628072Y-108735000D01*
X126625000Y-108195750D01*
X126549914Y-108120664D01*
X126549574Y-108118939D01*
X126479408Y-107948649D01*
X126477763Y-107945575D01*
X126337556Y-107937948D01*
X126309608Y-107910000D01*
X126337556Y-107882052D01*
X126477763Y-107874425D01*
X126548562Y-107704397D01*
X126549494Y-107699756D01*
X126625000Y-107624250D01*
X126628072Y-107085000D01*
X126615812Y-106960518D01*
X126579502Y-106840820D01*
X126520537Y-106730506D01*
X126441185Y-106633815D01*
X126344494Y-106554463D01*
X126234180Y-106495498D01*
X126114482Y-106459188D01*
X125990000Y-106446928D01*
X125075750Y-106450000D01*
X124917000Y-106608750D01*
X124917000Y-106835180D01*
X124896286Y-106855894D01*
X124917000Y-106876608D01*
X124917000Y-106980420D01*
X124911456Y-106980722D01*
X124883824Y-106975172D01*
X124699645Y-106974829D01*
X124669475Y-106980772D01*
X124663000Y-106980420D01*
X124663000Y-106876608D01*
X124683714Y-106855894D01*
X124663000Y-106835180D01*
X124663000Y-106608750D01*
X124504250Y-106450000D01*
X123590000Y-106446928D01*
X123465518Y-106459188D01*
X123345820Y-106495498D01*
X123235506Y-106554463D01*
X123138815Y-106633815D01*
X123059463Y-106730506D01*
X123000498Y-106840820D01*
X122964188Y-106960518D01*
X122951928Y-107085000D01*
X112660000Y-107085000D01*
X112660000Y-100398061D01*
X141715000Y-100398061D01*
X141715000Y-100601939D01*
X141754774Y-100801898D01*
X141832795Y-100990256D01*
X141839306Y-101000000D01*
X141832795Y-101009744D01*
X141754774Y-101198102D01*
X141715000Y-101398061D01*
X141715000Y-101601939D01*
X141754774Y-101801898D01*
X141832795Y-101990256D01*
X141946063Y-102159774D01*
X142090226Y-102303937D01*
X142259744Y-102417205D01*
X142448102Y-102495226D01*
X142648061Y-102535000D01*
X142851939Y-102535000D01*
X143051898Y-102495226D01*
X143240256Y-102417205D01*
X143250000Y-102410694D01*
X143259744Y-102417205D01*
X143448102Y-102495226D01*
X143648061Y-102535000D01*
X143851939Y-102535000D01*
X144051898Y-102495226D01*
X144240256Y-102417205D01*
X144409774Y-102303937D01*
X144553937Y-102159774D01*
X144667205Y-101990256D01*
X144745226Y-101801898D01*
X144785000Y-101601939D01*
X144785000Y-101398061D01*
X144745226Y-101198102D01*
X144667205Y-101009744D01*
X144660694Y-101000000D01*
X144667205Y-100990256D01*
X144745226Y-100801898D01*
X144785000Y-100601939D01*
X144785000Y-100398061D01*
X144745226Y-100198102D01*
X144667205Y-100009744D01*
X144553937Y-99840226D01*
X144409774Y-99696063D01*
X144240256Y-99582795D01*
X144051898Y-99504774D01*
X143851939Y-99465000D01*
X143648061Y-99465000D01*
X143448102Y-99504774D01*
X143259744Y-99582795D01*
X143250000Y-99589306D01*
X143240256Y-99582795D01*
X143051898Y-99504774D01*
X142851939Y-99465000D01*
X142648061Y-99465000D01*
X142448102Y-99504774D01*
X142259744Y-99582795D01*
X142090226Y-99696063D01*
X141946063Y-99840226D01*
X141832795Y-100009744D01*
X141754774Y-100198102D01*
X141715000Y-100398061D01*
X112660000Y-100398061D01*
X112660000Y-98148061D01*
X133715000Y-98148061D01*
X133715000Y-98351939D01*
X133754774Y-98551898D01*
X133832795Y-98740256D01*
X133839306Y-98750000D01*
X133832795Y-98759744D01*
X133754774Y-98948102D01*
X133715000Y-99148061D01*
X133715000Y-99351939D01*
X133754774Y-99551898D01*
X133832795Y-99740256D01*
X133946063Y-99909774D01*
X134090226Y-100053937D01*
X134259744Y-100167205D01*
X134448102Y-100245226D01*
X134648061Y-100285000D01*
X134851939Y-100285000D01*
X135051898Y-100245226D01*
X135240256Y-100167205D01*
X135250000Y-100160694D01*
X135259744Y-100167205D01*
X135448102Y-100245226D01*
X135648061Y-100285000D01*
X135851939Y-100285000D01*
X136051898Y-100245226D01*
X136240256Y-100167205D01*
X136409774Y-100053937D01*
X136553937Y-99909774D01*
X136667205Y-99740256D01*
X136745226Y-99551898D01*
X136785000Y-99351939D01*
X136785000Y-99148061D01*
X136745226Y-98948102D01*
X136667205Y-98759744D01*
X136660694Y-98750000D01*
X136667205Y-98740256D01*
X136745226Y-98551898D01*
X136785000Y-98351939D01*
X136785000Y-98148061D01*
X136745226Y-97948102D01*
X136667205Y-97759744D01*
X136592582Y-97648061D01*
X143965000Y-97648061D01*
X143965000Y-97851939D01*
X144004774Y-98051898D01*
X144082795Y-98240256D01*
X144196063Y-98409774D01*
X144340226Y-98553937D01*
X144509744Y-98667205D01*
X144698102Y-98745226D01*
X144898061Y-98785000D01*
X145101939Y-98785000D01*
X145301898Y-98745226D01*
X145490256Y-98667205D01*
X145659774Y-98553937D01*
X145803937Y-98409774D01*
X145917205Y-98240256D01*
X145995226Y-98051898D01*
X146035000Y-97851939D01*
X146035000Y-97648061D01*
X145995226Y-97448102D01*
X145917205Y-97259744D01*
X145803937Y-97090226D01*
X145659774Y-96946063D01*
X145490256Y-96832795D01*
X145301898Y-96754774D01*
X145101939Y-96715000D01*
X144898061Y-96715000D01*
X144698102Y-96754774D01*
X144509744Y-96832795D01*
X144340226Y-96946063D01*
X144196063Y-97090226D01*
X144082795Y-97259744D01*
X144004774Y-97448102D01*
X143965000Y-97648061D01*
X136592582Y-97648061D01*
X136553937Y-97590226D01*
X136409774Y-97446063D01*
X136240256Y-97332795D01*
X136051898Y-97254774D01*
X135851939Y-97215000D01*
X135648061Y-97215000D01*
X135448102Y-97254774D01*
X135259744Y-97332795D01*
X135250000Y-97339306D01*
X135240256Y-97332795D01*
X135051898Y-97254774D01*
X134851939Y-97215000D01*
X134648061Y-97215000D01*
X134448102Y-97254774D01*
X134259744Y-97332795D01*
X134090226Y-97446063D01*
X133946063Y-97590226D01*
X133832795Y-97759744D01*
X133754774Y-97948102D01*
X133715000Y-98148061D01*
X112660000Y-98148061D01*
X112660000Y-85148061D01*
X143965000Y-85148061D01*
X143965000Y-85351939D01*
X144004774Y-85551898D01*
X144082795Y-85740256D01*
X144196063Y-85909774D01*
X144340226Y-86053937D01*
X144509744Y-86167205D01*
X144698102Y-86245226D01*
X144898061Y-86285000D01*
X145101939Y-86285000D01*
X145301898Y-86245226D01*
X145490256Y-86167205D01*
X145659774Y-86053937D01*
X145803937Y-85909774D01*
X145917205Y-85740256D01*
X145995226Y-85551898D01*
X146035000Y-85351939D01*
X146035000Y-85148061D01*
X145995226Y-84948102D01*
X145917205Y-84759744D01*
X145803937Y-84590226D01*
X145659774Y-84446063D01*
X145490256Y-84332795D01*
X145301898Y-84254774D01*
X145101939Y-84215000D01*
X144898061Y-84215000D01*
X144698102Y-84254774D01*
X144509744Y-84332795D01*
X144340226Y-84446063D01*
X144196063Y-84590226D01*
X144082795Y-84759744D01*
X144004774Y-84948102D01*
X143965000Y-85148061D01*
X112660000Y-85148061D01*
X112660000Y-82148061D01*
X134215000Y-82148061D01*
X134215000Y-82351939D01*
X134254774Y-82551898D01*
X134332795Y-82740256D01*
X134339306Y-82750000D01*
X134332795Y-82759744D01*
X134254774Y-82948102D01*
X134215000Y-83148061D01*
X134215000Y-83351939D01*
X134254774Y-83551898D01*
X134332795Y-83740256D01*
X134446063Y-83909774D01*
X134590226Y-84053937D01*
X134759744Y-84167205D01*
X134948102Y-84245226D01*
X135148061Y-84285000D01*
X135351939Y-84285000D01*
X135551898Y-84245226D01*
X135740256Y-84167205D01*
X135750000Y-84160694D01*
X135759744Y-84167205D01*
X135948102Y-84245226D01*
X136148061Y-84285000D01*
X136351939Y-84285000D01*
X136551898Y-84245226D01*
X136740256Y-84167205D01*
X136909774Y-84053937D01*
X137053937Y-83909774D01*
X137167205Y-83740256D01*
X137245226Y-83551898D01*
X137285000Y-83351939D01*
X137285000Y-83148061D01*
X137245226Y-82948102D01*
X137167205Y-82759744D01*
X137160694Y-82750000D01*
X137167205Y-82740256D01*
X137245226Y-82551898D01*
X137285000Y-82351939D01*
X137285000Y-82148061D01*
X137245226Y-81948102D01*
X137167205Y-81759744D01*
X137053937Y-81590226D01*
X136909774Y-81446063D01*
X136740256Y-81332795D01*
X136551898Y-81254774D01*
X136351939Y-81215000D01*
X136148061Y-81215000D01*
X135948102Y-81254774D01*
X135759744Y-81332795D01*
X135750000Y-81339306D01*
X135740256Y-81332795D01*
X135551898Y-81254774D01*
X135351939Y-81215000D01*
X135148061Y-81215000D01*
X134948102Y-81254774D01*
X134759744Y-81332795D01*
X134590226Y-81446063D01*
X134446063Y-81590226D01*
X134332795Y-81759744D01*
X134254774Y-81948102D01*
X134215000Y-82148061D01*
X112660000Y-82148061D01*
X112660000Y-78648061D01*
X147715000Y-78648061D01*
X147715000Y-78851939D01*
X147754774Y-79051898D01*
X147832795Y-79240256D01*
X147946063Y-79409774D01*
X148090226Y-79553937D01*
X148259744Y-79667205D01*
X148448102Y-79745226D01*
X148648061Y-79785000D01*
X148851939Y-79785000D01*
X149051898Y-79745226D01*
X149240256Y-79667205D01*
X149409774Y-79553937D01*
X149553937Y-79409774D01*
X149667205Y-79240256D01*
X149745226Y-79051898D01*
X149785000Y-78851939D01*
X149785000Y-78648061D01*
X153715000Y-78648061D01*
X153715000Y-78851939D01*
X153754774Y-79051898D01*
X153832795Y-79240256D01*
X153946063Y-79409774D01*
X154090226Y-79553937D01*
X154259744Y-79667205D01*
X154448102Y-79745226D01*
X154648061Y-79785000D01*
X154851939Y-79785000D01*
X155051898Y-79745226D01*
X155240256Y-79667205D01*
X155409774Y-79553937D01*
X155553937Y-79409774D01*
X155667205Y-79240256D01*
X155745226Y-79051898D01*
X155785000Y-78851939D01*
X155785000Y-78648061D01*
X159715000Y-78648061D01*
X159715000Y-78851939D01*
X159754774Y-79051898D01*
X159832795Y-79240256D01*
X159946063Y-79409774D01*
X160090226Y-79553937D01*
X160259744Y-79667205D01*
X160448102Y-79745226D01*
X160648061Y-79785000D01*
X160851939Y-79785000D01*
X161051898Y-79745226D01*
X161240256Y-79667205D01*
X161409774Y-79553937D01*
X161553937Y-79409774D01*
X161667205Y-79240256D01*
X161745226Y-79051898D01*
X161785000Y-78851939D01*
X161785000Y-78648061D01*
X161745226Y-78448102D01*
X161667205Y-78259744D01*
X161553937Y-78090226D01*
X161409774Y-77946063D01*
X161240256Y-77832795D01*
X161051898Y-77754774D01*
X160851939Y-77715000D01*
X160648061Y-77715000D01*
X160448102Y-77754774D01*
X160259744Y-77832795D01*
X160090226Y-77946063D01*
X159946063Y-78090226D01*
X159832795Y-78259744D01*
X159754774Y-78448102D01*
X159715000Y-78648061D01*
X155785000Y-78648061D01*
X155745226Y-78448102D01*
X155667205Y-78259744D01*
X155553937Y-78090226D01*
X155409774Y-77946063D01*
X155240256Y-77832795D01*
X155051898Y-77754774D01*
X154851939Y-77715000D01*
X154648061Y-77715000D01*
X154448102Y-77754774D01*
X154259744Y-77832795D01*
X154090226Y-77946063D01*
X153946063Y-78090226D01*
X153832795Y-78259744D01*
X153754774Y-78448102D01*
X153715000Y-78648061D01*
X149785000Y-78648061D01*
X149745226Y-78448102D01*
X149667205Y-78259744D01*
X149553937Y-78090226D01*
X149409774Y-77946063D01*
X149240256Y-77832795D01*
X149051898Y-77754774D01*
X148851939Y-77715000D01*
X148648061Y-77715000D01*
X148448102Y-77754774D01*
X148259744Y-77832795D01*
X148090226Y-77946063D01*
X147946063Y-78090226D01*
X147832795Y-78259744D01*
X147754774Y-78448102D01*
X147715000Y-78648061D01*
X112660000Y-78648061D01*
X112660000Y-73098665D01*
X130425000Y-73098665D01*
X130425000Y-73381335D01*
X130480147Y-73658574D01*
X130588320Y-73919727D01*
X130745363Y-74154759D01*
X130945241Y-74354637D01*
X131180273Y-74511680D01*
X131441426Y-74619853D01*
X131718665Y-74675000D01*
X132001335Y-74675000D01*
X132278574Y-74619853D01*
X132539727Y-74511680D01*
X132774759Y-74354637D01*
X132974637Y-74154759D01*
X133130000Y-73922241D01*
X133285363Y-74154759D01*
X133485241Y-74354637D01*
X133720273Y-74511680D01*
X133981426Y-74619853D01*
X134258665Y-74675000D01*
X134541335Y-74675000D01*
X134818574Y-74619853D01*
X135079727Y-74511680D01*
X135314759Y-74354637D01*
X135514637Y-74154759D01*
X135670000Y-73922241D01*
X135825363Y-74154759D01*
X136025241Y-74354637D01*
X136260273Y-74511680D01*
X136521426Y-74619853D01*
X136798665Y-74675000D01*
X137081335Y-74675000D01*
X137358574Y-74619853D01*
X137619727Y-74511680D01*
X137854759Y-74354637D01*
X138054637Y-74154759D01*
X138211680Y-73919727D01*
X138216067Y-73909135D01*
X138327615Y-74095131D01*
X138516586Y-74303519D01*
X138742580Y-74471037D01*
X138996913Y-74591246D01*
X139130961Y-74631904D01*
X139353000Y-74509915D01*
X139353000Y-73367000D01*
X139333000Y-73367000D01*
X139333000Y-73113000D01*
X139353000Y-73113000D01*
X139353000Y-71970085D01*
X139130961Y-71848096D01*
X138996913Y-71888754D01*
X138742580Y-72008963D01*
X138516586Y-72176481D01*
X138327615Y-72384869D01*
X138216067Y-72570865D01*
X138211680Y-72560273D01*
X138054637Y-72325241D01*
X137854759Y-72125363D01*
X137619727Y-71968320D01*
X137358574Y-71860147D01*
X137081335Y-71805000D01*
X136798665Y-71805000D01*
X136521426Y-71860147D01*
X136260273Y-71968320D01*
X136025241Y-72125363D01*
X135825363Y-72325241D01*
X135670000Y-72557759D01*
X135514637Y-72325241D01*
X135314759Y-72125363D01*
X135079727Y-71968320D01*
X134818574Y-71860147D01*
X134541335Y-71805000D01*
X134258665Y-71805000D01*
X133981426Y-71860147D01*
X133720273Y-71968320D01*
X133485241Y-72125363D01*
X133285363Y-72325241D01*
X133130000Y-72557759D01*
X132974637Y-72325241D01*
X132774759Y-72125363D01*
X132539727Y-71968320D01*
X132278574Y-71860147D01*
X132001335Y-71805000D01*
X131718665Y-71805000D01*
X131441426Y-71860147D01*
X131180273Y-71968320D01*
X130945241Y-72125363D01*
X130745363Y-72325241D01*
X130588320Y-72560273D01*
X130480147Y-72821426D01*
X130425000Y-73098665D01*
X112660000Y-73098665D01*
X112660000Y-72773380D01*
X114273381Y-71160000D01*
X143025198Y-71160000D01*
X142343886Y-71841312D01*
G36*
X124820592Y-107871351D02*
G01*
X124822237Y-107874425D01*
X124962444Y-107882052D01*
X124979999Y-107899607D01*
X124969605Y-107910000D01*
X124979999Y-107920394D01*
X124962444Y-107937948D01*
X124822237Y-107945575D01*
X124790021Y-108022945D01*
X124759408Y-107948649D01*
X124757763Y-107945575D01*
X124617556Y-107937948D01*
X124600002Y-107920394D01*
X124610395Y-107910000D01*
X124600002Y-107899607D01*
X124617556Y-107882052D01*
X124757763Y-107874425D01*
X124789979Y-107797055D01*
X124820592Y-107871351D01*
G37*
X124820592Y-107871351D02*
X124822237Y-107874425D01*
X124962444Y-107882052D01*
X124979999Y-107899607D01*
X124969605Y-107910000D01*
X124979999Y-107920394D01*
X124962444Y-107937948D01*
X124822237Y-107945575D01*
X124790021Y-108022945D01*
X124759408Y-107948649D01*
X124757763Y-107945575D01*
X124617556Y-107937948D01*
X124600002Y-107920394D01*
X124610395Y-107910000D01*
X124600002Y-107899607D01*
X124617556Y-107882052D01*
X124757763Y-107874425D01*
X124789979Y-107797055D01*
X124820592Y-107871351D01*
G36*
X172905363Y-74154759D02*
G01*
X173105241Y-74354637D01*
X173340273Y-74511680D01*
X173601426Y-74619853D01*
X173878665Y-74675000D01*
X174050198Y-74675000D01*
X170739003Y-77986196D01*
X170709999Y-78009999D01*
X170654871Y-78077174D01*
X170615026Y-78125724D01*
X170576339Y-78198102D01*
X170544454Y-78257754D01*
X170500997Y-78401015D01*
X170490000Y-78512668D01*
X170490000Y-78512678D01*
X170486324Y-78550000D01*
X170490000Y-78587323D01*
X170490000Y-79775308D01*
X170385334Y-79764999D01*
X170385323Y-79764999D01*
X170348001Y-79761323D01*
X170310679Y-79764999D01*
X170226212Y-79764999D01*
X169427240Y-78966029D01*
X169495226Y-78801898D01*
X169535000Y-78601939D01*
X169535000Y-78398061D01*
X169495226Y-78198102D01*
X169417205Y-78009744D01*
X169303937Y-77840226D01*
X169159774Y-77696063D01*
X168990256Y-77582795D01*
X168801898Y-77504774D01*
X168601939Y-77465000D01*
X168398061Y-77465000D01*
X168198102Y-77504774D01*
X168009744Y-77582795D01*
X167840226Y-77696063D01*
X167696063Y-77840226D01*
X167683632Y-77858830D01*
X164396010Y-74571209D01*
X164539727Y-74511680D01*
X164774759Y-74354637D01*
X164974637Y-74154759D01*
X165130000Y-73922241D01*
X165285363Y-74154759D01*
X165485241Y-74354637D01*
X165720273Y-74511680D01*
X165981426Y-74619853D01*
X166258665Y-74675000D01*
X166541335Y-74675000D01*
X166818574Y-74619853D01*
X167079727Y-74511680D01*
X167314759Y-74354637D01*
X167514637Y-74154759D01*
X167670000Y-73922241D01*
X167825363Y-74154759D01*
X168025241Y-74354637D01*
X168260273Y-74511680D01*
X168521426Y-74619853D01*
X168798665Y-74675000D01*
X169081335Y-74675000D01*
X169358574Y-74619853D01*
X169619727Y-74511680D01*
X169854759Y-74354637D01*
X170054637Y-74154759D01*
X170210000Y-73922241D01*
X170365363Y-74154759D01*
X170565241Y-74354637D01*
X170800273Y-74511680D01*
X171061426Y-74619853D01*
X171338665Y-74675000D01*
X171621335Y-74675000D01*
X171898574Y-74619853D01*
X172159727Y-74511680D01*
X172394759Y-74354637D01*
X172594637Y-74154759D01*
X172750000Y-73922241D01*
X172905363Y-74154759D01*
G37*
X172905363Y-74154759D02*
X173105241Y-74354637D01*
X173340273Y-74511680D01*
X173601426Y-74619853D01*
X173878665Y-74675000D01*
X174050198Y-74675000D01*
X170739003Y-77986196D01*
X170709999Y-78009999D01*
X170654871Y-78077174D01*
X170615026Y-78125724D01*
X170576339Y-78198102D01*
X170544454Y-78257754D01*
X170500997Y-78401015D01*
X170490000Y-78512668D01*
X170490000Y-78512678D01*
X170486324Y-78550000D01*
X170490000Y-78587323D01*
X170490000Y-79775308D01*
X170385334Y-79764999D01*
X170385323Y-79764999D01*
X170348001Y-79761323D01*
X170310679Y-79764999D01*
X170226212Y-79764999D01*
X169427240Y-78966029D01*
X169495226Y-78801898D01*
X169535000Y-78601939D01*
X169535000Y-78398061D01*
X169495226Y-78198102D01*
X169417205Y-78009744D01*
X169303937Y-77840226D01*
X169159774Y-77696063D01*
X168990256Y-77582795D01*
X168801898Y-77504774D01*
X168601939Y-77465000D01*
X168398061Y-77465000D01*
X168198102Y-77504774D01*
X168009744Y-77582795D01*
X167840226Y-77696063D01*
X167696063Y-77840226D01*
X167683632Y-77858830D01*
X164396010Y-74571209D01*
X164539727Y-74511680D01*
X164774759Y-74354637D01*
X164974637Y-74154759D01*
X165130000Y-73922241D01*
X165285363Y-74154759D01*
X165485241Y-74354637D01*
X165720273Y-74511680D01*
X165981426Y-74619853D01*
X166258665Y-74675000D01*
X166541335Y-74675000D01*
X166818574Y-74619853D01*
X167079727Y-74511680D01*
X167314759Y-74354637D01*
X167514637Y-74154759D01*
X167670000Y-73922241D01*
X167825363Y-74154759D01*
X168025241Y-74354637D01*
X168260273Y-74511680D01*
X168521426Y-74619853D01*
X168798665Y-74675000D01*
X169081335Y-74675000D01*
X169358574Y-74619853D01*
X169619727Y-74511680D01*
X169854759Y-74354637D01*
X170054637Y-74154759D01*
X170210000Y-73922241D01*
X170365363Y-74154759D01*
X170565241Y-74354637D01*
X170800273Y-74511680D01*
X171061426Y-74619853D01*
X171338665Y-74675000D01*
X171621335Y-74675000D01*
X171898574Y-74619853D01*
X172159727Y-74511680D01*
X172394759Y-74354637D01*
X172594637Y-74154759D01*
X172750000Y-73922241D01*
X172905363Y-74154759D01*
%TD*%
M02*
