%TF.GenerationSoftware,KiCad,Pcbnew,(5.1.6)-1*%
%TF.CreationDate,2020-06-24T23:25:01+02:00*%
%TF.ProjectId,phtodiode_adc,7068746f-6469-46f6-9465-5f6164632e6b,rev?*%
%TF.SameCoordinates,Original*%
%TF.FileFunction,Paste,Top*%
%TF.FilePolarity,Positive*%
%FSLAX46Y46*%
G04 Gerber Fmt 4.6, Leading zero omitted, Abs format (unit mm)*
G04 Created by KiCad (PCBNEW (5.1.6)-1) date 2020-06-24 23:25:01*
%MOMM*%
%LPD*%
G01*
G04 APERTURE LIST*
%ADD10R,1.400000X1.300000*%
%ADD11R,1.350000X3.400000*%
%ADD12R,0.280000X0.850000*%
%ADD13R,0.640000X0.640000*%
%ADD14R,0.700000X0.280000*%
%ADD15R,4.600000X1.100000*%
%ADD16R,4.550000X5.250000*%
%ADD17R,1.800000X2.000000*%
G04 APERTURE END LIST*
%TO.C,C3*%
G36*
G01*
X135762500Y-111625000D02*
X135762500Y-110375000D01*
G75*
G02*
X136012500Y-110125000I250000J0D01*
G01*
X136937500Y-110125000D01*
G75*
G02*
X137187500Y-110375000I0J-250000D01*
G01*
X137187500Y-111625000D01*
G75*
G02*
X136937500Y-111875000I-250000J0D01*
G01*
X136012500Y-111875000D01*
G75*
G02*
X135762500Y-111625000I0J250000D01*
G01*
G37*
G36*
G01*
X132787500Y-111625000D02*
X132787500Y-110375000D01*
G75*
G02*
X133037500Y-110125000I250000J0D01*
G01*
X133962500Y-110125000D01*
G75*
G02*
X134212500Y-110375000I0J-250000D01*
G01*
X134212500Y-111625000D01*
G75*
G02*
X133962500Y-111875000I-250000J0D01*
G01*
X133037500Y-111875000D01*
G75*
G02*
X132787500Y-111625000I0J250000D01*
G01*
G37*
%TD*%
%TO.C,C1*%
G36*
G01*
X118737500Y-102650000D02*
X118262500Y-102650000D01*
G75*
G02*
X118025000Y-102412500I0J237500D01*
G01*
X118025000Y-101837500D01*
G75*
G02*
X118262500Y-101600000I237500J0D01*
G01*
X118737500Y-101600000D01*
G75*
G02*
X118975000Y-101837500I0J-237500D01*
G01*
X118975000Y-102412500D01*
G75*
G02*
X118737500Y-102650000I-237500J0D01*
G01*
G37*
G36*
G01*
X118737500Y-104400000D02*
X118262500Y-104400000D01*
G75*
G02*
X118025000Y-104162500I0J237500D01*
G01*
X118025000Y-103587500D01*
G75*
G02*
X118262500Y-103350000I237500J0D01*
G01*
X118737500Y-103350000D01*
G75*
G02*
X118975000Y-103587500I0J-237500D01*
G01*
X118975000Y-104162500D01*
G75*
G02*
X118737500Y-104400000I-237500J0D01*
G01*
G37*
%TD*%
%TO.C,C2*%
G36*
G01*
X122737500Y-104400000D02*
X122262500Y-104400000D01*
G75*
G02*
X122025000Y-104162500I0J237500D01*
G01*
X122025000Y-103587500D01*
G75*
G02*
X122262500Y-103350000I237500J0D01*
G01*
X122737500Y-103350000D01*
G75*
G02*
X122975000Y-103587500I0J-237500D01*
G01*
X122975000Y-104162500D01*
G75*
G02*
X122737500Y-104400000I-237500J0D01*
G01*
G37*
G36*
G01*
X122737500Y-102650000D02*
X122262500Y-102650000D01*
G75*
G02*
X122025000Y-102412500I0J237500D01*
G01*
X122025000Y-101837500D01*
G75*
G02*
X122262500Y-101600000I237500J0D01*
G01*
X122737500Y-101600000D01*
G75*
G02*
X122975000Y-101837500I0J-237500D01*
G01*
X122975000Y-102412500D01*
G75*
G02*
X122737500Y-102650000I-237500J0D01*
G01*
G37*
%TD*%
%TO.C,C4*%
G36*
G01*
X133600000Y-108737500D02*
X133600000Y-108262500D01*
G75*
G02*
X133837500Y-108025000I237500J0D01*
G01*
X134412500Y-108025000D01*
G75*
G02*
X134650000Y-108262500I0J-237500D01*
G01*
X134650000Y-108737500D01*
G75*
G02*
X134412500Y-108975000I-237500J0D01*
G01*
X133837500Y-108975000D01*
G75*
G02*
X133600000Y-108737500I0J237500D01*
G01*
G37*
G36*
G01*
X135350000Y-108737500D02*
X135350000Y-108262500D01*
G75*
G02*
X135587500Y-108025000I237500J0D01*
G01*
X136162500Y-108025000D01*
G75*
G02*
X136400000Y-108262500I0J-237500D01*
G01*
X136400000Y-108737500D01*
G75*
G02*
X136162500Y-108975000I-237500J0D01*
G01*
X135587500Y-108975000D01*
G75*
G02*
X135350000Y-108737500I0J237500D01*
G01*
G37*
%TD*%
%TO.C,C5*%
G36*
G01*
X135350000Y-106737500D02*
X135350000Y-106262500D01*
G75*
G02*
X135587500Y-106025000I237500J0D01*
G01*
X136162500Y-106025000D01*
G75*
G02*
X136400000Y-106262500I0J-237500D01*
G01*
X136400000Y-106737500D01*
G75*
G02*
X136162500Y-106975000I-237500J0D01*
G01*
X135587500Y-106975000D01*
G75*
G02*
X135350000Y-106737500I0J237500D01*
G01*
G37*
G36*
G01*
X133600000Y-106737500D02*
X133600000Y-106262500D01*
G75*
G02*
X133837500Y-106025000I237500J0D01*
G01*
X134412500Y-106025000D01*
G75*
G02*
X134650000Y-106262500I0J-237500D01*
G01*
X134650000Y-106737500D01*
G75*
G02*
X134412500Y-106975000I-237500J0D01*
G01*
X133837500Y-106975000D01*
G75*
G02*
X133600000Y-106737500I0J237500D01*
G01*
G37*
%TD*%
%TO.C,C6*%
G36*
G01*
X136400000Y-102262500D02*
X136400000Y-102737500D01*
G75*
G02*
X136162500Y-102975000I-237500J0D01*
G01*
X135587500Y-102975000D01*
G75*
G02*
X135350000Y-102737500I0J237500D01*
G01*
X135350000Y-102262500D01*
G75*
G02*
X135587500Y-102025000I237500J0D01*
G01*
X136162500Y-102025000D01*
G75*
G02*
X136400000Y-102262500I0J-237500D01*
G01*
G37*
G36*
G01*
X134650000Y-102262500D02*
X134650000Y-102737500D01*
G75*
G02*
X134412500Y-102975000I-237500J0D01*
G01*
X133837500Y-102975000D01*
G75*
G02*
X133600000Y-102737500I0J237500D01*
G01*
X133600000Y-102262500D01*
G75*
G02*
X133837500Y-102025000I237500J0D01*
G01*
X134412500Y-102025000D01*
G75*
G02*
X134650000Y-102262500I0J-237500D01*
G01*
G37*
%TD*%
%TO.C,C7*%
G36*
G01*
X134650000Y-100262500D02*
X134650000Y-100737500D01*
G75*
G02*
X134412500Y-100975000I-237500J0D01*
G01*
X133837500Y-100975000D01*
G75*
G02*
X133600000Y-100737500I0J237500D01*
G01*
X133600000Y-100262500D01*
G75*
G02*
X133837500Y-100025000I237500J0D01*
G01*
X134412500Y-100025000D01*
G75*
G02*
X134650000Y-100262500I0J-237500D01*
G01*
G37*
G36*
G01*
X136400000Y-100262500D02*
X136400000Y-100737500D01*
G75*
G02*
X136162500Y-100975000I-237500J0D01*
G01*
X135587500Y-100975000D01*
G75*
G02*
X135350000Y-100737500I0J237500D01*
G01*
X135350000Y-100262500D01*
G75*
G02*
X135587500Y-100025000I237500J0D01*
G01*
X136162500Y-100025000D01*
G75*
G02*
X136400000Y-100262500I0J-237500D01*
G01*
G37*
%TD*%
%TO.C,C8*%
G36*
G01*
X128875000Y-108775000D02*
X130125000Y-108775000D01*
G75*
G02*
X130375000Y-109025000I0J-250000D01*
G01*
X130375000Y-109950000D01*
G75*
G02*
X130125000Y-110200000I-250000J0D01*
G01*
X128875000Y-110200000D01*
G75*
G02*
X128625000Y-109950000I0J250000D01*
G01*
X128625000Y-109025000D01*
G75*
G02*
X128875000Y-108775000I250000J0D01*
G01*
G37*
G36*
G01*
X128875000Y-105800000D02*
X130125000Y-105800000D01*
G75*
G02*
X130375000Y-106050000I0J-250000D01*
G01*
X130375000Y-106975000D01*
G75*
G02*
X130125000Y-107225000I-250000J0D01*
G01*
X128875000Y-107225000D01*
G75*
G02*
X128625000Y-106975000I0J250000D01*
G01*
X128625000Y-106050000D01*
G75*
G02*
X128875000Y-105800000I250000J0D01*
G01*
G37*
%TD*%
%TO.C,C9*%
G36*
G01*
X126900000Y-113262500D02*
X126900000Y-113737500D01*
G75*
G02*
X126662500Y-113975000I-237500J0D01*
G01*
X126087500Y-113975000D01*
G75*
G02*
X125850000Y-113737500I0J237500D01*
G01*
X125850000Y-113262500D01*
G75*
G02*
X126087500Y-113025000I237500J0D01*
G01*
X126662500Y-113025000D01*
G75*
G02*
X126900000Y-113262500I0J-237500D01*
G01*
G37*
G36*
G01*
X125150000Y-113262500D02*
X125150000Y-113737500D01*
G75*
G02*
X124912500Y-113975000I-237500J0D01*
G01*
X124337500Y-113975000D01*
G75*
G02*
X124100000Y-113737500I0J237500D01*
G01*
X124100000Y-113262500D01*
G75*
G02*
X124337500Y-113025000I237500J0D01*
G01*
X124912500Y-113025000D01*
G75*
G02*
X125150000Y-113262500I0J-237500D01*
G01*
G37*
%TD*%
%TO.C,C10*%
G36*
G01*
X120262500Y-106600000D02*
X120737500Y-106600000D01*
G75*
G02*
X120975000Y-106837500I0J-237500D01*
G01*
X120975000Y-107412500D01*
G75*
G02*
X120737500Y-107650000I-237500J0D01*
G01*
X120262500Y-107650000D01*
G75*
G02*
X120025000Y-107412500I0J237500D01*
G01*
X120025000Y-106837500D01*
G75*
G02*
X120262500Y-106600000I237500J0D01*
G01*
G37*
G36*
G01*
X120262500Y-108350000D02*
X120737500Y-108350000D01*
G75*
G02*
X120975000Y-108587500I0J-237500D01*
G01*
X120975000Y-109162500D01*
G75*
G02*
X120737500Y-109400000I-237500J0D01*
G01*
X120262500Y-109400000D01*
G75*
G02*
X120025000Y-109162500I0J237500D01*
G01*
X120025000Y-108587500D01*
G75*
G02*
X120262500Y-108350000I237500J0D01*
G01*
G37*
%TD*%
%TO.C,C11*%
G36*
G01*
X127125000Y-98200000D02*
X125875000Y-98200000D01*
G75*
G02*
X125625000Y-97950000I0J250000D01*
G01*
X125625000Y-97025000D01*
G75*
G02*
X125875000Y-96775000I250000J0D01*
G01*
X127125000Y-96775000D01*
G75*
G02*
X127375000Y-97025000I0J-250000D01*
G01*
X127375000Y-97950000D01*
G75*
G02*
X127125000Y-98200000I-250000J0D01*
G01*
G37*
G36*
G01*
X127125000Y-95225000D02*
X125875000Y-95225000D01*
G75*
G02*
X125625000Y-94975000I0J250000D01*
G01*
X125625000Y-94050000D01*
G75*
G02*
X125875000Y-93800000I250000J0D01*
G01*
X127125000Y-93800000D01*
G75*
G02*
X127375000Y-94050000I0J-250000D01*
G01*
X127375000Y-94975000D01*
G75*
G02*
X127125000Y-95225000I-250000J0D01*
G01*
G37*
%TD*%
%TO.C,C12*%
G36*
G01*
X124125000Y-98200000D02*
X122875000Y-98200000D01*
G75*
G02*
X122625000Y-97950000I0J250000D01*
G01*
X122625000Y-97025000D01*
G75*
G02*
X122875000Y-96775000I250000J0D01*
G01*
X124125000Y-96775000D01*
G75*
G02*
X124375000Y-97025000I0J-250000D01*
G01*
X124375000Y-97950000D01*
G75*
G02*
X124125000Y-98200000I-250000J0D01*
G01*
G37*
G36*
G01*
X124125000Y-95225000D02*
X122875000Y-95225000D01*
G75*
G02*
X122625000Y-94975000I0J250000D01*
G01*
X122625000Y-94050000D01*
G75*
G02*
X122875000Y-93800000I250000J0D01*
G01*
X124125000Y-93800000D01*
G75*
G02*
X124375000Y-94050000I0J-250000D01*
G01*
X124375000Y-94975000D01*
G75*
G02*
X124125000Y-95225000I-250000J0D01*
G01*
G37*
%TD*%
%TO.C,C13*%
G36*
G01*
X136125000Y-88200000D02*
X134875000Y-88200000D01*
G75*
G02*
X134625000Y-87950000I0J250000D01*
G01*
X134625000Y-87025000D01*
G75*
G02*
X134875000Y-86775000I250000J0D01*
G01*
X136125000Y-86775000D01*
G75*
G02*
X136375000Y-87025000I0J-250000D01*
G01*
X136375000Y-87950000D01*
G75*
G02*
X136125000Y-88200000I-250000J0D01*
G01*
G37*
G36*
G01*
X136125000Y-85225000D02*
X134875000Y-85225000D01*
G75*
G02*
X134625000Y-84975000I0J250000D01*
G01*
X134625000Y-84050000D01*
G75*
G02*
X134875000Y-83800000I250000J0D01*
G01*
X136125000Y-83800000D01*
G75*
G02*
X136375000Y-84050000I0J-250000D01*
G01*
X136375000Y-84975000D01*
G75*
G02*
X136125000Y-85225000I-250000J0D01*
G01*
G37*
%TD*%
%TO.C,C14*%
G36*
G01*
X141275000Y-111625000D02*
X141275000Y-110375000D01*
G75*
G02*
X141525000Y-110125000I250000J0D01*
G01*
X142450000Y-110125000D01*
G75*
G02*
X142700000Y-110375000I0J-250000D01*
G01*
X142700000Y-111625000D01*
G75*
G02*
X142450000Y-111875000I-250000J0D01*
G01*
X141525000Y-111875000D01*
G75*
G02*
X141275000Y-111625000I0J250000D01*
G01*
G37*
G36*
G01*
X138300000Y-111625000D02*
X138300000Y-110375000D01*
G75*
G02*
X138550000Y-110125000I250000J0D01*
G01*
X139475000Y-110125000D01*
G75*
G02*
X139725000Y-110375000I0J-250000D01*
G01*
X139725000Y-111625000D01*
G75*
G02*
X139475000Y-111875000I-250000J0D01*
G01*
X138550000Y-111875000D01*
G75*
G02*
X138300000Y-111625000I0J250000D01*
G01*
G37*
%TD*%
%TO.C,C15*%
G36*
G01*
X140850000Y-108737500D02*
X140850000Y-108262500D01*
G75*
G02*
X141087500Y-108025000I237500J0D01*
G01*
X141662500Y-108025000D01*
G75*
G02*
X141900000Y-108262500I0J-237500D01*
G01*
X141900000Y-108737500D01*
G75*
G02*
X141662500Y-108975000I-237500J0D01*
G01*
X141087500Y-108975000D01*
G75*
G02*
X140850000Y-108737500I0J237500D01*
G01*
G37*
G36*
G01*
X139100000Y-108737500D02*
X139100000Y-108262500D01*
G75*
G02*
X139337500Y-108025000I237500J0D01*
G01*
X139912500Y-108025000D01*
G75*
G02*
X140150000Y-108262500I0J-237500D01*
G01*
X140150000Y-108737500D01*
G75*
G02*
X139912500Y-108975000I-237500J0D01*
G01*
X139337500Y-108975000D01*
G75*
G02*
X139100000Y-108737500I0J237500D01*
G01*
G37*
%TD*%
%TO.C,C16*%
G36*
G01*
X139100000Y-106737500D02*
X139100000Y-106262500D01*
G75*
G02*
X139337500Y-106025000I237500J0D01*
G01*
X139912500Y-106025000D01*
G75*
G02*
X140150000Y-106262500I0J-237500D01*
G01*
X140150000Y-106737500D01*
G75*
G02*
X139912500Y-106975000I-237500J0D01*
G01*
X139337500Y-106975000D01*
G75*
G02*
X139100000Y-106737500I0J237500D01*
G01*
G37*
G36*
G01*
X140850000Y-106737500D02*
X140850000Y-106262500D01*
G75*
G02*
X141087500Y-106025000I237500J0D01*
G01*
X141662500Y-106025000D01*
G75*
G02*
X141900000Y-106262500I0J-237500D01*
G01*
X141900000Y-106737500D01*
G75*
G02*
X141662500Y-106975000I-237500J0D01*
G01*
X141087500Y-106975000D01*
G75*
G02*
X140850000Y-106737500I0J237500D01*
G01*
G37*
%TD*%
%TO.C,C17*%
G36*
G01*
X141900000Y-102262500D02*
X141900000Y-102737500D01*
G75*
G02*
X141662500Y-102975000I-237500J0D01*
G01*
X141087500Y-102975000D01*
G75*
G02*
X140850000Y-102737500I0J237500D01*
G01*
X140850000Y-102262500D01*
G75*
G02*
X141087500Y-102025000I237500J0D01*
G01*
X141662500Y-102025000D01*
G75*
G02*
X141900000Y-102262500I0J-237500D01*
G01*
G37*
G36*
G01*
X140150000Y-102262500D02*
X140150000Y-102737500D01*
G75*
G02*
X139912500Y-102975000I-237500J0D01*
G01*
X139337500Y-102975000D01*
G75*
G02*
X139100000Y-102737500I0J237500D01*
G01*
X139100000Y-102262500D01*
G75*
G02*
X139337500Y-102025000I237500J0D01*
G01*
X139912500Y-102025000D01*
G75*
G02*
X140150000Y-102262500I0J-237500D01*
G01*
G37*
%TD*%
%TO.C,C18*%
G36*
G01*
X140150000Y-100262500D02*
X140150000Y-100737500D01*
G75*
G02*
X139912500Y-100975000I-237500J0D01*
G01*
X139337500Y-100975000D01*
G75*
G02*
X139100000Y-100737500I0J237500D01*
G01*
X139100000Y-100262500D01*
G75*
G02*
X139337500Y-100025000I237500J0D01*
G01*
X139912500Y-100025000D01*
G75*
G02*
X140150000Y-100262500I0J-237500D01*
G01*
G37*
G36*
G01*
X141900000Y-100262500D02*
X141900000Y-100737500D01*
G75*
G02*
X141662500Y-100975000I-237500J0D01*
G01*
X141087500Y-100975000D01*
G75*
G02*
X140850000Y-100737500I0J237500D01*
G01*
X140850000Y-100262500D01*
G75*
G02*
X141087500Y-100025000I237500J0D01*
G01*
X141662500Y-100025000D01*
G75*
G02*
X141900000Y-100262500I0J-237500D01*
G01*
G37*
%TD*%
%TO.C,C19*%
G36*
G01*
X173262500Y-79350000D02*
X173737500Y-79350000D01*
G75*
G02*
X173975000Y-79587500I0J-237500D01*
G01*
X173975000Y-80162500D01*
G75*
G02*
X173737500Y-80400000I-237500J0D01*
G01*
X173262500Y-80400000D01*
G75*
G02*
X173025000Y-80162500I0J237500D01*
G01*
X173025000Y-79587500D01*
G75*
G02*
X173262500Y-79350000I237500J0D01*
G01*
G37*
G36*
G01*
X173262500Y-77600000D02*
X173737500Y-77600000D01*
G75*
G02*
X173975000Y-77837500I0J-237500D01*
G01*
X173975000Y-78412500D01*
G75*
G02*
X173737500Y-78650000I-237500J0D01*
G01*
X173262500Y-78650000D01*
G75*
G02*
X173025000Y-78412500I0J237500D01*
G01*
X173025000Y-77837500D01*
G75*
G02*
X173262500Y-77600000I237500J0D01*
G01*
G37*
%TD*%
%TO.C,C20*%
G36*
G01*
X181737500Y-102400000D02*
X181262500Y-102400000D01*
G75*
G02*
X181025000Y-102162500I0J237500D01*
G01*
X181025000Y-101587500D01*
G75*
G02*
X181262500Y-101350000I237500J0D01*
G01*
X181737500Y-101350000D01*
G75*
G02*
X181975000Y-101587500I0J-237500D01*
G01*
X181975000Y-102162500D01*
G75*
G02*
X181737500Y-102400000I-237500J0D01*
G01*
G37*
G36*
G01*
X181737500Y-100650000D02*
X181262500Y-100650000D01*
G75*
G02*
X181025000Y-100412500I0J237500D01*
G01*
X181025000Y-99837500D01*
G75*
G02*
X181262500Y-99600000I237500J0D01*
G01*
X181737500Y-99600000D01*
G75*
G02*
X181975000Y-99837500I0J-237500D01*
G01*
X181975000Y-100412500D01*
G75*
G02*
X181737500Y-100650000I-237500J0D01*
G01*
G37*
%TD*%
%TO.C,C21*%
G36*
G01*
X163262500Y-99350000D02*
X163737500Y-99350000D01*
G75*
G02*
X163975000Y-99587500I0J-237500D01*
G01*
X163975000Y-100162500D01*
G75*
G02*
X163737500Y-100400000I-237500J0D01*
G01*
X163262500Y-100400000D01*
G75*
G02*
X163025000Y-100162500I0J237500D01*
G01*
X163025000Y-99587500D01*
G75*
G02*
X163262500Y-99350000I237500J0D01*
G01*
G37*
G36*
G01*
X163262500Y-97600000D02*
X163737500Y-97600000D01*
G75*
G02*
X163975000Y-97837500I0J-237500D01*
G01*
X163975000Y-98412500D01*
G75*
G02*
X163737500Y-98650000I-237500J0D01*
G01*
X163262500Y-98650000D01*
G75*
G02*
X163025000Y-98412500I0J237500D01*
G01*
X163025000Y-97837500D01*
G75*
G02*
X163262500Y-97600000I237500J0D01*
G01*
G37*
%TD*%
%TO.C,C22*%
G36*
G01*
X160150000Y-99762500D02*
X160150000Y-100237500D01*
G75*
G02*
X159912500Y-100475000I-237500J0D01*
G01*
X159337500Y-100475000D01*
G75*
G02*
X159100000Y-100237500I0J237500D01*
G01*
X159100000Y-99762500D01*
G75*
G02*
X159337500Y-99525000I237500J0D01*
G01*
X159912500Y-99525000D01*
G75*
G02*
X160150000Y-99762500I0J-237500D01*
G01*
G37*
G36*
G01*
X161900000Y-99762500D02*
X161900000Y-100237500D01*
G75*
G02*
X161662500Y-100475000I-237500J0D01*
G01*
X161087500Y-100475000D01*
G75*
G02*
X160850000Y-100237500I0J237500D01*
G01*
X160850000Y-99762500D01*
G75*
G02*
X161087500Y-99525000I237500J0D01*
G01*
X161662500Y-99525000D01*
G75*
G02*
X161900000Y-99762500I0J-237500D01*
G01*
G37*
%TD*%
%TO.C,C23*%
G36*
G01*
X161900000Y-97762500D02*
X161900000Y-98237500D01*
G75*
G02*
X161662500Y-98475000I-237500J0D01*
G01*
X161087500Y-98475000D01*
G75*
G02*
X160850000Y-98237500I0J237500D01*
G01*
X160850000Y-97762500D01*
G75*
G02*
X161087500Y-97525000I237500J0D01*
G01*
X161662500Y-97525000D01*
G75*
G02*
X161900000Y-97762500I0J-237500D01*
G01*
G37*
G36*
G01*
X160150000Y-97762500D02*
X160150000Y-98237500D01*
G75*
G02*
X159912500Y-98475000I-237500J0D01*
G01*
X159337500Y-98475000D01*
G75*
G02*
X159100000Y-98237500I0J237500D01*
G01*
X159100000Y-97762500D01*
G75*
G02*
X159337500Y-97525000I237500J0D01*
G01*
X159912500Y-97525000D01*
G75*
G02*
X160150000Y-97762500I0J-237500D01*
G01*
G37*
%TD*%
%TO.C,C24*%
G36*
G01*
X155262500Y-95350000D02*
X155737500Y-95350000D01*
G75*
G02*
X155975000Y-95587500I0J-237500D01*
G01*
X155975000Y-96162500D01*
G75*
G02*
X155737500Y-96400000I-237500J0D01*
G01*
X155262500Y-96400000D01*
G75*
G02*
X155025000Y-96162500I0J237500D01*
G01*
X155025000Y-95587500D01*
G75*
G02*
X155262500Y-95350000I237500J0D01*
G01*
G37*
G36*
G01*
X155262500Y-93600000D02*
X155737500Y-93600000D01*
G75*
G02*
X155975000Y-93837500I0J-237500D01*
G01*
X155975000Y-94412500D01*
G75*
G02*
X155737500Y-94650000I-237500J0D01*
G01*
X155262500Y-94650000D01*
G75*
G02*
X155025000Y-94412500I0J237500D01*
G01*
X155025000Y-93837500D01*
G75*
G02*
X155262500Y-93600000I237500J0D01*
G01*
G37*
%TD*%
%TO.C,C25*%
G36*
G01*
X157262500Y-93600000D02*
X157737500Y-93600000D01*
G75*
G02*
X157975000Y-93837500I0J-237500D01*
G01*
X157975000Y-94412500D01*
G75*
G02*
X157737500Y-94650000I-237500J0D01*
G01*
X157262500Y-94650000D01*
G75*
G02*
X157025000Y-94412500I0J237500D01*
G01*
X157025000Y-93837500D01*
G75*
G02*
X157262500Y-93600000I237500J0D01*
G01*
G37*
G36*
G01*
X157262500Y-95350000D02*
X157737500Y-95350000D01*
G75*
G02*
X157975000Y-95587500I0J-237500D01*
G01*
X157975000Y-96162500D01*
G75*
G02*
X157737500Y-96400000I-237500J0D01*
G01*
X157262500Y-96400000D01*
G75*
G02*
X157025000Y-96162500I0J237500D01*
G01*
X157025000Y-95587500D01*
G75*
G02*
X157262500Y-95350000I237500J0D01*
G01*
G37*
%TD*%
%TO.C,C26*%
G36*
G01*
X156150000Y-91762500D02*
X156150000Y-92237500D01*
G75*
G02*
X155912500Y-92475000I-237500J0D01*
G01*
X155337500Y-92475000D01*
G75*
G02*
X155100000Y-92237500I0J237500D01*
G01*
X155100000Y-91762500D01*
G75*
G02*
X155337500Y-91525000I237500J0D01*
G01*
X155912500Y-91525000D01*
G75*
G02*
X156150000Y-91762500I0J-237500D01*
G01*
G37*
G36*
G01*
X157900000Y-91762500D02*
X157900000Y-92237500D01*
G75*
G02*
X157662500Y-92475000I-237500J0D01*
G01*
X157087500Y-92475000D01*
G75*
G02*
X156850000Y-92237500I0J237500D01*
G01*
X156850000Y-91762500D01*
G75*
G02*
X157087500Y-91525000I237500J0D01*
G01*
X157662500Y-91525000D01*
G75*
G02*
X157900000Y-91762500I0J-237500D01*
G01*
G37*
%TD*%
%TO.C,C27*%
G36*
G01*
X169850000Y-89237500D02*
X169850000Y-88762500D01*
G75*
G02*
X170087500Y-88525000I237500J0D01*
G01*
X170662500Y-88525000D01*
G75*
G02*
X170900000Y-88762500I0J-237500D01*
G01*
X170900000Y-89237500D01*
G75*
G02*
X170662500Y-89475000I-237500J0D01*
G01*
X170087500Y-89475000D01*
G75*
G02*
X169850000Y-89237500I0J237500D01*
G01*
G37*
G36*
G01*
X168100000Y-89237500D02*
X168100000Y-88762500D01*
G75*
G02*
X168337500Y-88525000I237500J0D01*
G01*
X168912500Y-88525000D01*
G75*
G02*
X169150000Y-88762500I0J-237500D01*
G01*
X169150000Y-89237500D01*
G75*
G02*
X168912500Y-89475000I-237500J0D01*
G01*
X168337500Y-89475000D01*
G75*
G02*
X168100000Y-89237500I0J237500D01*
G01*
G37*
%TD*%
%TO.C,C28*%
G36*
G01*
X168100000Y-91237500D02*
X168100000Y-90762500D01*
G75*
G02*
X168337500Y-90525000I237500J0D01*
G01*
X168912500Y-90525000D01*
G75*
G02*
X169150000Y-90762500I0J-237500D01*
G01*
X169150000Y-91237500D01*
G75*
G02*
X168912500Y-91475000I-237500J0D01*
G01*
X168337500Y-91475000D01*
G75*
G02*
X168100000Y-91237500I0J237500D01*
G01*
G37*
G36*
G01*
X169850000Y-91237500D02*
X169850000Y-90762500D01*
G75*
G02*
X170087500Y-90525000I237500J0D01*
G01*
X170662500Y-90525000D01*
G75*
G02*
X170900000Y-90762500I0J-237500D01*
G01*
X170900000Y-91237500D01*
G75*
G02*
X170662500Y-91475000I-237500J0D01*
G01*
X170087500Y-91475000D01*
G75*
G02*
X169850000Y-91237500I0J237500D01*
G01*
G37*
%TD*%
%TO.C,C29*%
G36*
G01*
X179237500Y-94150000D02*
X178762500Y-94150000D01*
G75*
G02*
X178525000Y-93912500I0J237500D01*
G01*
X178525000Y-93337500D01*
G75*
G02*
X178762500Y-93100000I237500J0D01*
G01*
X179237500Y-93100000D01*
G75*
G02*
X179475000Y-93337500I0J-237500D01*
G01*
X179475000Y-93912500D01*
G75*
G02*
X179237500Y-94150000I-237500J0D01*
G01*
G37*
G36*
G01*
X179237500Y-95900000D02*
X178762500Y-95900000D01*
G75*
G02*
X178525000Y-95662500I0J237500D01*
G01*
X178525000Y-95087500D01*
G75*
G02*
X178762500Y-94850000I237500J0D01*
G01*
X179237500Y-94850000D01*
G75*
G02*
X179475000Y-95087500I0J-237500D01*
G01*
X179475000Y-95662500D01*
G75*
G02*
X179237500Y-95900000I-237500J0D01*
G01*
G37*
%TD*%
%TO.C,C30*%
G36*
G01*
X173100000Y-103737500D02*
X173100000Y-103262500D01*
G75*
G02*
X173337500Y-103025000I237500J0D01*
G01*
X173912500Y-103025000D01*
G75*
G02*
X174150000Y-103262500I0J-237500D01*
G01*
X174150000Y-103737500D01*
G75*
G02*
X173912500Y-103975000I-237500J0D01*
G01*
X173337500Y-103975000D01*
G75*
G02*
X173100000Y-103737500I0J237500D01*
G01*
G37*
G36*
G01*
X174850000Y-103737500D02*
X174850000Y-103262500D01*
G75*
G02*
X175087500Y-103025000I237500J0D01*
G01*
X175662500Y-103025000D01*
G75*
G02*
X175900000Y-103262500I0J-237500D01*
G01*
X175900000Y-103737500D01*
G75*
G02*
X175662500Y-103975000I-237500J0D01*
G01*
X175087500Y-103975000D01*
G75*
G02*
X174850000Y-103737500I0J237500D01*
G01*
G37*
%TD*%
%TO.C,C31*%
G36*
G01*
X170900000Y-92762500D02*
X170900000Y-93237500D01*
G75*
G02*
X170662500Y-93475000I-237500J0D01*
G01*
X170087500Y-93475000D01*
G75*
G02*
X169850000Y-93237500I0J237500D01*
G01*
X169850000Y-92762500D01*
G75*
G02*
X170087500Y-92525000I237500J0D01*
G01*
X170662500Y-92525000D01*
G75*
G02*
X170900000Y-92762500I0J-237500D01*
G01*
G37*
G36*
G01*
X169150000Y-92762500D02*
X169150000Y-93237500D01*
G75*
G02*
X168912500Y-93475000I-237500J0D01*
G01*
X168337500Y-93475000D01*
G75*
G02*
X168100000Y-93237500I0J237500D01*
G01*
X168100000Y-92762500D01*
G75*
G02*
X168337500Y-92525000I237500J0D01*
G01*
X168912500Y-92525000D01*
G75*
G02*
X169150000Y-92762500I0J-237500D01*
G01*
G37*
%TD*%
%TO.C,C32*%
G36*
G01*
X143737500Y-84650000D02*
X143262500Y-84650000D01*
G75*
G02*
X143025000Y-84412500I0J237500D01*
G01*
X143025000Y-83837500D01*
G75*
G02*
X143262500Y-83600000I237500J0D01*
G01*
X143737500Y-83600000D01*
G75*
G02*
X143975000Y-83837500I0J-237500D01*
G01*
X143975000Y-84412500D01*
G75*
G02*
X143737500Y-84650000I-237500J0D01*
G01*
G37*
G36*
G01*
X143737500Y-86400000D02*
X143262500Y-86400000D01*
G75*
G02*
X143025000Y-86162500I0J237500D01*
G01*
X143025000Y-85587500D01*
G75*
G02*
X143262500Y-85350000I237500J0D01*
G01*
X143737500Y-85350000D01*
G75*
G02*
X143975000Y-85587500I0J-237500D01*
G01*
X143975000Y-86162500D01*
G75*
G02*
X143737500Y-86400000I-237500J0D01*
G01*
G37*
%TD*%
%TO.C,C33*%
G36*
G01*
X155262500Y-104600000D02*
X155737500Y-104600000D01*
G75*
G02*
X155975000Y-104837500I0J-237500D01*
G01*
X155975000Y-105412500D01*
G75*
G02*
X155737500Y-105650000I-237500J0D01*
G01*
X155262500Y-105650000D01*
G75*
G02*
X155025000Y-105412500I0J237500D01*
G01*
X155025000Y-104837500D01*
G75*
G02*
X155262500Y-104600000I237500J0D01*
G01*
G37*
G36*
G01*
X155262500Y-106350000D02*
X155737500Y-106350000D01*
G75*
G02*
X155975000Y-106587500I0J-237500D01*
G01*
X155975000Y-107162500D01*
G75*
G02*
X155737500Y-107400000I-237500J0D01*
G01*
X155262500Y-107400000D01*
G75*
G02*
X155025000Y-107162500I0J237500D01*
G01*
X155025000Y-106587500D01*
G75*
G02*
X155262500Y-106350000I237500J0D01*
G01*
G37*
%TD*%
%TO.C,C34*%
G36*
G01*
X157262500Y-106350000D02*
X157737500Y-106350000D01*
G75*
G02*
X157975000Y-106587500I0J-237500D01*
G01*
X157975000Y-107162500D01*
G75*
G02*
X157737500Y-107400000I-237500J0D01*
G01*
X157262500Y-107400000D01*
G75*
G02*
X157025000Y-107162500I0J237500D01*
G01*
X157025000Y-106587500D01*
G75*
G02*
X157262500Y-106350000I237500J0D01*
G01*
G37*
G36*
G01*
X157262500Y-104600000D02*
X157737500Y-104600000D01*
G75*
G02*
X157975000Y-104837500I0J-237500D01*
G01*
X157975000Y-105412500D01*
G75*
G02*
X157737500Y-105650000I-237500J0D01*
G01*
X157262500Y-105650000D01*
G75*
G02*
X157025000Y-105412500I0J237500D01*
G01*
X157025000Y-104837500D01*
G75*
G02*
X157262500Y-104600000I237500J0D01*
G01*
G37*
%TD*%
%TO.C,C35*%
G36*
G01*
X168100000Y-106237500D02*
X168100000Y-105762500D01*
G75*
G02*
X168337500Y-105525000I237500J0D01*
G01*
X168912500Y-105525000D01*
G75*
G02*
X169150000Y-105762500I0J-237500D01*
G01*
X169150000Y-106237500D01*
G75*
G02*
X168912500Y-106475000I-237500J0D01*
G01*
X168337500Y-106475000D01*
G75*
G02*
X168100000Y-106237500I0J237500D01*
G01*
G37*
G36*
G01*
X169850000Y-106237500D02*
X169850000Y-105762500D01*
G75*
G02*
X170087500Y-105525000I237500J0D01*
G01*
X170662500Y-105525000D01*
G75*
G02*
X170900000Y-105762500I0J-237500D01*
G01*
X170900000Y-106237500D01*
G75*
G02*
X170662500Y-106475000I-237500J0D01*
G01*
X170087500Y-106475000D01*
G75*
G02*
X169850000Y-106237500I0J237500D01*
G01*
G37*
%TD*%
D10*
%TO.C,D1*%
X129500000Y-97450000D03*
X129500000Y-94550000D03*
%TD*%
%TO.C,FB1*%
G36*
G01*
X133475000Y-113737500D02*
X133475000Y-113262500D01*
G75*
G02*
X133712500Y-113025000I237500J0D01*
G01*
X134287500Y-113025000D01*
G75*
G02*
X134525000Y-113262500I0J-237500D01*
G01*
X134525000Y-113737500D01*
G75*
G02*
X134287500Y-113975000I-237500J0D01*
G01*
X133712500Y-113975000D01*
G75*
G02*
X133475000Y-113737500I0J237500D01*
G01*
G37*
G36*
G01*
X135225000Y-113737500D02*
X135225000Y-113262500D01*
G75*
G02*
X135462500Y-113025000I237500J0D01*
G01*
X136037500Y-113025000D01*
G75*
G02*
X136275000Y-113262500I0J-237500D01*
G01*
X136275000Y-113737500D01*
G75*
G02*
X136037500Y-113975000I-237500J0D01*
G01*
X135462500Y-113975000D01*
G75*
G02*
X135225000Y-113737500I0J237500D01*
G01*
G37*
%TD*%
%TO.C,FB2*%
G36*
G01*
X134650000Y-104262500D02*
X134650000Y-104737500D01*
G75*
G02*
X134412500Y-104975000I-237500J0D01*
G01*
X133837500Y-104975000D01*
G75*
G02*
X133600000Y-104737500I0J237500D01*
G01*
X133600000Y-104262500D01*
G75*
G02*
X133837500Y-104025000I237500J0D01*
G01*
X134412500Y-104025000D01*
G75*
G02*
X134650000Y-104262500I0J-237500D01*
G01*
G37*
G36*
G01*
X136400000Y-104262500D02*
X136400000Y-104737500D01*
G75*
G02*
X136162500Y-104975000I-237500J0D01*
G01*
X135587500Y-104975000D01*
G75*
G02*
X135350000Y-104737500I0J237500D01*
G01*
X135350000Y-104262500D01*
G75*
G02*
X135587500Y-104025000I237500J0D01*
G01*
X136162500Y-104025000D01*
G75*
G02*
X136400000Y-104262500I0J-237500D01*
G01*
G37*
%TD*%
%TO.C,FB3*%
G36*
G01*
X139100000Y-113737500D02*
X139100000Y-113262500D01*
G75*
G02*
X139337500Y-113025000I237500J0D01*
G01*
X139912500Y-113025000D01*
G75*
G02*
X140150000Y-113262500I0J-237500D01*
G01*
X140150000Y-113737500D01*
G75*
G02*
X139912500Y-113975000I-237500J0D01*
G01*
X139337500Y-113975000D01*
G75*
G02*
X139100000Y-113737500I0J237500D01*
G01*
G37*
G36*
G01*
X140850000Y-113737500D02*
X140850000Y-113262500D01*
G75*
G02*
X141087500Y-113025000I237500J0D01*
G01*
X141662500Y-113025000D01*
G75*
G02*
X141900000Y-113262500I0J-237500D01*
G01*
X141900000Y-113737500D01*
G75*
G02*
X141662500Y-113975000I-237500J0D01*
G01*
X141087500Y-113975000D01*
G75*
G02*
X140850000Y-113737500I0J237500D01*
G01*
G37*
%TD*%
%TO.C,FB4*%
G36*
G01*
X140150000Y-104262500D02*
X140150000Y-104737500D01*
G75*
G02*
X139912500Y-104975000I-237500J0D01*
G01*
X139337500Y-104975000D01*
G75*
G02*
X139100000Y-104737500I0J237500D01*
G01*
X139100000Y-104262500D01*
G75*
G02*
X139337500Y-104025000I237500J0D01*
G01*
X139912500Y-104025000D01*
G75*
G02*
X140150000Y-104262500I0J-237500D01*
G01*
G37*
G36*
G01*
X141900000Y-104262500D02*
X141900000Y-104737500D01*
G75*
G02*
X141662500Y-104975000I-237500J0D01*
G01*
X141087500Y-104975000D01*
G75*
G02*
X140850000Y-104737500I0J237500D01*
G01*
X140850000Y-104262500D01*
G75*
G02*
X141087500Y-104025000I237500J0D01*
G01*
X141662500Y-104025000D01*
G75*
G02*
X141900000Y-104262500I0J-237500D01*
G01*
G37*
%TD*%
D11*
%TO.C,L1*%
X129075000Y-102500000D03*
X126925000Y-102500000D03*
%TD*%
%TO.C,R1*%
G36*
G01*
X120262500Y-103350000D02*
X120737500Y-103350000D01*
G75*
G02*
X120975000Y-103587500I0J-237500D01*
G01*
X120975000Y-104162500D01*
G75*
G02*
X120737500Y-104400000I-237500J0D01*
G01*
X120262500Y-104400000D01*
G75*
G02*
X120025000Y-104162500I0J237500D01*
G01*
X120025000Y-103587500D01*
G75*
G02*
X120262500Y-103350000I237500J0D01*
G01*
G37*
G36*
G01*
X120262500Y-101600000D02*
X120737500Y-101600000D01*
G75*
G02*
X120975000Y-101837500I0J-237500D01*
G01*
X120975000Y-102412500D01*
G75*
G02*
X120737500Y-102650000I-237500J0D01*
G01*
X120262500Y-102650000D01*
G75*
G02*
X120025000Y-102412500I0J237500D01*
G01*
X120025000Y-101837500D01*
G75*
G02*
X120262500Y-101600000I237500J0D01*
G01*
G37*
%TD*%
%TO.C,R2*%
G36*
G01*
X125850000Y-111737500D02*
X125850000Y-111262500D01*
G75*
G02*
X126087500Y-111025000I237500J0D01*
G01*
X126662500Y-111025000D01*
G75*
G02*
X126900000Y-111262500I0J-237500D01*
G01*
X126900000Y-111737500D01*
G75*
G02*
X126662500Y-111975000I-237500J0D01*
G01*
X126087500Y-111975000D01*
G75*
G02*
X125850000Y-111737500I0J237500D01*
G01*
G37*
G36*
G01*
X124100000Y-111737500D02*
X124100000Y-111262500D01*
G75*
G02*
X124337500Y-111025000I237500J0D01*
G01*
X124912500Y-111025000D01*
G75*
G02*
X125150000Y-111262500I0J-237500D01*
G01*
X125150000Y-111737500D01*
G75*
G02*
X124912500Y-111975000I-237500J0D01*
G01*
X124337500Y-111975000D01*
G75*
G02*
X124100000Y-111737500I0J237500D01*
G01*
G37*
%TD*%
%TO.C,R3*%
G36*
G01*
X167262500Y-77600000D02*
X167737500Y-77600000D01*
G75*
G02*
X167975000Y-77837500I0J-237500D01*
G01*
X167975000Y-78412500D01*
G75*
G02*
X167737500Y-78650000I-237500J0D01*
G01*
X167262500Y-78650000D01*
G75*
G02*
X167025000Y-78412500I0J237500D01*
G01*
X167025000Y-77837500D01*
G75*
G02*
X167262500Y-77600000I237500J0D01*
G01*
G37*
G36*
G01*
X167262500Y-79350000D02*
X167737500Y-79350000D01*
G75*
G02*
X167975000Y-79587500I0J-237500D01*
G01*
X167975000Y-80162500D01*
G75*
G02*
X167737500Y-80400000I-237500J0D01*
G01*
X167262500Y-80400000D01*
G75*
G02*
X167025000Y-80162500I0J237500D01*
G01*
X167025000Y-79587500D01*
G75*
G02*
X167262500Y-79350000I237500J0D01*
G01*
G37*
%TD*%
%TO.C,R4*%
G36*
G01*
X161262500Y-79350000D02*
X161737500Y-79350000D01*
G75*
G02*
X161975000Y-79587500I0J-237500D01*
G01*
X161975000Y-80162500D01*
G75*
G02*
X161737500Y-80400000I-237500J0D01*
G01*
X161262500Y-80400000D01*
G75*
G02*
X161025000Y-80162500I0J237500D01*
G01*
X161025000Y-79587500D01*
G75*
G02*
X161262500Y-79350000I237500J0D01*
G01*
G37*
G36*
G01*
X161262500Y-77600000D02*
X161737500Y-77600000D01*
G75*
G02*
X161975000Y-77837500I0J-237500D01*
G01*
X161975000Y-78412500D01*
G75*
G02*
X161737500Y-78650000I-237500J0D01*
G01*
X161262500Y-78650000D01*
G75*
G02*
X161025000Y-78412500I0J237500D01*
G01*
X161025000Y-77837500D01*
G75*
G02*
X161262500Y-77600000I237500J0D01*
G01*
G37*
%TD*%
%TO.C,R5*%
G36*
G01*
X165262500Y-79350000D02*
X165737500Y-79350000D01*
G75*
G02*
X165975000Y-79587500I0J-237500D01*
G01*
X165975000Y-80162500D01*
G75*
G02*
X165737500Y-80400000I-237500J0D01*
G01*
X165262500Y-80400000D01*
G75*
G02*
X165025000Y-80162500I0J237500D01*
G01*
X165025000Y-79587500D01*
G75*
G02*
X165262500Y-79350000I237500J0D01*
G01*
G37*
G36*
G01*
X165262500Y-77600000D02*
X165737500Y-77600000D01*
G75*
G02*
X165975000Y-77837500I0J-237500D01*
G01*
X165975000Y-78412500D01*
G75*
G02*
X165737500Y-78650000I-237500J0D01*
G01*
X165262500Y-78650000D01*
G75*
G02*
X165025000Y-78412500I0J237500D01*
G01*
X165025000Y-77837500D01*
G75*
G02*
X165262500Y-77600000I237500J0D01*
G01*
G37*
%TD*%
%TO.C,R6*%
G36*
G01*
X159262500Y-77600000D02*
X159737500Y-77600000D01*
G75*
G02*
X159975000Y-77837500I0J-237500D01*
G01*
X159975000Y-78412500D01*
G75*
G02*
X159737500Y-78650000I-237500J0D01*
G01*
X159262500Y-78650000D01*
G75*
G02*
X159025000Y-78412500I0J237500D01*
G01*
X159025000Y-77837500D01*
G75*
G02*
X159262500Y-77600000I237500J0D01*
G01*
G37*
G36*
G01*
X159262500Y-79350000D02*
X159737500Y-79350000D01*
G75*
G02*
X159975000Y-79587500I0J-237500D01*
G01*
X159975000Y-80162500D01*
G75*
G02*
X159737500Y-80400000I-237500J0D01*
G01*
X159262500Y-80400000D01*
G75*
G02*
X159025000Y-80162500I0J237500D01*
G01*
X159025000Y-79587500D01*
G75*
G02*
X159262500Y-79350000I237500J0D01*
G01*
G37*
%TD*%
%TO.C,R7*%
G36*
G01*
X124900000Y-99762500D02*
X124900000Y-100237500D01*
G75*
G02*
X124662500Y-100475000I-237500J0D01*
G01*
X124087500Y-100475000D01*
G75*
G02*
X123850000Y-100237500I0J237500D01*
G01*
X123850000Y-99762500D01*
G75*
G02*
X124087500Y-99525000I237500J0D01*
G01*
X124662500Y-99525000D01*
G75*
G02*
X124900000Y-99762500I0J-237500D01*
G01*
G37*
G36*
G01*
X123150000Y-99762500D02*
X123150000Y-100237500D01*
G75*
G02*
X122912500Y-100475000I-237500J0D01*
G01*
X122337500Y-100475000D01*
G75*
G02*
X122100000Y-100237500I0J237500D01*
G01*
X122100000Y-99762500D01*
G75*
G02*
X122337500Y-99525000I237500J0D01*
G01*
X122912500Y-99525000D01*
G75*
G02*
X123150000Y-99762500I0J-237500D01*
G01*
G37*
%TD*%
%TO.C,R8*%
G36*
G01*
X124262500Y-103350000D02*
X124737500Y-103350000D01*
G75*
G02*
X124975000Y-103587500I0J-237500D01*
G01*
X124975000Y-104162500D01*
G75*
G02*
X124737500Y-104400000I-237500J0D01*
G01*
X124262500Y-104400000D01*
G75*
G02*
X124025000Y-104162500I0J237500D01*
G01*
X124025000Y-103587500D01*
G75*
G02*
X124262500Y-103350000I237500J0D01*
G01*
G37*
G36*
G01*
X124262500Y-101600000D02*
X124737500Y-101600000D01*
G75*
G02*
X124975000Y-101837500I0J-237500D01*
G01*
X124975000Y-102412500D01*
G75*
G02*
X124737500Y-102650000I-237500J0D01*
G01*
X124262500Y-102650000D01*
G75*
G02*
X124025000Y-102412500I0J237500D01*
G01*
X124025000Y-101837500D01*
G75*
G02*
X124262500Y-101600000I237500J0D01*
G01*
G37*
%TD*%
%TO.C,R9*%
G36*
G01*
X132762500Y-86600000D02*
X133237500Y-86600000D01*
G75*
G02*
X133475000Y-86837500I0J-237500D01*
G01*
X133475000Y-87412500D01*
G75*
G02*
X133237500Y-87650000I-237500J0D01*
G01*
X132762500Y-87650000D01*
G75*
G02*
X132525000Y-87412500I0J237500D01*
G01*
X132525000Y-86837500D01*
G75*
G02*
X132762500Y-86600000I237500J0D01*
G01*
G37*
G36*
G01*
X132762500Y-88350000D02*
X133237500Y-88350000D01*
G75*
G02*
X133475000Y-88587500I0J-237500D01*
G01*
X133475000Y-89162500D01*
G75*
G02*
X133237500Y-89400000I-237500J0D01*
G01*
X132762500Y-89400000D01*
G75*
G02*
X132525000Y-89162500I0J237500D01*
G01*
X132525000Y-88587500D01*
G75*
G02*
X132762500Y-88350000I237500J0D01*
G01*
G37*
%TD*%
%TO.C,R10*%
G36*
G01*
X163262500Y-77600000D02*
X163737500Y-77600000D01*
G75*
G02*
X163975000Y-77837500I0J-237500D01*
G01*
X163975000Y-78412500D01*
G75*
G02*
X163737500Y-78650000I-237500J0D01*
G01*
X163262500Y-78650000D01*
G75*
G02*
X163025000Y-78412500I0J237500D01*
G01*
X163025000Y-77837500D01*
G75*
G02*
X163262500Y-77600000I237500J0D01*
G01*
G37*
G36*
G01*
X163262500Y-79350000D02*
X163737500Y-79350000D01*
G75*
G02*
X163975000Y-79587500I0J-237500D01*
G01*
X163975000Y-80162500D01*
G75*
G02*
X163737500Y-80400000I-237500J0D01*
G01*
X163262500Y-80400000D01*
G75*
G02*
X163025000Y-80162500I0J237500D01*
G01*
X163025000Y-79587500D01*
G75*
G02*
X163262500Y-79350000I237500J0D01*
G01*
G37*
%TD*%
%TO.C,R11*%
G36*
G01*
X157262500Y-79350000D02*
X157737500Y-79350000D01*
G75*
G02*
X157975000Y-79587500I0J-237500D01*
G01*
X157975000Y-80162500D01*
G75*
G02*
X157737500Y-80400000I-237500J0D01*
G01*
X157262500Y-80400000D01*
G75*
G02*
X157025000Y-80162500I0J237500D01*
G01*
X157025000Y-79587500D01*
G75*
G02*
X157262500Y-79350000I237500J0D01*
G01*
G37*
G36*
G01*
X157262500Y-77600000D02*
X157737500Y-77600000D01*
G75*
G02*
X157975000Y-77837500I0J-237500D01*
G01*
X157975000Y-78412500D01*
G75*
G02*
X157737500Y-78650000I-237500J0D01*
G01*
X157262500Y-78650000D01*
G75*
G02*
X157025000Y-78412500I0J237500D01*
G01*
X157025000Y-77837500D01*
G75*
G02*
X157262500Y-77600000I237500J0D01*
G01*
G37*
%TD*%
%TO.C,R12*%
G36*
G01*
X132762500Y-82600000D02*
X133237500Y-82600000D01*
G75*
G02*
X133475000Y-82837500I0J-237500D01*
G01*
X133475000Y-83412500D01*
G75*
G02*
X133237500Y-83650000I-237500J0D01*
G01*
X132762500Y-83650000D01*
G75*
G02*
X132525000Y-83412500I0J237500D01*
G01*
X132525000Y-82837500D01*
G75*
G02*
X132762500Y-82600000I237500J0D01*
G01*
G37*
G36*
G01*
X132762500Y-84350000D02*
X133237500Y-84350000D01*
G75*
G02*
X133475000Y-84587500I0J-237500D01*
G01*
X133475000Y-85162500D01*
G75*
G02*
X133237500Y-85400000I-237500J0D01*
G01*
X132762500Y-85400000D01*
G75*
G02*
X132525000Y-85162500I0J237500D01*
G01*
X132525000Y-84587500D01*
G75*
G02*
X132762500Y-84350000I237500J0D01*
G01*
G37*
%TD*%
%TO.C,R13*%
G36*
G01*
X155262500Y-77600000D02*
X155737500Y-77600000D01*
G75*
G02*
X155975000Y-77837500I0J-237500D01*
G01*
X155975000Y-78412500D01*
G75*
G02*
X155737500Y-78650000I-237500J0D01*
G01*
X155262500Y-78650000D01*
G75*
G02*
X155025000Y-78412500I0J237500D01*
G01*
X155025000Y-77837500D01*
G75*
G02*
X155262500Y-77600000I237500J0D01*
G01*
G37*
G36*
G01*
X155262500Y-79350000D02*
X155737500Y-79350000D01*
G75*
G02*
X155975000Y-79587500I0J-237500D01*
G01*
X155975000Y-80162500D01*
G75*
G02*
X155737500Y-80400000I-237500J0D01*
G01*
X155262500Y-80400000D01*
G75*
G02*
X155025000Y-80162500I0J237500D01*
G01*
X155025000Y-79587500D01*
G75*
G02*
X155262500Y-79350000I237500J0D01*
G01*
G37*
%TD*%
%TO.C,R14*%
G36*
G01*
X149262500Y-77600000D02*
X149737500Y-77600000D01*
G75*
G02*
X149975000Y-77837500I0J-237500D01*
G01*
X149975000Y-78412500D01*
G75*
G02*
X149737500Y-78650000I-237500J0D01*
G01*
X149262500Y-78650000D01*
G75*
G02*
X149025000Y-78412500I0J237500D01*
G01*
X149025000Y-77837500D01*
G75*
G02*
X149262500Y-77600000I237500J0D01*
G01*
G37*
G36*
G01*
X149262500Y-79350000D02*
X149737500Y-79350000D01*
G75*
G02*
X149975000Y-79587500I0J-237500D01*
G01*
X149975000Y-80162500D01*
G75*
G02*
X149737500Y-80400000I-237500J0D01*
G01*
X149262500Y-80400000D01*
G75*
G02*
X149025000Y-80162500I0J237500D01*
G01*
X149025000Y-79587500D01*
G75*
G02*
X149262500Y-79350000I237500J0D01*
G01*
G37*
%TD*%
%TO.C,R15*%
G36*
G01*
X153262500Y-77600000D02*
X153737500Y-77600000D01*
G75*
G02*
X153975000Y-77837500I0J-237500D01*
G01*
X153975000Y-78412500D01*
G75*
G02*
X153737500Y-78650000I-237500J0D01*
G01*
X153262500Y-78650000D01*
G75*
G02*
X153025000Y-78412500I0J237500D01*
G01*
X153025000Y-77837500D01*
G75*
G02*
X153262500Y-77600000I237500J0D01*
G01*
G37*
G36*
G01*
X153262500Y-79350000D02*
X153737500Y-79350000D01*
G75*
G02*
X153975000Y-79587500I0J-237500D01*
G01*
X153975000Y-80162500D01*
G75*
G02*
X153737500Y-80400000I-237500J0D01*
G01*
X153262500Y-80400000D01*
G75*
G02*
X153025000Y-80162500I0J237500D01*
G01*
X153025000Y-79587500D01*
G75*
G02*
X153262500Y-79350000I237500J0D01*
G01*
G37*
%TD*%
%TO.C,R16*%
G36*
G01*
X147262500Y-79350000D02*
X147737500Y-79350000D01*
G75*
G02*
X147975000Y-79587500I0J-237500D01*
G01*
X147975000Y-80162500D01*
G75*
G02*
X147737500Y-80400000I-237500J0D01*
G01*
X147262500Y-80400000D01*
G75*
G02*
X147025000Y-80162500I0J237500D01*
G01*
X147025000Y-79587500D01*
G75*
G02*
X147262500Y-79350000I237500J0D01*
G01*
G37*
G36*
G01*
X147262500Y-77600000D02*
X147737500Y-77600000D01*
G75*
G02*
X147975000Y-77837500I0J-237500D01*
G01*
X147975000Y-78412500D01*
G75*
G02*
X147737500Y-78650000I-237500J0D01*
G01*
X147262500Y-78650000D01*
G75*
G02*
X147025000Y-78412500I0J237500D01*
G01*
X147025000Y-77837500D01*
G75*
G02*
X147262500Y-77600000I237500J0D01*
G01*
G37*
%TD*%
%TO.C,R17*%
G36*
G01*
X151262500Y-79350000D02*
X151737500Y-79350000D01*
G75*
G02*
X151975000Y-79587500I0J-237500D01*
G01*
X151975000Y-80162500D01*
G75*
G02*
X151737500Y-80400000I-237500J0D01*
G01*
X151262500Y-80400000D01*
G75*
G02*
X151025000Y-80162500I0J237500D01*
G01*
X151025000Y-79587500D01*
G75*
G02*
X151262500Y-79350000I237500J0D01*
G01*
G37*
G36*
G01*
X151262500Y-77600000D02*
X151737500Y-77600000D01*
G75*
G02*
X151975000Y-77837500I0J-237500D01*
G01*
X151975000Y-78412500D01*
G75*
G02*
X151737500Y-78650000I-237500J0D01*
G01*
X151262500Y-78650000D01*
G75*
G02*
X151025000Y-78412500I0J237500D01*
G01*
X151025000Y-77837500D01*
G75*
G02*
X151262500Y-77600000I237500J0D01*
G01*
G37*
%TD*%
%TO.C,R18*%
G36*
G01*
X145262500Y-77600000D02*
X145737500Y-77600000D01*
G75*
G02*
X145975000Y-77837500I0J-237500D01*
G01*
X145975000Y-78412500D01*
G75*
G02*
X145737500Y-78650000I-237500J0D01*
G01*
X145262500Y-78650000D01*
G75*
G02*
X145025000Y-78412500I0J237500D01*
G01*
X145025000Y-77837500D01*
G75*
G02*
X145262500Y-77600000I237500J0D01*
G01*
G37*
G36*
G01*
X145262500Y-79350000D02*
X145737500Y-79350000D01*
G75*
G02*
X145975000Y-79587500I0J-237500D01*
G01*
X145975000Y-80162500D01*
G75*
G02*
X145737500Y-80400000I-237500J0D01*
G01*
X145262500Y-80400000D01*
G75*
G02*
X145025000Y-80162500I0J237500D01*
G01*
X145025000Y-79587500D01*
G75*
G02*
X145262500Y-79350000I237500J0D01*
G01*
G37*
%TD*%
%TO.C,R19*%
G36*
G01*
X169262500Y-79350000D02*
X169737500Y-79350000D01*
G75*
G02*
X169975000Y-79587500I0J-237500D01*
G01*
X169975000Y-80162500D01*
G75*
G02*
X169737500Y-80400000I-237500J0D01*
G01*
X169262500Y-80400000D01*
G75*
G02*
X169025000Y-80162500I0J237500D01*
G01*
X169025000Y-79587500D01*
G75*
G02*
X169262500Y-79350000I237500J0D01*
G01*
G37*
G36*
G01*
X169262500Y-77600000D02*
X169737500Y-77600000D01*
G75*
G02*
X169975000Y-77837500I0J-237500D01*
G01*
X169975000Y-78412500D01*
G75*
G02*
X169737500Y-78650000I-237500J0D01*
G01*
X169262500Y-78650000D01*
G75*
G02*
X169025000Y-78412500I0J237500D01*
G01*
X169025000Y-77837500D01*
G75*
G02*
X169262500Y-77600000I237500J0D01*
G01*
G37*
%TD*%
%TO.C,R20*%
G36*
G01*
X171262500Y-79350000D02*
X171737500Y-79350000D01*
G75*
G02*
X171975000Y-79587500I0J-237500D01*
G01*
X171975000Y-80162500D01*
G75*
G02*
X171737500Y-80400000I-237500J0D01*
G01*
X171262500Y-80400000D01*
G75*
G02*
X171025000Y-80162500I0J237500D01*
G01*
X171025000Y-79587500D01*
G75*
G02*
X171262500Y-79350000I237500J0D01*
G01*
G37*
G36*
G01*
X171262500Y-77600000D02*
X171737500Y-77600000D01*
G75*
G02*
X171975000Y-77837500I0J-237500D01*
G01*
X171975000Y-78412500D01*
G75*
G02*
X171737500Y-78650000I-237500J0D01*
G01*
X171262500Y-78650000D01*
G75*
G02*
X171025000Y-78412500I0J237500D01*
G01*
X171025000Y-77837500D01*
G75*
G02*
X171262500Y-77600000I237500J0D01*
G01*
G37*
%TD*%
%TO.C,R21*%
G36*
G01*
X183737500Y-102400000D02*
X183262500Y-102400000D01*
G75*
G02*
X183025000Y-102162500I0J237500D01*
G01*
X183025000Y-101587500D01*
G75*
G02*
X183262500Y-101350000I237500J0D01*
G01*
X183737500Y-101350000D01*
G75*
G02*
X183975000Y-101587500I0J-237500D01*
G01*
X183975000Y-102162500D01*
G75*
G02*
X183737500Y-102400000I-237500J0D01*
G01*
G37*
G36*
G01*
X183737500Y-100650000D02*
X183262500Y-100650000D01*
G75*
G02*
X183025000Y-100412500I0J237500D01*
G01*
X183025000Y-99837500D01*
G75*
G02*
X183262500Y-99600000I237500J0D01*
G01*
X183737500Y-99600000D01*
G75*
G02*
X183975000Y-99837500I0J-237500D01*
G01*
X183975000Y-100412500D01*
G75*
G02*
X183737500Y-100650000I-237500J0D01*
G01*
G37*
%TD*%
%TO.C,R22*%
G36*
G01*
X182050000Y-91762500D02*
X182050000Y-92237500D01*
G75*
G02*
X181812500Y-92475000I-237500J0D01*
G01*
X181237500Y-92475000D01*
G75*
G02*
X181000000Y-92237500I0J237500D01*
G01*
X181000000Y-91762500D01*
G75*
G02*
X181237500Y-91525000I237500J0D01*
G01*
X181812500Y-91525000D01*
G75*
G02*
X182050000Y-91762500I0J-237500D01*
G01*
G37*
G36*
G01*
X183800000Y-91762500D02*
X183800000Y-92237500D01*
G75*
G02*
X183562500Y-92475000I-237500J0D01*
G01*
X182987500Y-92475000D01*
G75*
G02*
X182750000Y-92237500I0J237500D01*
G01*
X182750000Y-91762500D01*
G75*
G02*
X182987500Y-91525000I237500J0D01*
G01*
X183562500Y-91525000D01*
G75*
G02*
X183800000Y-91762500I0J-237500D01*
G01*
G37*
%TD*%
%TO.C,R23*%
G36*
G01*
X183800000Y-93762500D02*
X183800000Y-94237500D01*
G75*
G02*
X183562500Y-94475000I-237500J0D01*
G01*
X182987500Y-94475000D01*
G75*
G02*
X182750000Y-94237500I0J237500D01*
G01*
X182750000Y-93762500D01*
G75*
G02*
X182987500Y-93525000I237500J0D01*
G01*
X183562500Y-93525000D01*
G75*
G02*
X183800000Y-93762500I0J-237500D01*
G01*
G37*
G36*
G01*
X182050000Y-93762500D02*
X182050000Y-94237500D01*
G75*
G02*
X181812500Y-94475000I-237500J0D01*
G01*
X181237500Y-94475000D01*
G75*
G02*
X181000000Y-94237500I0J237500D01*
G01*
X181000000Y-93762500D01*
G75*
G02*
X181237500Y-93525000I237500J0D01*
G01*
X181812500Y-93525000D01*
G75*
G02*
X182050000Y-93762500I0J-237500D01*
G01*
G37*
%TD*%
%TO.C,R24*%
G36*
G01*
X143262500Y-79350000D02*
X143737500Y-79350000D01*
G75*
G02*
X143975000Y-79587500I0J-237500D01*
G01*
X143975000Y-80162500D01*
G75*
G02*
X143737500Y-80400000I-237500J0D01*
G01*
X143262500Y-80400000D01*
G75*
G02*
X143025000Y-80162500I0J237500D01*
G01*
X143025000Y-79587500D01*
G75*
G02*
X143262500Y-79350000I237500J0D01*
G01*
G37*
G36*
G01*
X143262500Y-77600000D02*
X143737500Y-77600000D01*
G75*
G02*
X143975000Y-77837500I0J-237500D01*
G01*
X143975000Y-78412500D01*
G75*
G02*
X143737500Y-78650000I-237500J0D01*
G01*
X143262500Y-78650000D01*
G75*
G02*
X143025000Y-78412500I0J237500D01*
G01*
X143025000Y-77837500D01*
G75*
G02*
X143262500Y-77600000I237500J0D01*
G01*
G37*
%TD*%
%TO.C,R25*%
G36*
G01*
X174237500Y-94150000D02*
X173762500Y-94150000D01*
G75*
G02*
X173525000Y-93912500I0J237500D01*
G01*
X173525000Y-93337500D01*
G75*
G02*
X173762500Y-93100000I237500J0D01*
G01*
X174237500Y-93100000D01*
G75*
G02*
X174475000Y-93337500I0J-237500D01*
G01*
X174475000Y-93912500D01*
G75*
G02*
X174237500Y-94150000I-237500J0D01*
G01*
G37*
G36*
G01*
X174237500Y-95900000D02*
X173762500Y-95900000D01*
G75*
G02*
X173525000Y-95662500I0J237500D01*
G01*
X173525000Y-95087500D01*
G75*
G02*
X173762500Y-94850000I237500J0D01*
G01*
X174237500Y-94850000D01*
G75*
G02*
X174475000Y-95087500I0J-237500D01*
G01*
X174475000Y-95662500D01*
G75*
G02*
X174237500Y-95900000I-237500J0D01*
G01*
G37*
%TD*%
%TO.C,R26*%
G36*
G01*
X176737500Y-95900000D02*
X176262500Y-95900000D01*
G75*
G02*
X176025000Y-95662500I0J237500D01*
G01*
X176025000Y-95087500D01*
G75*
G02*
X176262500Y-94850000I237500J0D01*
G01*
X176737500Y-94850000D01*
G75*
G02*
X176975000Y-95087500I0J-237500D01*
G01*
X176975000Y-95662500D01*
G75*
G02*
X176737500Y-95900000I-237500J0D01*
G01*
G37*
G36*
G01*
X176737500Y-94150000D02*
X176262500Y-94150000D01*
G75*
G02*
X176025000Y-93912500I0J237500D01*
G01*
X176025000Y-93337500D01*
G75*
G02*
X176262500Y-93100000I237500J0D01*
G01*
X176737500Y-93100000D01*
G75*
G02*
X176975000Y-93337500I0J-237500D01*
G01*
X176975000Y-93912500D01*
G75*
G02*
X176737500Y-94150000I-237500J0D01*
G01*
G37*
%TD*%
%TO.C,R27*%
G36*
G01*
X146737500Y-96650000D02*
X146262500Y-96650000D01*
G75*
G02*
X146025000Y-96412500I0J237500D01*
G01*
X146025000Y-95837500D01*
G75*
G02*
X146262500Y-95600000I237500J0D01*
G01*
X146737500Y-95600000D01*
G75*
G02*
X146975000Y-95837500I0J-237500D01*
G01*
X146975000Y-96412500D01*
G75*
G02*
X146737500Y-96650000I-237500J0D01*
G01*
G37*
G36*
G01*
X146737500Y-98400000D02*
X146262500Y-98400000D01*
G75*
G02*
X146025000Y-98162500I0J237500D01*
G01*
X146025000Y-97587500D01*
G75*
G02*
X146262500Y-97350000I237500J0D01*
G01*
X146737500Y-97350000D01*
G75*
G02*
X146975000Y-97587500I0J-237500D01*
G01*
X146975000Y-98162500D01*
G75*
G02*
X146737500Y-98400000I-237500J0D01*
G01*
G37*
%TD*%
%TO.C,R28*%
G36*
G01*
X143737500Y-98400000D02*
X143262500Y-98400000D01*
G75*
G02*
X143025000Y-98162500I0J237500D01*
G01*
X143025000Y-97587500D01*
G75*
G02*
X143262500Y-97350000I237500J0D01*
G01*
X143737500Y-97350000D01*
G75*
G02*
X143975000Y-97587500I0J-237500D01*
G01*
X143975000Y-98162500D01*
G75*
G02*
X143737500Y-98400000I-237500J0D01*
G01*
G37*
G36*
G01*
X143737500Y-96650000D02*
X143262500Y-96650000D01*
G75*
G02*
X143025000Y-96412500I0J237500D01*
G01*
X143025000Y-95837500D01*
G75*
G02*
X143262500Y-95600000I237500J0D01*
G01*
X143737500Y-95600000D01*
G75*
G02*
X143975000Y-95837500I0J-237500D01*
G01*
X143975000Y-96412500D01*
G75*
G02*
X143737500Y-96650000I-237500J0D01*
G01*
G37*
%TD*%
%TO.C,R29*%
G36*
G01*
X146737500Y-86400000D02*
X146262500Y-86400000D01*
G75*
G02*
X146025000Y-86162500I0J237500D01*
G01*
X146025000Y-85587500D01*
G75*
G02*
X146262500Y-85350000I237500J0D01*
G01*
X146737500Y-85350000D01*
G75*
G02*
X146975000Y-85587500I0J-237500D01*
G01*
X146975000Y-86162500D01*
G75*
G02*
X146737500Y-86400000I-237500J0D01*
G01*
G37*
G36*
G01*
X146737500Y-84650000D02*
X146262500Y-84650000D01*
G75*
G02*
X146025000Y-84412500I0J237500D01*
G01*
X146025000Y-83837500D01*
G75*
G02*
X146262500Y-83600000I237500J0D01*
G01*
X146737500Y-83600000D01*
G75*
G02*
X146975000Y-83837500I0J-237500D01*
G01*
X146975000Y-84412500D01*
G75*
G02*
X146737500Y-84650000I-237500J0D01*
G01*
G37*
%TD*%
D12*
%TO.C,U1*%
X123790000Y-109385000D03*
X124290000Y-109385000D03*
X124790000Y-109385000D03*
X125290000Y-109385000D03*
X125790000Y-109385000D03*
X125790000Y-106435000D03*
X125290000Y-106435000D03*
X124790000Y-106435000D03*
X124290000Y-106435000D03*
X123790000Y-106435000D03*
D13*
X125650000Y-107430000D03*
D14*
X123240000Y-108160000D03*
X126340000Y-108160000D03*
X123240000Y-107660000D03*
X126340000Y-107660000D03*
D13*
X125650000Y-108390000D03*
X124790000Y-108390000D03*
X124790000Y-107430000D03*
X123930000Y-108390000D03*
X123930000Y-107430000D03*
%TD*%
D15*
%TO.C,U2*%
X129065000Y-89410000D03*
X129065000Y-87710000D03*
X129065000Y-86010000D03*
X129065000Y-84310000D03*
X129065000Y-82610000D03*
D16*
X117490000Y-83235000D03*
X122340000Y-88785000D03*
X117490000Y-88785000D03*
X122340000Y-83235000D03*
%TD*%
%TO.C,U3*%
G36*
G01*
X165375000Y-93687500D02*
X165375000Y-93812500D01*
G75*
G02*
X165312500Y-93875000I-62500J0D01*
G01*
X164587500Y-93875000D01*
G75*
G02*
X164525000Y-93812500I0J62500D01*
G01*
X164525000Y-93687500D01*
G75*
G02*
X164587500Y-93625000I62500J0D01*
G01*
X165312500Y-93625000D01*
G75*
G02*
X165375000Y-93687500I0J-62500D01*
G01*
G37*
G36*
G01*
X165375000Y-93187500D02*
X165375000Y-93312500D01*
G75*
G02*
X165312500Y-93375000I-62500J0D01*
G01*
X164587500Y-93375000D01*
G75*
G02*
X164525000Y-93312500I0J62500D01*
G01*
X164525000Y-93187500D01*
G75*
G02*
X164587500Y-93125000I62500J0D01*
G01*
X165312500Y-93125000D01*
G75*
G02*
X165375000Y-93187500I0J-62500D01*
G01*
G37*
G36*
G01*
X165375000Y-92687500D02*
X165375000Y-92812500D01*
G75*
G02*
X165312500Y-92875000I-62500J0D01*
G01*
X164587500Y-92875000D01*
G75*
G02*
X164525000Y-92812500I0J62500D01*
G01*
X164525000Y-92687500D01*
G75*
G02*
X164587500Y-92625000I62500J0D01*
G01*
X165312500Y-92625000D01*
G75*
G02*
X165375000Y-92687500I0J-62500D01*
G01*
G37*
G36*
G01*
X165375000Y-92187500D02*
X165375000Y-92312500D01*
G75*
G02*
X165312500Y-92375000I-62500J0D01*
G01*
X164587500Y-92375000D01*
G75*
G02*
X164525000Y-92312500I0J62500D01*
G01*
X164525000Y-92187500D01*
G75*
G02*
X164587500Y-92125000I62500J0D01*
G01*
X165312500Y-92125000D01*
G75*
G02*
X165375000Y-92187500I0J-62500D01*
G01*
G37*
G36*
G01*
X165375000Y-91687500D02*
X165375000Y-91812500D01*
G75*
G02*
X165312500Y-91875000I-62500J0D01*
G01*
X164587500Y-91875000D01*
G75*
G02*
X164525000Y-91812500I0J62500D01*
G01*
X164525000Y-91687500D01*
G75*
G02*
X164587500Y-91625000I62500J0D01*
G01*
X165312500Y-91625000D01*
G75*
G02*
X165375000Y-91687500I0J-62500D01*
G01*
G37*
G36*
G01*
X165375000Y-91187500D02*
X165375000Y-91312500D01*
G75*
G02*
X165312500Y-91375000I-62500J0D01*
G01*
X164587500Y-91375000D01*
G75*
G02*
X164525000Y-91312500I0J62500D01*
G01*
X164525000Y-91187500D01*
G75*
G02*
X164587500Y-91125000I62500J0D01*
G01*
X165312500Y-91125000D01*
G75*
G02*
X165375000Y-91187500I0J-62500D01*
G01*
G37*
G36*
G01*
X165375000Y-90687500D02*
X165375000Y-90812500D01*
G75*
G02*
X165312500Y-90875000I-62500J0D01*
G01*
X164587500Y-90875000D01*
G75*
G02*
X164525000Y-90812500I0J62500D01*
G01*
X164525000Y-90687500D01*
G75*
G02*
X164587500Y-90625000I62500J0D01*
G01*
X165312500Y-90625000D01*
G75*
G02*
X165375000Y-90687500I0J-62500D01*
G01*
G37*
G36*
G01*
X165375000Y-90187500D02*
X165375000Y-90312500D01*
G75*
G02*
X165312500Y-90375000I-62500J0D01*
G01*
X164587500Y-90375000D01*
G75*
G02*
X164525000Y-90312500I0J62500D01*
G01*
X164525000Y-90187500D01*
G75*
G02*
X164587500Y-90125000I62500J0D01*
G01*
X165312500Y-90125000D01*
G75*
G02*
X165375000Y-90187500I0J-62500D01*
G01*
G37*
G36*
G01*
X164375000Y-89187500D02*
X164375000Y-89912500D01*
G75*
G02*
X164312500Y-89975000I-62500J0D01*
G01*
X164187500Y-89975000D01*
G75*
G02*
X164125000Y-89912500I0J62500D01*
G01*
X164125000Y-89187500D01*
G75*
G02*
X164187500Y-89125000I62500J0D01*
G01*
X164312500Y-89125000D01*
G75*
G02*
X164375000Y-89187500I0J-62500D01*
G01*
G37*
G36*
G01*
X163875000Y-89187500D02*
X163875000Y-89912500D01*
G75*
G02*
X163812500Y-89975000I-62500J0D01*
G01*
X163687500Y-89975000D01*
G75*
G02*
X163625000Y-89912500I0J62500D01*
G01*
X163625000Y-89187500D01*
G75*
G02*
X163687500Y-89125000I62500J0D01*
G01*
X163812500Y-89125000D01*
G75*
G02*
X163875000Y-89187500I0J-62500D01*
G01*
G37*
G36*
G01*
X163375000Y-89187500D02*
X163375000Y-89912500D01*
G75*
G02*
X163312500Y-89975000I-62500J0D01*
G01*
X163187500Y-89975000D01*
G75*
G02*
X163125000Y-89912500I0J62500D01*
G01*
X163125000Y-89187500D01*
G75*
G02*
X163187500Y-89125000I62500J0D01*
G01*
X163312500Y-89125000D01*
G75*
G02*
X163375000Y-89187500I0J-62500D01*
G01*
G37*
G36*
G01*
X162875000Y-89187500D02*
X162875000Y-89912500D01*
G75*
G02*
X162812500Y-89975000I-62500J0D01*
G01*
X162687500Y-89975000D01*
G75*
G02*
X162625000Y-89912500I0J62500D01*
G01*
X162625000Y-89187500D01*
G75*
G02*
X162687500Y-89125000I62500J0D01*
G01*
X162812500Y-89125000D01*
G75*
G02*
X162875000Y-89187500I0J-62500D01*
G01*
G37*
G36*
G01*
X162375000Y-89187500D02*
X162375000Y-89912500D01*
G75*
G02*
X162312500Y-89975000I-62500J0D01*
G01*
X162187500Y-89975000D01*
G75*
G02*
X162125000Y-89912500I0J62500D01*
G01*
X162125000Y-89187500D01*
G75*
G02*
X162187500Y-89125000I62500J0D01*
G01*
X162312500Y-89125000D01*
G75*
G02*
X162375000Y-89187500I0J-62500D01*
G01*
G37*
G36*
G01*
X161875000Y-89187500D02*
X161875000Y-89912500D01*
G75*
G02*
X161812500Y-89975000I-62500J0D01*
G01*
X161687500Y-89975000D01*
G75*
G02*
X161625000Y-89912500I0J62500D01*
G01*
X161625000Y-89187500D01*
G75*
G02*
X161687500Y-89125000I62500J0D01*
G01*
X161812500Y-89125000D01*
G75*
G02*
X161875000Y-89187500I0J-62500D01*
G01*
G37*
G36*
G01*
X161475000Y-90187500D02*
X161475000Y-90312500D01*
G75*
G02*
X161412500Y-90375000I-62500J0D01*
G01*
X160687500Y-90375000D01*
G75*
G02*
X160625000Y-90312500I0J62500D01*
G01*
X160625000Y-90187500D01*
G75*
G02*
X160687500Y-90125000I62500J0D01*
G01*
X161412500Y-90125000D01*
G75*
G02*
X161475000Y-90187500I0J-62500D01*
G01*
G37*
G36*
G01*
X161475000Y-90687500D02*
X161475000Y-90812500D01*
G75*
G02*
X161412500Y-90875000I-62500J0D01*
G01*
X160687500Y-90875000D01*
G75*
G02*
X160625000Y-90812500I0J62500D01*
G01*
X160625000Y-90687500D01*
G75*
G02*
X160687500Y-90625000I62500J0D01*
G01*
X161412500Y-90625000D01*
G75*
G02*
X161475000Y-90687500I0J-62500D01*
G01*
G37*
G36*
G01*
X161475000Y-91187500D02*
X161475000Y-91312500D01*
G75*
G02*
X161412500Y-91375000I-62500J0D01*
G01*
X160687500Y-91375000D01*
G75*
G02*
X160625000Y-91312500I0J62500D01*
G01*
X160625000Y-91187500D01*
G75*
G02*
X160687500Y-91125000I62500J0D01*
G01*
X161412500Y-91125000D01*
G75*
G02*
X161475000Y-91187500I0J-62500D01*
G01*
G37*
G36*
G01*
X161475000Y-91687500D02*
X161475000Y-91812500D01*
G75*
G02*
X161412500Y-91875000I-62500J0D01*
G01*
X160687500Y-91875000D01*
G75*
G02*
X160625000Y-91812500I0J62500D01*
G01*
X160625000Y-91687500D01*
G75*
G02*
X160687500Y-91625000I62500J0D01*
G01*
X161412500Y-91625000D01*
G75*
G02*
X161475000Y-91687500I0J-62500D01*
G01*
G37*
G36*
G01*
X161475000Y-92187500D02*
X161475000Y-92312500D01*
G75*
G02*
X161412500Y-92375000I-62500J0D01*
G01*
X160687500Y-92375000D01*
G75*
G02*
X160625000Y-92312500I0J62500D01*
G01*
X160625000Y-92187500D01*
G75*
G02*
X160687500Y-92125000I62500J0D01*
G01*
X161412500Y-92125000D01*
G75*
G02*
X161475000Y-92187500I0J-62500D01*
G01*
G37*
G36*
G01*
X161475000Y-92687500D02*
X161475000Y-92812500D01*
G75*
G02*
X161412500Y-92875000I-62500J0D01*
G01*
X160687500Y-92875000D01*
G75*
G02*
X160625000Y-92812500I0J62500D01*
G01*
X160625000Y-92687500D01*
G75*
G02*
X160687500Y-92625000I62500J0D01*
G01*
X161412500Y-92625000D01*
G75*
G02*
X161475000Y-92687500I0J-62500D01*
G01*
G37*
G36*
G01*
X161475000Y-93187500D02*
X161475000Y-93312500D01*
G75*
G02*
X161412500Y-93375000I-62500J0D01*
G01*
X160687500Y-93375000D01*
G75*
G02*
X160625000Y-93312500I0J62500D01*
G01*
X160625000Y-93187500D01*
G75*
G02*
X160687500Y-93125000I62500J0D01*
G01*
X161412500Y-93125000D01*
G75*
G02*
X161475000Y-93187500I0J-62500D01*
G01*
G37*
G36*
G01*
X161475000Y-93687500D02*
X161475000Y-93812500D01*
G75*
G02*
X161412500Y-93875000I-62500J0D01*
G01*
X160687500Y-93875000D01*
G75*
G02*
X160625000Y-93812500I0J62500D01*
G01*
X160625000Y-93687500D01*
G75*
G02*
X160687500Y-93625000I62500J0D01*
G01*
X161412500Y-93625000D01*
G75*
G02*
X161475000Y-93687500I0J-62500D01*
G01*
G37*
G36*
G01*
X161875000Y-94087500D02*
X161875000Y-94812500D01*
G75*
G02*
X161812500Y-94875000I-62500J0D01*
G01*
X161687500Y-94875000D01*
G75*
G02*
X161625000Y-94812500I0J62500D01*
G01*
X161625000Y-94087500D01*
G75*
G02*
X161687500Y-94025000I62500J0D01*
G01*
X161812500Y-94025000D01*
G75*
G02*
X161875000Y-94087500I0J-62500D01*
G01*
G37*
G36*
G01*
X162375000Y-94087500D02*
X162375000Y-94812500D01*
G75*
G02*
X162312500Y-94875000I-62500J0D01*
G01*
X162187500Y-94875000D01*
G75*
G02*
X162125000Y-94812500I0J62500D01*
G01*
X162125000Y-94087500D01*
G75*
G02*
X162187500Y-94025000I62500J0D01*
G01*
X162312500Y-94025000D01*
G75*
G02*
X162375000Y-94087500I0J-62500D01*
G01*
G37*
G36*
G01*
X162875000Y-94087500D02*
X162875000Y-94812500D01*
G75*
G02*
X162812500Y-94875000I-62500J0D01*
G01*
X162687500Y-94875000D01*
G75*
G02*
X162625000Y-94812500I0J62500D01*
G01*
X162625000Y-94087500D01*
G75*
G02*
X162687500Y-94025000I62500J0D01*
G01*
X162812500Y-94025000D01*
G75*
G02*
X162875000Y-94087500I0J-62500D01*
G01*
G37*
G36*
G01*
X163375000Y-94087500D02*
X163375000Y-94812500D01*
G75*
G02*
X163312500Y-94875000I-62500J0D01*
G01*
X163187500Y-94875000D01*
G75*
G02*
X163125000Y-94812500I0J62500D01*
G01*
X163125000Y-94087500D01*
G75*
G02*
X163187500Y-94025000I62500J0D01*
G01*
X163312500Y-94025000D01*
G75*
G02*
X163375000Y-94087500I0J-62500D01*
G01*
G37*
G36*
G01*
X163875000Y-94087500D02*
X163875000Y-94812500D01*
G75*
G02*
X163812500Y-94875000I-62500J0D01*
G01*
X163687500Y-94875000D01*
G75*
G02*
X163625000Y-94812500I0J62500D01*
G01*
X163625000Y-94087500D01*
G75*
G02*
X163687500Y-94025000I62500J0D01*
G01*
X163812500Y-94025000D01*
G75*
G02*
X163875000Y-94087500I0J-62500D01*
G01*
G37*
G36*
G01*
X164375000Y-94087500D02*
X164375000Y-94812500D01*
G75*
G02*
X164312500Y-94875000I-62500J0D01*
G01*
X164187500Y-94875000D01*
G75*
G02*
X164125000Y-94812500I0J62500D01*
G01*
X164125000Y-94087500D01*
G75*
G02*
X164187500Y-94025000I62500J0D01*
G01*
X164312500Y-94025000D01*
G75*
G02*
X164375000Y-94087500I0J-62500D01*
G01*
G37*
G36*
G01*
X164195000Y-92975000D02*
X164195000Y-93465000D01*
G75*
G02*
X163950000Y-93710000I-245000J0D01*
G01*
X163370000Y-93710000D01*
G75*
G02*
X163125000Y-93465000I0J245000D01*
G01*
X163125000Y-92975000D01*
G75*
G02*
X163370000Y-92730000I245000J0D01*
G01*
X163950000Y-92730000D01*
G75*
G02*
X164195000Y-92975000I0J-245000D01*
G01*
G37*
G36*
G01*
X164195000Y-91755000D02*
X164195000Y-92245000D01*
G75*
G02*
X163950000Y-92490000I-245000J0D01*
G01*
X163370000Y-92490000D01*
G75*
G02*
X163125000Y-92245000I0J245000D01*
G01*
X163125000Y-91755000D01*
G75*
G02*
X163370000Y-91510000I245000J0D01*
G01*
X163950000Y-91510000D01*
G75*
G02*
X164195000Y-91755000I0J-245000D01*
G01*
G37*
G36*
G01*
X164195000Y-90535000D02*
X164195000Y-91025000D01*
G75*
G02*
X163950000Y-91270000I-245000J0D01*
G01*
X163370000Y-91270000D01*
G75*
G02*
X163125000Y-91025000I0J245000D01*
G01*
X163125000Y-90535000D01*
G75*
G02*
X163370000Y-90290000I245000J0D01*
G01*
X163950000Y-90290000D01*
G75*
G02*
X164195000Y-90535000I0J-245000D01*
G01*
G37*
G36*
G01*
X162875000Y-92975000D02*
X162875000Y-93465000D01*
G75*
G02*
X162630000Y-93710000I-245000J0D01*
G01*
X162050000Y-93710000D01*
G75*
G02*
X161805000Y-93465000I0J245000D01*
G01*
X161805000Y-92975000D01*
G75*
G02*
X162050000Y-92730000I245000J0D01*
G01*
X162630000Y-92730000D01*
G75*
G02*
X162875000Y-92975000I0J-245000D01*
G01*
G37*
G36*
G01*
X162875000Y-91755000D02*
X162875000Y-92245000D01*
G75*
G02*
X162630000Y-92490000I-245000J0D01*
G01*
X162050000Y-92490000D01*
G75*
G02*
X161805000Y-92245000I0J245000D01*
G01*
X161805000Y-91755000D01*
G75*
G02*
X162050000Y-91510000I245000J0D01*
G01*
X162630000Y-91510000D01*
G75*
G02*
X162875000Y-91755000I0J-245000D01*
G01*
G37*
G36*
G01*
X162875000Y-90535000D02*
X162875000Y-91025000D01*
G75*
G02*
X162630000Y-91270000I-245000J0D01*
G01*
X162050000Y-91270000D01*
G75*
G02*
X161805000Y-91025000I0J245000D01*
G01*
X161805000Y-90535000D01*
G75*
G02*
X162050000Y-90290000I245000J0D01*
G01*
X162630000Y-90290000D01*
G75*
G02*
X162875000Y-90535000I0J-245000D01*
G01*
G37*
%TD*%
%TO.C,U4*%
G36*
G01*
X175000000Y-101255000D02*
X175000000Y-101555000D01*
G75*
G02*
X174850000Y-101705000I-150000J0D01*
G01*
X173200000Y-101705000D01*
G75*
G02*
X173050000Y-101555000I0J150000D01*
G01*
X173050000Y-101255000D01*
G75*
G02*
X173200000Y-101105000I150000J0D01*
G01*
X174850000Y-101105000D01*
G75*
G02*
X175000000Y-101255000I0J-150000D01*
G01*
G37*
G36*
G01*
X175000000Y-99985000D02*
X175000000Y-100285000D01*
G75*
G02*
X174850000Y-100435000I-150000J0D01*
G01*
X173200000Y-100435000D01*
G75*
G02*
X173050000Y-100285000I0J150000D01*
G01*
X173050000Y-99985000D01*
G75*
G02*
X173200000Y-99835000I150000J0D01*
G01*
X174850000Y-99835000D01*
G75*
G02*
X175000000Y-99985000I0J-150000D01*
G01*
G37*
G36*
G01*
X175000000Y-98715000D02*
X175000000Y-99015000D01*
G75*
G02*
X174850000Y-99165000I-150000J0D01*
G01*
X173200000Y-99165000D01*
G75*
G02*
X173050000Y-99015000I0J150000D01*
G01*
X173050000Y-98715000D01*
G75*
G02*
X173200000Y-98565000I150000J0D01*
G01*
X174850000Y-98565000D01*
G75*
G02*
X175000000Y-98715000I0J-150000D01*
G01*
G37*
G36*
G01*
X175000000Y-97445000D02*
X175000000Y-97745000D01*
G75*
G02*
X174850000Y-97895000I-150000J0D01*
G01*
X173200000Y-97895000D01*
G75*
G02*
X173050000Y-97745000I0J150000D01*
G01*
X173050000Y-97445000D01*
G75*
G02*
X173200000Y-97295000I150000J0D01*
G01*
X174850000Y-97295000D01*
G75*
G02*
X175000000Y-97445000I0J-150000D01*
G01*
G37*
G36*
G01*
X179950000Y-97445000D02*
X179950000Y-97745000D01*
G75*
G02*
X179800000Y-97895000I-150000J0D01*
G01*
X178150000Y-97895000D01*
G75*
G02*
X178000000Y-97745000I0J150000D01*
G01*
X178000000Y-97445000D01*
G75*
G02*
X178150000Y-97295000I150000J0D01*
G01*
X179800000Y-97295000D01*
G75*
G02*
X179950000Y-97445000I0J-150000D01*
G01*
G37*
G36*
G01*
X179950000Y-98715000D02*
X179950000Y-99015000D01*
G75*
G02*
X179800000Y-99165000I-150000J0D01*
G01*
X178150000Y-99165000D01*
G75*
G02*
X178000000Y-99015000I0J150000D01*
G01*
X178000000Y-98715000D01*
G75*
G02*
X178150000Y-98565000I150000J0D01*
G01*
X179800000Y-98565000D01*
G75*
G02*
X179950000Y-98715000I0J-150000D01*
G01*
G37*
G36*
G01*
X179950000Y-99985000D02*
X179950000Y-100285000D01*
G75*
G02*
X179800000Y-100435000I-150000J0D01*
G01*
X178150000Y-100435000D01*
G75*
G02*
X178000000Y-100285000I0J150000D01*
G01*
X178000000Y-99985000D01*
G75*
G02*
X178150000Y-99835000I150000J0D01*
G01*
X179800000Y-99835000D01*
G75*
G02*
X179950000Y-99985000I0J-150000D01*
G01*
G37*
G36*
G01*
X179950000Y-101255000D02*
X179950000Y-101555000D01*
G75*
G02*
X179800000Y-101705000I-150000J0D01*
G01*
X178150000Y-101705000D01*
G75*
G02*
X178000000Y-101555000I0J150000D01*
G01*
X178000000Y-101255000D01*
G75*
G02*
X178150000Y-101105000I150000J0D01*
G01*
X179800000Y-101105000D01*
G75*
G02*
X179950000Y-101255000I0J-150000D01*
G01*
G37*
%TD*%
%TO.C,U5*%
G36*
G01*
X159550000Y-103245000D02*
X159550000Y-102945000D01*
G75*
G02*
X159700000Y-102795000I150000J0D01*
G01*
X161350000Y-102795000D01*
G75*
G02*
X161500000Y-102945000I0J-150000D01*
G01*
X161500000Y-103245000D01*
G75*
G02*
X161350000Y-103395000I-150000J0D01*
G01*
X159700000Y-103395000D01*
G75*
G02*
X159550000Y-103245000I0J150000D01*
G01*
G37*
G36*
G01*
X159550000Y-104515000D02*
X159550000Y-104215000D01*
G75*
G02*
X159700000Y-104065000I150000J0D01*
G01*
X161350000Y-104065000D01*
G75*
G02*
X161500000Y-104215000I0J-150000D01*
G01*
X161500000Y-104515000D01*
G75*
G02*
X161350000Y-104665000I-150000J0D01*
G01*
X159700000Y-104665000D01*
G75*
G02*
X159550000Y-104515000I0J150000D01*
G01*
G37*
G36*
G01*
X159550000Y-105785000D02*
X159550000Y-105485000D01*
G75*
G02*
X159700000Y-105335000I150000J0D01*
G01*
X161350000Y-105335000D01*
G75*
G02*
X161500000Y-105485000I0J-150000D01*
G01*
X161500000Y-105785000D01*
G75*
G02*
X161350000Y-105935000I-150000J0D01*
G01*
X159700000Y-105935000D01*
G75*
G02*
X159550000Y-105785000I0J150000D01*
G01*
G37*
G36*
G01*
X159550000Y-107055000D02*
X159550000Y-106755000D01*
G75*
G02*
X159700000Y-106605000I150000J0D01*
G01*
X161350000Y-106605000D01*
G75*
G02*
X161500000Y-106755000I0J-150000D01*
G01*
X161500000Y-107055000D01*
G75*
G02*
X161350000Y-107205000I-150000J0D01*
G01*
X159700000Y-107205000D01*
G75*
G02*
X159550000Y-107055000I0J150000D01*
G01*
G37*
G36*
G01*
X164500000Y-107055000D02*
X164500000Y-106755000D01*
G75*
G02*
X164650000Y-106605000I150000J0D01*
G01*
X166300000Y-106605000D01*
G75*
G02*
X166450000Y-106755000I0J-150000D01*
G01*
X166450000Y-107055000D01*
G75*
G02*
X166300000Y-107205000I-150000J0D01*
G01*
X164650000Y-107205000D01*
G75*
G02*
X164500000Y-107055000I0J150000D01*
G01*
G37*
G36*
G01*
X164500000Y-105785000D02*
X164500000Y-105485000D01*
G75*
G02*
X164650000Y-105335000I150000J0D01*
G01*
X166300000Y-105335000D01*
G75*
G02*
X166450000Y-105485000I0J-150000D01*
G01*
X166450000Y-105785000D01*
G75*
G02*
X166300000Y-105935000I-150000J0D01*
G01*
X164650000Y-105935000D01*
G75*
G02*
X164500000Y-105785000I0J150000D01*
G01*
G37*
G36*
G01*
X164500000Y-104515000D02*
X164500000Y-104215000D01*
G75*
G02*
X164650000Y-104065000I150000J0D01*
G01*
X166300000Y-104065000D01*
G75*
G02*
X166450000Y-104215000I0J-150000D01*
G01*
X166450000Y-104515000D01*
G75*
G02*
X166300000Y-104665000I-150000J0D01*
G01*
X164650000Y-104665000D01*
G75*
G02*
X164500000Y-104515000I0J150000D01*
G01*
G37*
G36*
G01*
X164500000Y-103245000D02*
X164500000Y-102945000D01*
G75*
G02*
X164650000Y-102795000I150000J0D01*
G01*
X166300000Y-102795000D01*
G75*
G02*
X166450000Y-102945000I0J-150000D01*
G01*
X166450000Y-103245000D01*
G75*
G02*
X166300000Y-103395000I-150000J0D01*
G01*
X164650000Y-103395000D01*
G75*
G02*
X164500000Y-103245000I0J150000D01*
G01*
G37*
%TD*%
D17*
%TO.C,U6*%
X145000000Y-88900000D03*
X145000000Y-93100000D03*
X142460000Y-88900000D03*
X147540000Y-88900000D03*
X147540000Y-93100000D03*
X142460000Y-93100000D03*
%TD*%
M02*
